<svg xmlns="http://www.w3.org/2000/svg" xmlns:xlink="http://www.w3.org/1999/xlink" viewBox="0 0 178.4 106"><defs><style>.cls-1{opacity:0.28;}.cls-2{fill:url(#purpink_tree_gradient);}</style><linearGradient id="purpink_tree_gradient" x1="5.29" y1="31" x2="174.11" y2="71.96" gradientUnits="userSpaceOnUse"><stop offset="0" stop-color="#ff7bac"/><stop offset="0.28" stop-color="#cb61a3"/><stop offset="0.62" stop-color="#954599"/><stop offset="0.87" stop-color="#733493"/><stop offset="1" stop-color="#662d91"/><stop offset="1" stop-color="#1b7f49"/></linearGradient></defs><g id="Layer_2" data-name="Layer 2"><g id="lily_pods" data-name="lily pods"><g id="lily_pod_3" data-name="lily pod 3"><g id="purple"><path class="cls-1" d="M178.4,55.12c0,28.13-39.12,50.88-87.33,50.88S3.74,83.25,3.74,55.12,42.86,4.24,91.07,4.24a149.21,149.21,0,0,1,17.47,1V40.58l19-31.69C157.62,17,178.4,34.62,178.4,55.12Z"/><path class="cls-2" d="M174.66,50.88c0,28.13-39.12,50.88-87.33,50.88S0,79,0,50.88,39.12,0,87.33,0A149.34,149.34,0,0,1,104.8,1V36.34l19-31.69C153.87,12.72,174.66,30.38,174.66,50.88Z"/></g></g></g></g></svg>
