<svg xmlns="http://www.w3.org/2000/svg" xmlns:xlink="http://www.w3.org/1999/xlink" viewBox="0 0 186.23 119.19"><defs><style>.cls-1{opacity:0.39;}.cls-2{fill:url(#green_tree_gradient);}.cls-3{fill:url(#linear-gradient);}.cls-4{fill:url(#New_Gradient_Swatch_1);}</style><linearGradient id="green_tree_gradient" y1="70.77" x2="152.71" y2="70.77" gradientUnits="userSpaceOnUse"><stop offset="0" stop-color="#4a9f38"/><stop offset="0.01" stop-color="#4a9f38"/><stop offset="0.65" stop-color="#288844"/><stop offset="1" stop-color="#1b7f49"/><stop offset="1" stop-color="#277647"/><stop offset="1" stop-color="#57513e"/><stop offset="1" stop-color="#763b39"/><stop offset="1" stop-color="#813237"/></linearGradient><linearGradient id="linear-gradient" x1="94.61" y1="34.79" x2="186.23" y2="34.79" gradientUnits="userSpaceOnUse"><stop offset="0"/><stop offset="1" stop-color="#1a1a1a" stop-opacity="0.25"/></linearGradient><linearGradient id="New_Gradient_Swatch_1" x1="93.12" y1="31.66" x2="186.23" y2="31.66" gradientUnits="userSpaceOnUse"><stop offset="0" stop-color="#8fc239"/><stop offset="0.2" stop-color="#81b738"/><stop offset="0.72" stop-color="#5f9e34"/><stop offset="1" stop-color="#529433"/></linearGradient></defs><g id="Layer_2" data-name="Layer 2"><g id="lily_pods" data-name="lily pods"><g id="lily_pod_1" data-name="lily pod 1"><g id="green"><g id="lily_pod_1-2" data-name="lily pod 1"><path class="cls-1" d="M152.71,74.49c0,24.7-34.19,44.7-76.35,44.7S0,99.19,0,74.49c0-9,4.58-17.43,12.4-24.43L63.32,67l-21-32.55A121.42,121.42,0,0,1,76.36,29.8C118.52,29.8,152.71,49.8,152.71,74.49Z"/><path class="cls-2" d="M152.71,70.77c0,24.69-34.19,44.7-76.35,44.7S0,95.46,0,70.77c0-9,4.58-17.43,12.4-24.43l50.92,17-21-32.55a121.41,121.41,0,0,1,34.08-4.7,125.62,125.62,0,0,1,18.25,1.31c30.73,4.39,54.15,19.66,57.62,38.47A24.29,24.29,0,0,1,152.71,70.77Z"/></g><g id="lily_pod_3" data-name="lily pod 3"><path class="cls-3" d="M186.23,35.38c0,8.57-5.06,16.43-13.26,22.13L160.16,44.7l5.63,16.91a56,56,0,0,1-13.56,4.24C148.76,47,125.34,31.77,94.61,27.38,99.86,13.78,118,3.72,139.68,3.72,165.38,3.72,186.23,17.92,186.23,35.38Z"/><path class="cls-4" d="M186.23,31.66c0,8.57-5.06,16.43-13.26,22.12L160.16,41l5.63,16.91a62.8,62.8,0,0,1-26.11,5.44c-25.7,0-46.56-14.19-46.56-31.66S114,0,139.68,0,186.23,14.19,186.23,31.66Z"/></g></g></g></g></g></svg>
