<svg xmlns="http://www.w3.org/2000/svg" xmlns:xlink="http://www.w3.org/1999/xlink" viewBox="0 0 152.82 100.6"><defs><style>.cls-1{opacity:0.26;fill:url(#green_tree_gradient_2);}.cls-2{fill:url(#linear-gradient);}</style><linearGradient id="green_tree_gradient_2" x1="110.89" y1="423.22" x2="260.89" y2="423.22" gradientTransform="matrix(0.99, -0.16, 0.18, 1.08, -180.54, -374.04)" gradientUnits="userSpaceOnUse"><stop offset="0"/><stop offset="0.44" stop-color="#0d0d0d"/><stop offset="1" stop-color="#1a1a1a"/><stop offset="1" stop-color="#282828"/><stop offset="1" stop-color="#333"/></linearGradient><linearGradient id="linear-gradient" x1="106.76" y1="318.2" x2="239.71" y2="387.67" gradientTransform="matrix(0.99, -0.13, 0.14, 1.09, -135.87, -310.65)" gradientUnits="userSpaceOnUse"><stop offset="0.23" stop-color="#1b7f49"/><stop offset="0.4" stop-color="#0b723f"/><stop offset="0.58" stop-color="#006837"/><stop offset="0.65" stop-color="#276638"/><stop offset="0.78" stop-color="#5d6438"/><stop offset="0.87" stop-color="#7f6339"/><stop offset="0.92" stop-color="#8c6239"/></linearGradient></defs><g id="Layer_2" data-name="Layer 2"><g id="lily_pods" data-name="lily pods"><g id="Lily_pod_4" data-name="Lily pod 4"><g id="green"><path class="cls-1" d="M152.41,39.85C156.7,65.76,127.05,92.26,86.18,99S8.71,90.26,4.42,64.35,29.79,11.94,70.65,5.18C100.16.29,127.43,7,141.94,20.91L78.15,50.48l73.5-14A32.74,32.74,0,0,1,152.41,39.85Z"/><path class="cls-2" d="M149,39C152.4,65.2,121.83,90.76,80.74,96S3.62,84.29.25,58,27.46,6.23,68.54,1c29.67-3.81,56.69,4,70.7,18.52L74.43,46.86l74-11.36A30.4,30.4,0,0,1,149,39Z"/></g></g></g></g></svg>
