<svg xmlns="http://www.w3.org/2000/svg" xmlns:xlink="http://www.w3.org/1999/xlink" viewBox="0 0 152.82 100.6"><defs><style>.cls-1{opacity:0.26;fill:url(#green_tree_gradient_2);}.cls-2{fill:url(#New_Gradient_Swatch_3);}</style><linearGradient id="green_tree_gradient_2" x1="36.74" y1="378.89" x2="186.74" y2="378.89" gradientTransform="matrix(0.99, -0.16, 0.18, 1.08, -99.48, -338.34)" gradientUnits="userSpaceOnUse"><stop offset="0"/><stop offset="0.44" stop-color="#0d0d0d"/><stop offset="1" stop-color="#1a1a1a"/><stop offset="1" stop-color="#282828"/><stop offset="1" stop-color="#333"/></linearGradient><linearGradient id="New_Gradient_Swatch_3" x1="48.99" y1="272.91" x2="181.93" y2="342.38" gradientTransform="matrix(0.99, -0.13, 0.14, 1.09, -72.21, -268.51)" gradientUnits="userSpaceOnUse"><stop offset="0" stop-color="#666"/><stop offset="0.33" stop-color="#494949"/><stop offset="0.76" stop-color="#272727"/><stop offset="1" stop-color="#1a1a1a"/></linearGradient></defs><g id="Layer_2" data-name="Layer 2"><g id="lily_pods" data-name="lily pods"><g id="Lily_pod_4" data-name="Lily pod 4"><g id="black"><path class="cls-1" d="M152.41,39.85C156.7,65.76,127.05,92.26,86.18,99S8.71,90.26,4.42,64.35,29.79,11.94,70.65,5.18C100.16.29,127.43,7,141.94,20.91L78.15,50.48l73.5-14A32.74,32.74,0,0,1,152.41,39.85Z"/><path class="cls-2" d="M149,39C152.4,65.2,121.83,90.76,80.74,96S3.62,84.29.25,58,27.46,6.23,68.54,1c29.67-3.81,56.69,4,70.7,18.52L74.43,46.86l74-11.36A30.4,30.4,0,0,1,149,39Z"/></g></g></g></g></svg>
