<svg xmlns="http://www.w3.org/2000/svg" xmlns:xlink="http://www.w3.org/1999/xlink" viewBox="0 0 152.62 117.74"><defs><style>.cls-1{opacity:0.28;}.cls-2{fill:url(#New_Gradient_Swatch_1);}</style><linearGradient id="New_Gradient_Swatch_1" x1="404.94" y1="490.11" x2="594.73" y2="490.11" gradientTransform="matrix(0.76, -0.25, 0.25, 0.77, -427.85, -200.23)" gradientUnits="userSpaceOnUse"><stop offset="0" stop-color="#8fc239"/><stop offset="0.2" stop-color="#81b738"/><stop offset="0.72" stop-color="#5f9e34"/><stop offset="1" stop-color="#529433"/></linearGradient></defs><g id="Layer_2" data-name="Layer 2"><g id="lily_pods" data-name="lily pods"><g id="lily_pod_2" data-name="lily pod 2"><g id="green"><path class="cls-1" d="M150.71,38.07c9.17,28.41-15.68,61.8-55.44,74.64S15.83,113,6.66,84.58,22.34,22.78,62.1,9.94A107.83,107.83,0,0,1,76.83,6.32L88.35,42,93.72,4.92C121.13,5.07,144,17.37,150.71,38.07Z"/><path class="cls-2" d="M146,33.15c9.17,28.41-15.68,61.8-55.44,74.64s-79.45.27-88.62-28.13S17.58,17.86,57.34,5A108,108,0,0,1,72.08,1.4L83.6,37.07,89,0C116.38.15,139.28,12.45,146,33.15Z"/></g></g></g></g></svg>
