<svg xmlns="http://www.w3.org/2000/svg" xmlns:xlink="http://www.w3.org/1999/xlink" viewBox="0 0 134.75 176.23"><defs><style>.cls-1{fill:url(#New_Gradient_Swatch_1);}.cls-2{fill:url(#New_Gradient_Swatch_1-2);}.cls-3{fill:url(#New_Gradient_Swatch_1-3);}.cls-4{fill:url(#New_Gradient_Swatch_1-4);}.cls-5{fill:url(#New_Gradient_Swatch_1-5);}.cls-6{fill:url(#New_Gradient_Swatch_1-6);}.cls-7{fill:url(#linear-gradient);}.cls-8{fill:url(#New_Gradient_Swatch_6);}.cls-9{fill:url(#linear-gradient-2);}.cls-10{fill:#f2f2f2;opacity:0.12;}.cls-11{fill:url(#linear-gradient-3);}.cls-12{fill:url(#New_Gradient_Swatch_6-2);}.cls-13{fill:url(#linear-gradient-4);}.cls-14{fill:url(#New_Gradient_Swatch_1-7);}.cls-15{fill:url(#New_Gradient_Swatch_1-8);}.cls-16{fill:url(#New_Gradient_Swatch_1-9);}.cls-17{fill:url(#New_Gradient_Swatch_1-10);}.cls-18{fill:url(#New_Gradient_Swatch_1-11);}.cls-19{fill:url(#New_Gradient_Swatch_1-12);}.cls-20{fill:url(#linear-gradient-5);}.cls-21{fill:url(#New_Gradient_Swatch_6-3);}.cls-22{fill:url(#linear-gradient-6);}.cls-23{fill:url(#New_Gradient_Swatch_1-13);}.cls-24{fill:url(#New_Gradient_Swatch_1-14);}.cls-25{fill:url(#New_Gradient_Swatch_1-15);}.cls-26{fill:url(#New_Gradient_Swatch_1-16);}</style><linearGradient id="New_Gradient_Swatch_1" x1="-538.92" y1="131.78" x2="-502.97" y2="131.78" gradientTransform="matrix(-1, 0, 0, 1, -482.14, 0)" gradientUnits="userSpaceOnUse"><stop offset="0" stop-color="#8fc239"/><stop offset="0.2" stop-color="#81b738"/><stop offset="0.72" stop-color="#5f9e34"/><stop offset="1" stop-color="#529433"/></linearGradient><linearGradient id="New_Gradient_Swatch_1-2" x1="-520.02" y1="140.95" x2="-507.96" y2="140.95" xlink:href="#New_Gradient_Swatch_1"/><linearGradient id="New_Gradient_Swatch_1-3" x1="-524.01" y1="144.39" x2="-503.37" y2="144.39" xlink:href="#New_Gradient_Swatch_1"/><linearGradient id="New_Gradient_Swatch_1-4" x1="-522.86" y1="130.63" x2="-500.34" y2="130.63" xlink:href="#New_Gradient_Swatch_1"/><linearGradient id="New_Gradient_Swatch_1-5" x1="-533.18" y1="142.1" x2="-515.55" y2="142.1" xlink:href="#New_Gradient_Swatch_1"/><linearGradient id="New_Gradient_Swatch_1-6" x1="-559.56" y1="138.83" x2="-511.4" y2="138.83" xlink:href="#New_Gradient_Swatch_1"/><linearGradient id="linear-gradient" x1="27.38" y1="140.98" x2="133.41" y2="56.25" gradientUnits="userSpaceOnUse"><stop offset="0" stop-color="#006837"/><stop offset="0.62" stop-color="#008541"/><stop offset="1" stop-color="#009245"/></linearGradient><linearGradient id="New_Gradient_Swatch_6" x1="88.65" y1="98.64" x2="110.71" y2="98.64" gradientTransform="translate(-20.63 -35.34) rotate(-9.74)" gradientUnits="userSpaceOnUse"><stop offset="0" stop-color="#a67c52"/><stop offset="1" stop-color="#754c24"/></linearGradient><linearGradient id="linear-gradient-2" x1="117.39" y1="91.57" x2="137.08" y2="81.63" gradientTransform="translate(-20.63 -35.34) rotate(-9.74)" gradientUnits="userSpaceOnUse"><stop offset="0" stop-opacity="0.29"/><stop offset="1"/></linearGradient><linearGradient id="linear-gradient-3" x1="-514.93" y1="60.7" x2="-448.57" y2="7.67" gradientTransform="matrix(-0.99, -0.17, -0.17, 0.99, -448.88, -35.34)" xlink:href="#linear-gradient"/><linearGradient id="New_Gradient_Swatch_6-2" x1="-477.6" y1="-14.91" x2="-452.62" y2="-14.91" gradientTransform="matrix(-0.99, -0.17, -0.17, 0.99, -448.88, -35.34)" xlink:href="#New_Gradient_Swatch_6"/><linearGradient id="linear-gradient-4" x1="-445.05" y1="-22.92" x2="-422.75" y2="-34.18" gradientTransform="matrix(-0.99, -0.17, -0.17, 0.99, -448.88, -35.34)" xlink:href="#linear-gradient-2"/><linearGradient id="New_Gradient_Swatch_1-7" x1="-3719.73" y1="153.45" x2="-3708.01" y2="153.45" gradientTransform="translate(3746.37)" xlink:href="#New_Gradient_Swatch_1"/><linearGradient id="New_Gradient_Swatch_1-8" x1="-3744.25" y1="151.27" x2="-3712.25" y2="151.27" gradientTransform="translate(3746.37)" xlink:href="#New_Gradient_Swatch_1"/><linearGradient id="New_Gradient_Swatch_1-9" x1="67.83" y1="121.5" x2="85.45" y2="121.5" gradientTransform="matrix(1, 0, 0, 1, 0, 0)" xlink:href="#New_Gradient_Swatch_1"/><linearGradient id="New_Gradient_Swatch_1-10" x1="85.23" y1="67.26" x2="97.62" y2="67.26" gradientTransform="matrix(1, 0, 0, 1, 0, 0)" xlink:href="#New_Gradient_Swatch_1"/><linearGradient id="New_Gradient_Swatch_1-11" x1="-2284.65" y1="144.1" x2="-2264.01" y2="144.1" gradientTransform="translate(2337.37)" xlink:href="#New_Gradient_Swatch_1"/><linearGradient id="New_Gradient_Swatch_1-12" x1="-1033.28" y1="151.13" x2="-991.9" y2="151.13" gradientTransform="matrix(-1, 0, 0, 1, -961.02, 0)" xlink:href="#New_Gradient_Swatch_1"/><linearGradient id="linear-gradient-5" x1="75.99" y1="120.8" x2="134.59" y2="73.98" xlink:href="#linear-gradient"/><linearGradient id="New_Gradient_Swatch_6-3" x1="109.1" y1="53.17" x2="131.16" y2="53.17" gradientTransform="matrix(1, 0, 0, 1, 0, 0)" xlink:href="#New_Gradient_Swatch_6"/><linearGradient id="linear-gradient-6" x1="137.84" y1="46.1" x2="157.53" y2="36.16" gradientTransform="matrix(1, 0, 0, 1, 0, 0)" xlink:href="#linear-gradient-2"/><linearGradient id="New_Gradient_Swatch_1-13" x1="-1072.97" y1="110.34" x2="-1036.52" y2="110.34" gradientTransform="matrix(-1, 0, 0, 1, -961.02, 0)" xlink:href="#New_Gradient_Swatch_1"/><linearGradient id="New_Gradient_Swatch_1-14" x1="-570.52" y1="140.47" x2="-548.33" y2="140.47" xlink:href="#New_Gradient_Swatch_1"/><linearGradient id="New_Gradient_Swatch_1-15" x1="14.75" y1="130.82" x2="55.27" y2="130.82" gradientTransform="matrix(1, 0, 0, 1, 0, 0)" xlink:href="#New_Gradient_Swatch_1"/><linearGradient id="New_Gradient_Swatch_1-16" x1="41.14" y1="117.93" x2="80.75" y2="117.93" gradientTransform="matrix(1, 0, 0, 1, 0, 0)" xlink:href="#New_Gradient_Swatch_1"/></defs><g id="Layer_2" data-name="Layer 2"><g id="cattails"><g id="cattails_2" data-name="cattails 2"><g id="green"><path class="cls-1" d="M53.34,175.93s-36.69-75.69-32.11-88.3c9.18,31,27.52,78,35.55,88.3Z"/><path class="cls-2" d="M28.11,175.93S40.73,126.62,37.29,106c-1.15,14.91-4.59,49.31-11.47,70Z"/><path class="cls-3" d="M23.53,175.93s18.34-44.72,18.34-63.07c-2.29,8-20.64,63.07-20.64,63.07Z"/><path class="cls-4" d="M36.14,175.93S21.23,91.07,31.55,85.34c-8,18.35,2.3,50.45,3.44,65.36s0,19.49,5.74,25.23H33.85s-14.91-33.26-14.91-45.87c-4.59,9.17,13.76,45.87,13.76,45.87Z"/><path class="cls-5" d="M48.75,175.93s-18.34-52.75-14.9-67.66c-1.15,18.35,17.2,67.66,17.2,67.66Z"/><path class="cls-6" d="M30.41,175.93s34.4-27.52,26.37-58.48c0-12.62,20.64-14.91,20.64-14.91s-16.05-4.59-19.49,8c0,14.9-2.29,29.81-6.88,39s-21.79,26.38-21.79,26.38Z"/><g id="cattail_copy_3" data-name="cattail copy 3"><path class="cls-7" d="M105,20.63c-1.16,2.19-2.29,4.52-3.37,6.88a296.56,296.56,0,0,0-10.93,28l-1.72,6.06-.25.88-.81,2.89-2.64,9.31-7,24.78-5,17.52-3.1,11-1,3.45-4.83,17.08-1.5,5.3-1,3.58-.29,1-.26.91-.37,1.3-.15.53-1.41,5-2.82,9.95-.84.14-.15,0s0-.11.08-.32c.24-1,1-4.22,2.25-9.12l1.34-5.33.5-2,.72-2.81.06-.24c.16-.63.32-1.28.49-1.94l.9-3.49h0l1.44-5.58c1.46-5.6,3.07-11.71,4.8-18.14.32-1.22.66-2.45,1-3.7,1.22-4.49,2.48-9.11,3.79-13.79,1.89-6.79,3.86-13.7,5.86-20.52.4-1.37.8-2.74,1.21-4.1,1.81-6.08,3.64-12.07,5.47-17.8.58-1.85,1.17-3.68,1.76-5.47.08-.26.17-.51.25-.77,4.68-14.22,9.23-26.37,13.14-33.88A28.74,28.74,0,0,1,105,20.63Z"/><path class="cls-8" d="M102.52,30.18c-.64,2.14-10.86,31.28-10.86,31.28s-.65,2.14-3.94.68c-1.77-.78-2.12-1.82-2-2.6a2.33,2.33,0,0,1,.39-1.17L98.24,28.88s.6-2.45,2.79-1.49a1.82,1.82,0,0,1,1.5.86A2.46,2.46,0,0,1,102.52,30.18Z"/><path class="cls-9" d="M102.52,30.18c-.64,2.14-10.86,31.28-10.86,31.28s-.65,2.14-3.94.68c-1.77-.78-2.12-1.82-2-2.6a3.35,3.35,0,0,0,1.88,1.62c3.29,1.46,3.94-.68,3.94-.68s10.22-29.15,10.87-31.29a3.76,3.76,0,0,0,.17-.94A2.46,2.46,0,0,1,102.52,30.18Z"/><path class="cls-10" d="M99.23,28.71,92.73,44s-4.87,13-5.52,15.15C88,58,99.23,28.71,99.23,28.71Z"/></g><g id="cattail_copy_3-2" data-name="cattail copy 3"><path class="cls-11" d="M56,176.22S17.6,18,0,0C8.67,16.43,16.2,39.55,16.2,39.55L54.83,176Z"/><path class="cls-12" d="M2.74,11.81c.73,2.43,12.31,35.44,12.31,35.44s.73,2.42,4.46.77c2-.89,2.4-2.06,2.32-3a2.75,2.75,0,0,0-.44-1.33L7.59,10.35S6.92,7.56,4.43,8.66a2,2,0,0,0-1.69,1A2.75,2.75,0,0,0,2.74,11.81Z"/><path class="cls-13" d="M2.74,11.81c.73,2.43,12.31,35.44,12.31,35.44s.73,2.42,4.46.77c2-.89,2.4-2.06,2.32-3A3.77,3.77,0,0,1,19.7,46.9c-3.73,1.66-4.46-.77-4.46-.77S3.67,13.12,2.93,10.7a4,4,0,0,1-.19-1.07A2.75,2.75,0,0,0,2.74,11.81Z"/><path class="cls-10" d="M6.47,10.15l7.37,17.36s5.51,14.73,6.25,17.16C19.16,43.36,6.47,10.15,6.47,10.15Z"/></g><path class="cls-14" d="M28.17,175.93s12.19-35.05,9.9-45c.76,12.19-11.43,45-11.43,45Z"/><path class="cls-15" d="M33.36,175.93S10.5,157.64,15.83,137.07c0-8.39-13.71-9.91-13.71-9.91s10.66-3,13,5.33c0,9.91,1.52,19.82,4.57,25.91s14.48,17.53,14.48,17.53Z"/><path class="cls-16" d="M78.77,89.26a27.89,27.89,0,0,0-.62,9.55c0,.21,0,.43.07.66.84,7.92.65,21.43.11,34.89-.07,1.76-.15,3.52-.23,5.26-.17,3.74-.36,7.42-.56,10.91l-.06,1.06c-.06,1-.12,2-.17,3s-.12,1.84-.18,2.73c-.55,8.83-1.06,15.59-1.22,17.65,0,.43,0,.65,0,.65h-8l.08-.12A17.52,17.52,0,0,0,69,173.79c.26-.47.51-1,.74-1.47.08-.17.16-.35.23-.53a27.07,27.07,0,0,0,1.11-3,54.41,54.41,0,0,0,2-9.33c.24-1.82.43-3.73.57-5.71.13-1.71.22-3.47.28-5.29,0-.82.05-1.65.07-2.49q0-1,0-2.07c0-1.05,0-2.1,0-3.18,0-7.53-.35-15.61-.74-23.73q-.18-3.61-.35-7.21c-.18-3.69-.35-7.37-.49-11-.6-15.57,6.3-25.51,13-31.45-1.83,5.73-3.66,11.72-5.47,17.8A36.37,36.37,0,0,0,78.77,89.26Z"/><path class="cls-17" d="M97.62,59.83A80.69,80.69,0,0,0,85.23,74.69l2.64-9.31A39.58,39.58,0,0,1,97.62,59.83Z"/><path class="cls-18" d="M71.06,175.63s-18.34-44.72-18.34-63.06c2.29,8,20.64,63.06,20.64,63.06Z"/><path class="cls-19" d="M72.26,175.63s-33.1-57-41.38-48c8.28,0,22.76,22.52,22.76,22.52L70.2,175.63Z"/><g id="cattail_copy_3-3" data-name="cattail copy 3"><path class="cls-20" d="M59.75,175.93s57-132,75-145c-10,13-20,32-20,32l-54,113Z"/><path class="cls-21" d="M130.75,39.93c-1,2-16,29-16,29s-1,2-4,0c-1.61-1.07-1.78-2.15-1.58-2.91a2.46,2.46,0,0,1,.58-1.09l17-27s1-2.32,3-1a1.82,1.82,0,0,1,1.33,1.1A2.47,2.47,0,0,1,130.75,39.93Z"/><path class="cls-22" d="M130.75,39.93c-1,2-16,29-16,29s-1,2-4,0c-1.61-1.07-1.78-2.15-1.58-2.91a3.33,3.33,0,0,0,1.58,1.91c3,2,4,0,4,0s15-27,16-29a3.58,3.58,0,0,0,.33-.9A2.47,2.47,0,0,1,130.75,39.93Z"/><path class="cls-10" d="M127.75,37.93l-9,14s-7,12-8,14C111.75,64.93,127.75,37.93,127.75,37.93Z"/></g><path class="cls-23" d="M83.07,175.63S138.58,112.87,95.69,45c-1.27,3,16.4,36.44,5,72.89s-25.23,57.7-25.23,57.7Z"/><path class="cls-24" d="M88.38,175.63s-23.91-48.55-20.72-70.32c-8,16.75,19.13,70.32,19.13,70.32Z"/><path class="cls-25" d="M14.75,175.93s2-66.43,40.52-90.23c-20.26,29.75-32.87,50.57-36,90.23Z"/><path class="cls-26" d="M41.58,175.93s-7.43-64.45,39.17-116C65.21,91.65,47,102.56,49,175.93Z"/></g></g></g></g></svg>
