<svg xmlns="http://www.w3.org/2000/svg" xmlns:xlink="http://www.w3.org/1999/xlink" viewBox="0 0 135.6 207.44"><defs><style>.cls-1{fill:url(#linear-gradient);}.cls-2{fill:url(#linear-gradient-2);}.cls-3{fill:url(#New_Gradient_Swatch_8);}.cls-4{fill:url(#linear-gradient-3);}.cls-5{fill:#f2f2f2;opacity:0.12;}.cls-6{fill:url(#linear-gradient-4);}.cls-7{fill:url(#New_Gradient_Swatch_8-2);}.cls-8{fill:url(#linear-gradient-5);}.cls-9{fill:url(#linear-gradient-6);}.cls-10{fill:url(#New_Gradient_Swatch_8-3);}.cls-11{fill:url(#linear-gradient-7);}.cls-12{fill:url(#linear-gradient-8);}.cls-13{fill:url(#New_Gradient_Swatch_8-4);}.cls-14{fill:url(#linear-gradient-9);}.cls-15{fill:url(#linear-gradient-10);}.cls-16{fill:url(#linear-gradient-11);}.cls-17{fill:url(#linear-gradient-12);}.cls-18{fill:url(#linear-gradient-13);}.cls-19{fill:url(#linear-gradient-14);}.cls-20{fill:url(#linear-gradient-15);}</style><linearGradient id="linear-gradient" x1="50.33" y1="190.07" x2="-4.83" y2="94.53" gradientUnits="userSpaceOnUse"><stop offset="0" stop-color="#1b7f49"/><stop offset="0" stop-color="#662d91"/><stop offset="0.11" stop-color="#733493"/><stop offset="0.3" stop-color="#954599"/><stop offset="0.56" stop-color="#cb61a3"/><stop offset="0.76" stop-color="#fa79ab"/><stop offset="1" stop-color="#ff7bac"/></linearGradient><linearGradient id="linear-gradient-2" x1="226.96" y1="194.75" x2="199.47" y2="156.43" gradientTransform="translate(-118.07 -79.51) rotate(5.65)" gradientUnits="userSpaceOnUse"><stop offset="0.54" stop-color="#662d91"/><stop offset="0.6" stop-color="#733493"/><stop offset="0.72" stop-color="#954599"/><stop offset="0.88" stop-color="#cb61a3"/><stop offset="1" stop-color="#fa79ab"/><stop offset="1" stop-color="#ff7bac"/></linearGradient><linearGradient id="New_Gradient_Swatch_8" x1="-793.57" y1="-502.81" x2="-765.88" y2="-502.81" gradientTransform="translate(838.74 640.52) rotate(5.8)" gradientUnits="userSpaceOnUse"><stop offset="0" stop-color="#6b8d61"/><stop offset="0.4" stop-color="#467645"/><stop offset="0.78" stop-color="#27632e"/><stop offset="1" stop-color="#1c5c26"/></linearGradient><linearGradient id="linear-gradient-3" x1="-757.49" y1="-511.68" x2="-732.78" y2="-524.16" gradientTransform="translate(838.74 640.52) rotate(5.8)" gradientUnits="userSpaceOnUse"><stop offset="0" stop-opacity="0.29"/><stop offset="1"/></linearGradient><linearGradient id="linear-gradient-4" x1="81.1" y1="186.41" x2="52.57" y2="122.55" gradientTransform="translate(-19.05 -51.24) rotate(-5.93)" xlink:href="#linear-gradient-2"/><linearGradient id="New_Gradient_Swatch_8-2" x1="-954.1" y1="-486.95" x2="-924.09" y2="-486.95" gradientTransform="translate(1084.31 390.36) rotate(-8.99)" xlink:href="#New_Gradient_Swatch_8"/><linearGradient id="linear-gradient-5" x1="-915" y1="-496.57" x2="-888.21" y2="-510.1" gradientTransform="translate(1084.31 390.36) rotate(-8.99)" xlink:href="#linear-gradient-3"/><linearGradient id="linear-gradient-6" x1="-3.45" y1="311.33" x2="-24.52" y2="255.96" gradientTransform="translate(7.15 -163.97) rotate(-9.17)" xlink:href="#linear-gradient-2"/><linearGradient id="New_Gradient_Swatch_8-3" x1="-1069.52" y1="-398.14" x2="-1045.69" y2="-398.14" gradientTransform="translate(1170.34 253.92) rotate(-11.19)" xlink:href="#New_Gradient_Swatch_8"/><linearGradient id="linear-gradient-7" x1="-1038.89" y1="-405.79" x2="-1017.97" y2="-416.35" gradientTransform="translate(1170.34 253.92) rotate(-11.19)" xlink:href="#linear-gradient-3"/><linearGradient id="linear-gradient-8" x1="-94.46" y1="282.85" x2="-111.75" y2="210.53" gradientTransform="matrix(0.96, -0.28, 0.28, 0.96, 56.73, -162.39)" xlink:href="#linear-gradient-2"/><linearGradient id="New_Gradient_Swatch_8-4" x1="-1129.29" y1="-421.65" x2="-1102.91" y2="-421.65" gradientTransform="translate(1232.16 105.99) rotate(-18.11)" xlink:href="#New_Gradient_Swatch_8"/><linearGradient id="linear-gradient-9" x1="-1095.14" y1="-430.18" x2="-1071.73" y2="-442" gradientTransform="translate(1232.16 105.99) rotate(-18.11)" xlink:href="#linear-gradient-3"/><linearGradient id="linear-gradient-10" x1="56.34" y1="177.94" x2="34.91" y2="140.82" xlink:href="#linear-gradient"/><linearGradient id="linear-gradient-11" x1="64.87" y1="185.52" x2="38.44" y2="139.74" xlink:href="#linear-gradient"/><linearGradient id="linear-gradient-12" x1="75.49" y1="189.4" x2="27.66" y2="106.56" xlink:href="#linear-gradient"/><linearGradient id="linear-gradient-13" x1="89.83" y1="184.58" x2="50.92" y2="117.18" xlink:href="#linear-gradient"/><linearGradient id="linear-gradient-14" x1="100.82" y1="186.32" x2="70.19" y2="133.26" xlink:href="#linear-gradient"/><linearGradient id="linear-gradient-15" x1="92.12" y1="193.08" x2="66.5" y2="148.72" xlink:href="#linear-gradient"/></defs><g id="Layer_2" data-name="Layer 2"><g id="cattails"><g id="cattails_3" data-name="cattails 3"><g id="purple"><path class="cls-1" d="M15,207S-10,137,29,75c-12,42-19,104-8,132Z"/><g id="cattails_copy_2" data-name="cattails copy 2"><g id="cattail_copy_13" data-name="cattail copy 13"><path class="cls-2" d="M24,207.32S111.51,49.47,135.6,35.45C121.51,50.46,106.66,73,106.66,73L25.23,207.44Z"/><path class="cls-3" d="M128.81,46.24c-1.5,2.37-23.67,34.19-23.67,34.19s-1.5,2.37-5-.51c-1.88-1.54-2-2.91-1.61-3.83a3.13,3.13,0,0,1,.87-1.29l24.66-31.56s1.54-2.77,3.87-.87a2.3,2.3,0,0,1,1.52,1.54A3.11,3.11,0,0,1,128.81,46.24Z"/><path class="cls-4" d="M128.81,46.24c-1.5,2.37-23.67,34.19-23.67,34.19s-1.5,2.37-5-.51c-1.88-1.54-2-2.91-1.61-3.83a4.2,4.2,0,0,0,1.73,2.58c3.5,2.88,5,.51,5,.51S127.43,47.36,128.93,45a4.1,4.1,0,0,0,.53-1.08A3.11,3.11,0,0,1,128.81,46.24Z"/><path class="cls-5" d="M125.32,43.36l-13,16.35S102,73.8,100.53,76.17C101.9,75.05,125.32,43.36,125.32,43.36Z"/></g><g id="cattail_copy_13-2" data-name="cattail copy 13"><path class="cls-6" d="M27.37,206.77S86,20.12,108.5,0C96.79,19,85.93,46.12,85.93,46.12L28.72,206.63Z"/><path class="cls-7" d="M92.11,36.1C91.19,39,76.77,78.48,76.77,78.48s-.92,2.9-5.38.85c-2.39-1.1-2.84-2.51-2.74-3.58a3.32,3.32,0,0,1,.55-1.59l17.11-39.9s.85-3.33,3.81-2a2.51,2.51,0,0,1,2,1.2A3.38,3.38,0,0,1,92.11,36.1Z"/><path class="cls-8" d="M92.11,36.1C91.19,39,76.77,78.48,76.77,78.48s-.92,2.9-5.38.85c-2.39-1.1-2.84-2.51-2.74-3.58A4.53,4.53,0,0,0,71.18,78c4.46,2,5.38-.85,5.38-.85S91,37.66,91.89,34.76a5.18,5.18,0,0,0,.26-1.28A3.38,3.38,0,0,1,92.11,36.1Z"/><path class="cls-5" d="M87.65,34.05,78.53,54.78S71.68,72.4,70.76,75.3C71.89,73.74,87.65,34.05,87.65,34.05Z"/></g><g id="cattail_copy_13-3" data-name="cattail copy 13"><path class="cls-9" d="M17.81,207S51.84,59.6,67,43C59.47,58.26,52.86,79.78,52.86,79.78L18.76,206.85Z"/><path class="cls-10" d="M64.13,53c-.7,2.22-11.58,32.54-11.58,32.54s-.69,2.22-4,1c-1.77-.67-2.1-1.7-2-2.5A2.76,2.76,0,0,1,47,82.81L59.84,52s.65-2.53,2.84-1.71a1.62,1.62,0,0,1,1.49.76A2.52,2.52,0,0,1,64.13,53Z"/><path class="cls-11" d="M64.13,53c-.7,2.22-11.58,32.54-11.58,32.54s-.69,2.22-4,1c-1.77-.67-2.1-1.7-2-2.5a2.92,2.92,0,0,0,1.86,1.51c3.29,1.25,4-1,4-1S63.28,54.25,64,52a3.73,3.73,0,0,0,.19-1A2.52,2.52,0,0,1,64.13,53Z"/><path class="cls-5" d="M60.84,51.77,54,67.79s-5.17,13.55-5.86,15.77C49,82.33,60.84,51.77,60.84,51.77Z"/></g><g id="cattail_copy_13-4" data-name="cattail copy 13"><path class="cls-12" d="M16.16,207S35,37.83,50,17C43.49,35.14,38.88,60.08,38.88,60.08L17.22,206.62Z"/><path class="cls-13" d="M47.49,33.44c-.44,2.59-8,38.2-8,38.2s-.44,2.59-4.31,1.57c-2.07-.54-2.6-1.66-2.63-2.58a3.07,3.07,0,0,1,.28-1.43l9.72-36.38s.34-2.95,2.91-2.28a1.91,1.91,0,0,1,1.79.68A2.92,2.92,0,0,1,47.49,33.44Z"/><path class="cls-14" d="M47.49,33.44c-.44,2.59-8,38.2-8,38.2s-.44,2.59-4.31,1.57c-2.07-.54-2.6-1.66-2.63-2.58a3.49,3.49,0,0,0,2.31,1.48c3.87,1,4.31-1.57,4.31-1.57s7.57-35.61,8-38.2a5.11,5.11,0,0,0,.07-1.12A2.92,2.92,0,0,1,47.49,33.44Z"/><path class="cls-5" d="M43.63,32.42,38.39,51.36s-3.72,16-4.16,18.55C35,68.42,43.63,32.42,43.63,32.42Z"/></g></g><path class="cls-15" d="M0,207s3-79,96-87c-46,18-71,40-90,87Z"/><path class="cls-16" d="M21,207s3-67,60-91c-30,30-48.67,51-53.33,91Z"/><path class="cls-17" d="M36,207S38,106,65,85c-13,39-28,84-20,122Z"/><path class="cls-18" d="M40,207S29,142,98,90c-23,32-50,43-47,117Z"/><path class="cls-19" d="M55,207s14-97,49-87,31,36,31,36-11-29-32-31-38,82-38,82Z"/><path class="cls-20" d="M61,207s14-68,35-75c-11,18-27,75-28,75Z"/></g></g></g></g></svg>
