<svg xmlns="http://www.w3.org/2000/svg" xmlns:xlink="http://www.w3.org/1999/xlink" viewBox="0 0 162.77 207.69"><defs><style>.cls-1{fill:url(#New_Gradient_Swatch_3);}.cls-2{fill:url(#New_Gradient_Swatch_3-2);}.cls-3{fill:url(#New_Gradient_Swatch_3-3);}.cls-4{fill:url(#New_Gradient_Swatch_3-4);}.cls-5{fill:url(#linear-gradient);}.cls-6{fill:url(#linear-gradient-2);}.cls-7{fill:#f2f2f2;opacity:0.12;}.cls-8{fill:url(#New_Gradient_Swatch_3-5);}.cls-9{fill:url(#linear-gradient-3);}.cls-10{fill:url(#linear-gradient-4);}.cls-11{fill:url(#New_Gradient_Swatch_3-6);}.cls-12{fill:url(#New_Gradient_Swatch_3-7);}.cls-13{fill:url(#linear-gradient-5);}.cls-14{fill:url(#linear-gradient-6);}.cls-15{fill:url(#linear-gradient-7);}.cls-16{fill:url(#linear-gradient-8);}.cls-17{fill:url(#New_Gradient_Swatch_3-8);}.cls-18{fill:url(#New_Gradient_Swatch_3-9);}.cls-19{fill:url(#New_Gradient_Swatch_3-10);}.cls-20{fill:url(#New_Gradient_Swatch_3-11);}.cls-21{fill:url(#New_Gradient_Swatch_3-12);}.cls-22{fill:url(#New_Gradient_Swatch_3-13);}.cls-23{fill:url(#New_Gradient_Swatch_3-14);}.cls-24{fill:url(#New_Gradient_Swatch_3-15);}.cls-25{fill:url(#New_Gradient_Swatch_3-16);}.cls-26{fill:url(#New_Gradient_Swatch_3-17);}.cls-27{fill:url(#New_Gradient_Swatch_3-18);}.cls-28{fill:url(#New_Gradient_Swatch_3-19);}</style><linearGradient id="New_Gradient_Swatch_3" x1="133.65" y1="167.67" x2="177.81" y2="167.67" gradientTransform="translate(-88.88)" gradientUnits="userSpaceOnUse"><stop offset="0" stop-color="#666"/><stop offset="0.33" stop-color="#494949"/><stop offset="0.76" stop-color="#272727"/><stop offset="1" stop-color="#1a1a1a"/></linearGradient><linearGradient id="New_Gradient_Swatch_3-2" x1="153.41" y1="162.92" x2="170.2" y2="162.92" xlink:href="#New_Gradient_Swatch_3"/><linearGradient id="New_Gradient_Swatch_3-3" x1="11.14" y1="175.43" x2="62.64" y2="175.43" gradientTransform="matrix(1, 0, 0, 1, 0, 0)" xlink:href="#New_Gradient_Swatch_3"/><linearGradient id="New_Gradient_Swatch_3-4" x1="-62.25" y1="164.67" x2="49.77" y2="75.15" gradientTransform="matrix(-0.99, -0.12, -0.12, 0.99, 70.53, 6.72)" xlink:href="#New_Gradient_Swatch_3"/><linearGradient id="linear-gradient" x1="-580.47" y1="-216.16" x2="-557.16" y2="-216.16" gradientTransform="translate(604.84 -182.77) rotate(-46.35)" gradientUnits="userSpaceOnUse"><stop offset="0.27" stop-color="#80353d"/><stop offset="1" stop-color="#a12741"/></linearGradient><linearGradient id="linear-gradient-2" x1="-550.24" y1="-223.2" x2="-529.83" y2="-233.51" gradientTransform="translate(604.84 -182.77) rotate(-46.35)" gradientUnits="userSpaceOnUse"><stop offset="0" stop-opacity="0.29"/><stop offset="1"/></linearGradient><linearGradient id="New_Gradient_Swatch_3-5" x1="-215.39" y1="132.17" x2="-105.77" y2="44.58" gradientTransform="translate(213.24 -5.08) rotate(-15.93)" xlink:href="#New_Gradient_Swatch_3"/><linearGradient id="linear-gradient-3" x1="-300.95" y1="-22.3" x2="-276.44" y2="-22.3" gradientTransform="translate(352.18 -37.24) rotate(-25.67)" xlink:href="#linear-gradient"/><linearGradient id="linear-gradient-4" x1="-269.77" y1="-29.53" x2="-248.93" y2="-40.05" gradientTransform="translate(352.18 -37.24) rotate(-25.67)" xlink:href="#linear-gradient-2"/><linearGradient id="New_Gradient_Swatch_3-6" x1="62.7" y1="123.53" x2="144.8" y2="57.92" gradientTransform="translate(15.61 14.17) rotate(-5.93)" xlink:href="#New_Gradient_Swatch_3"/><linearGradient id="New_Gradient_Swatch_3-7" x1="-137.06" y1="96.78" x2="-69.57" y2="42.85" gradientTransform="matrix(0.96, -0.28, 0.28, 0.96, 169.62, 9.94)" xlink:href="#New_Gradient_Swatch_3"/><linearGradient id="linear-gradient-5" x1="-559.56" y1="-271.17" x2="-534.87" y2="-271.17" gradientTransform="translate(706.19 269.76) rotate(-4.1)" xlink:href="#linear-gradient"/><linearGradient id="linear-gradient-6" x1="-527.03" y1="-278.97" x2="-504.77" y2="-290.21" gradientTransform="translate(706.19 269.76) rotate(-4.1)" xlink:href="#linear-gradient-2"/><linearGradient id="linear-gradient-7" x1="-676.89" y1="-413.72" x2="-647.82" y2="-413.72" gradientTransform="matrix(0.97, -0.25, 0.25, 0.97, 836.7, 292.85)" xlink:href="#linear-gradient"/><linearGradient id="linear-gradient-8" x1="-638.24" y1="-423.07" x2="-611.61" y2="-436.51" gradientTransform="matrix(0.97, -0.25, 0.25, 0.97, 836.7, 292.85)" xlink:href="#linear-gradient-2"/><linearGradient id="New_Gradient_Swatch_3-8" x1="151.48" y1="149.71" x2="235" y2="149.71" gradientTransform="matrix(-1, 0, 0, 1, 235, 0)" xlink:href="#New_Gradient_Swatch_3"/><linearGradient id="New_Gradient_Swatch_3-9" x1="177.03" y1="134.02" x2="212.73" y2="134.02" gradientTransform="matrix(-1, 0, 0, 1, 235, 0)" xlink:href="#New_Gradient_Swatch_3"/><linearGradient id="New_Gradient_Swatch_3-10" x1="147.85" y1="167.24" x2="176.58" y2="167.24" xlink:href="#New_Gradient_Swatch_3"/><linearGradient id="New_Gradient_Swatch_3-11" x1="147.23" y1="166.66" x2="174.9" y2="166.66" xlink:href="#New_Gradient_Swatch_3"/><linearGradient id="New_Gradient_Swatch_3-12" x1="96.34" y1="143.49" x2="119.51" y2="98.44" gradientTransform="matrix(1, 0, 0, 1, 0, 0)" xlink:href="#New_Gradient_Swatch_3"/><linearGradient id="New_Gradient_Swatch_3-13" x1="140.69" y1="176.83" x2="162.35" y2="176.83" xlink:href="#New_Gradient_Swatch_3"/><linearGradient id="New_Gradient_Swatch_3-14" x1="-3664.39" y1="178.61" x2="-3648.08" y2="178.61" gradientTransform="translate(3746.37)" xlink:href="#New_Gradient_Swatch_3"/><linearGradient id="New_Gradient_Swatch_3-15" x1="-3661.2" y1="191.21" x2="-3639.99" y2="191.21" gradientTransform="translate(3746.37)" xlink:href="#New_Gradient_Swatch_3"/><linearGradient id="New_Gradient_Swatch_3-16" x1="92.76" y1="178.19" x2="113.32" y2="178.19" gradientTransform="matrix(-1, 0, 0, 1, 180.37, 0)" xlink:href="#New_Gradient_Swatch_3"/><linearGradient id="New_Gradient_Swatch_3-17" x1="-2270.59" y1="166.87" x2="-2241.86" y2="166.87" gradientTransform="translate(2337.37)" xlink:href="#New_Gradient_Swatch_3"/><linearGradient id="New_Gradient_Swatch_3-18" x1="-1316.61" y1="178.24" x2="-1300.3" y2="178.24" gradientTransform="matrix(-1, 0, 0, 1, -1228.63, 0)" xlink:href="#New_Gradient_Swatch_3"/><linearGradient id="New_Gradient_Swatch_3-19" x1="70.99" y1="172.31" x2="116.93" y2="172.31" gradientTransform="matrix(1, 0, 0, 1, 0, 0)" xlink:href="#New_Gradient_Swatch_3"/></defs><g id="Layer_2" data-name="Layer 2"><g id="cattails"><g id="cattails_1" data-name="cattails 1"><g id="black"><path class="cls-1" d="M49,206.82s45.08-67.11,39.44-78.3c-11.27,27.46-33.8,69.15-43.67,78.3Z"/><path class="cls-2" d="M78.13,206.82S60.57,144.93,65.36,119c1.59,18.72,6.38,61.9,16,87.8h0"/><path class="cls-3" d="M61.25,206.82s-32-59-32-57.74-9.74,16.32-18.09,30.13c8.35-1.26,15.31-33.89,18.09-35.15,5.57-1.25,33.41,62.76,33.41,62.76Z"/><g id="cattail_copy_9" data-name="cattail copy 9"><path class="cls-4" d="M43.15,44.9c1.1,2.35,2.14,4.84,3.12,7.34,5.55,14.17,10.64,29.59,10.64,29.59l1.21,6.31.18.92.57,3,1.86,9.7,4.93,25.82,3.5,18.26,2.18,11.41.69,3.59,3.4,17.8,1.06,5.52.7,3.73L77.4,189l.19.95.26,1.35.1.55,1,5.22,2,10.37,1,.24.18.05s0-.11-.05-.33c-.15-1-.64-4.38-1.42-9.46-.25-1.66-.54-3.51-.85-5.54-.1-.66-.22-1.35-.32-2.05-.15-.94-.31-1.91-.47-2.92l0-.25c-.1-.66-.2-1.33-.31-2-.19-1.17-.39-2.37-.59-3.62h0q-.45-2.79-.94-5.8c-1-5.82-2-12.17-3.21-18.86-.21-1.27-.45-2.55-.67-3.85-.83-4.67-1.69-9.48-2.6-14.36-1.32-7.07-2.71-14.27-4.16-21.38-.29-1.43-.57-2.86-.88-4.28-1.32-6.35-2.68-12.61-4.07-18.6q-.66-2.91-1.35-5.73c-.06-.27-.13-.53-.19-.8A203.76,203.76,0,0,0,47.5,52.09,27.41,27.41,0,0,0,43.15,44.9Z"/><path class="cls-5" d="M53.88,62.18c.82,2.15,10.54,32.4,10.54,32.4s.81,2.16-3.47,3.13c-2.29.52-3.35-.09-3.81-.77a2.13,2.13,0,0,1-.42-1.2l-8-31.81s-1.08-2.38,1.76-3a2.57,2.57,0,0,1,2.08-.28A2.34,2.34,0,0,1,53.88,62.18Z"/><path class="cls-6" d="M53.88,62.18c.82,2.15,10.54,32.4,10.54,32.4s.81,2.16-3.47,3.13c-2.29.52-3.35-.09-3.81-.77a4.47,4.47,0,0,0,3,.08c4.28-1,3.46-3.12,3.46-3.12S53.86,63.65,53,61.49a3.33,3.33,0,0,0-.47-.87A2.34,2.34,0,0,1,53.88,62.18Z"/><path class="cls-7" d="M49.6,63.15l4,16.64s4,13.7,4.85,15.86C58.45,94.18,49.6,63.15,49.6,63.15Z"/><path class="cls-8" d="M87.13,40.74c-.67,2.47-1.26,5.08-1.79,7.69a252.6,252.6,0,0,0-4,30.53l-.09,6.41,0,.93,0,3L81.1,99.2l-.36,26.2-.25,18.52-.16,11.58-.06,3.65L80,177.21l-.08,5.6,0,3.78,0,1.07v1l0,1.37v.56l-.06,5.3-.15,10.52-1,.38-.16.07s0-.11,0-.33c0-1-.14-4.41-.26-9.55,0-1.67-.08-3.54-.13-5.58,0-.67,0-1.37,0-2.08,0-.94,0-1.93,0-2.95v-.25c0-.66,0-1.34,0-2,0-1.19,0-2.41,0-3.67h0c0-1.88-.06-3.83-.09-5.86-.06-5.88-.12-12.3-.13-19.08,0-1.28,0-2.58,0-3.89,0-4.74,0-9.61.06-14.55.06-7.17.18-14.48.36-21.71,0-1.45.07-2.91.12-4.35.2-6.46.44-12.83.77-19,.1-2,.21-3.93.33-5.84,0-.28,0-.55,0-.83,1-15.23,2.48-28.4,4.71-36.86A26.86,26.86,0,0,1,87.13,40.74Z"/><path class="cls-9" d="M87.33,50.75c-.08,2.28-2.84,33.68-2.84,33.68S84.41,86.7,80,86.24c-2.35-.24-3.1-1.15-3.27-1.93a2.13,2.13,0,0,1,.08-1.25l5-32.31s-.09-2.57,2.83-2.27a2.56,2.56,0,0,1,2,.39A2.21,2.21,0,0,1,87.33,50.75Z"/><path class="cls-10" d="M87.33,50.75c-.08,2.28-2.84,33.68-2.84,33.68S84.41,86.7,80,86.24c-2.35-.24-3.1-1.15-3.27-1.93a4.33,4.33,0,0,0,2.75,1c4.39.46,4.47-1.81,4.47-1.81s2.76-31.4,2.84-33.68a3.11,3.11,0,0,0-.1-1A2.21,2.21,0,0,1,87.33,50.75Z"/><path class="cls-7" d="M82.94,50.3,80.15,67.13s-1.6,14.11-1.68,16.38C79.07,82.15,82.94,50.3,82.94,50.3Z"/></g><g id="cattail_copy_9-2" data-name="cattail copy 9"><path class="cls-11" d="M72.9,206.54S137.81,20.1,162.77,0c-13,19-25,46.07-25,46.07L74.4,206.4Z"/><path class="cls-12" d="M64.26,206.77S85.76,44.4,102.85,24.4C95.43,41.81,90.16,65.76,90.16,65.76L65.47,206.44Z"/><path class="cls-13" d="M151.79,22.34c-.9,2.41-14.9,35-14.9,35s-.91,2.41-4.8.09c-2.09-1.23-2.45-2.52-2.32-3.43a2.63,2.63,0,0,1,.53-1.32l16.4-32.62a2.19,2.19,0,0,1,3.45-1.26,2.47,2.47,0,0,1,1.75,1.28A2.84,2.84,0,0,1,151.79,22.34Z"/><path class="cls-14" d="M151.79,22.34c-.9,2.41-14.9,35-14.9,35s-.91,2.41-4.8.09c-2.09-1.23-2.45-2.52-2.32-3.43a4.58,4.58,0,0,0,2.17,2.24c3.9,2.32,4.8-.1,4.8-.1s14-32.57,14.9-35a4,4,0,0,0,.26-1.08A2.84,2.84,0,0,1,151.79,22.34Z"/><path class="cls-7" d="M147.9,20,139.17,37s-6.62,14.48-7.52,16.89C132.7,52.63,147.9,20,147.9,20Z"/><path class="cls-15" d="M100.77,36.58c-.51,3.08-9.5,45.11-9.5,45.11s-.51,3.08-5.51,1.14c-2.68-1-3.38-2.5-3.43-3.61a3.18,3.18,0,0,1,.33-1.69L94.4,34.93s.37-3.53,3.69-2.26a3,3,0,0,1,2.31,1.16A3.61,3.61,0,0,1,100.77,36.58Z"/><path class="cls-16" d="M100.77,36.58c-.51,3.08-9.5,45.11-9.5,45.11s-.51,3.08-5.51,1.14c-2.68-1-3.38-2.5-3.43-3.61a5.51,5.51,0,0,0,3,2.21c5,1.94,5.51-1.14,5.51-1.14s9-42,9.5-45.11a5.34,5.34,0,0,0,.06-1.35A3.61,3.61,0,0,1,100.77,36.58Z"/><path class="cls-7" d="M95.77,34.64,89.43,56.78s-4.45,18.78-5,21.86C85.41,77,95.77,34.64,95.77,34.64Z"/></g><path class="cls-17" d="M83.52,206.82S79.35,122.73,0,92.6c41.76,37.66,67.75,64,74.24,114.22Z"/><path class="cls-18" d="M57.58,206.82s6.69-80.89-35.31-145.6c14,39.82,30.44,53.51,28.61,145.6Z"/><path class="cls-19" d="M84.51,206.82S59,150.69,59,127.66c3.2,10.08,28.74,79.16,28.74,79.16h-3.2"/><path class="cls-20" d="M64,206.82s18.31-75.24,5.63-80.33c9.86,16.27-2.81,44.74-4.22,58s0,17.29-7.05,22.37h8.46s18.31-29.49,18.31-40.67c5.63,8.13-16.91,40.67-16.91,40.67"/><path class="cls-21" d="M82.94,206.83,107.19,67.5s37.58,40.16,30.62,50.2C133.64,106.41,110,81.3,110,81.3L86.31,206.82Z"/><path class="cls-22" d="M54.64,206.82s22.53-46.77,18.31-60c1.41,16.27-21.13,60-21.13,60Z"/><path class="cls-23" d="M84.11,206.82s17-44,13.78-56.43C99,165.7,82,206.82,82,206.82Z"/><path class="cls-24" d="M85.17,206.82s17-36.34,21.21-30.6c-4.24,0-11.67,14.34-11.67,14.34l-8.48,16.26Z"/><path class="cls-25" d="M67.05,206.82s21.41-55.33,20.44-57.27C89.43,153.43,68,206.82,68,206.82Z"/><path class="cls-26" d="M92.32,206.46s-25.54-56.14-25.54-79.17c3.19,10.08,28.73,79.17,28.73,79.17H92.32"/><path class="cls-27" d="M85.86,206.46s-17-44-13.79-56.43C71,165.33,88,206.46,88,206.46Z"/><path class="cls-28" d="M71,206.82s27.84-69,32-69,7,7.53,13.92,17.57c-1.39-1.25-12.53-15.06-13.92-13.81s-26.45,65.27-26.45,65.27Z"/></g></g></g></g></svg>
