<svg xmlns="http://www.w3.org/2000/svg" xmlns:xlink="http://www.w3.org/1999/xlink" viewBox="0 0 162.77 207.69"><defs><style>.cls-1{fill:url(#New_Gradient_Swatch_10);}.cls-2{fill:url(#New_Gradient_Swatch_10-2);}.cls-3{fill:url(#New_Gradient_Swatch_10-3);}.cls-4{fill:url(#New_Gradient_Swatch_1);}.cls-5{fill:url(#New_Gradient_Swatch_6);}.cls-6{fill:url(#linear-gradient);}.cls-7{fill:#f2f2f2;opacity:0.12;}.cls-8{fill:url(#New_Gradient_Swatch_1-2);}.cls-9{fill:url(#New_Gradient_Swatch_6-2);}.cls-10{fill:url(#linear-gradient-2);}.cls-11{fill:url(#New_Gradient_Swatch_1-3);}.cls-12{fill:url(#New_Gradient_Swatch_6-3);}.cls-13{fill:url(#linear-gradient-3);}.cls-14{fill:url(#New_Gradient_Swatch_1-4);}.cls-15{fill:url(#New_Gradient_Swatch_6-4);}.cls-16{fill:url(#linear-gradient-4);}.cls-17{fill:url(#New_Gradient_Swatch_10-4);}.cls-18{fill:url(#New_Gradient_Swatch_10-5);}.cls-19{fill:url(#New_Gradient_Swatch_10-6);}.cls-20{fill:url(#New_Gradient_Swatch_10-7);}.cls-21{fill:url(#New_Gradient_Swatch_10-8);}.cls-22{fill:url(#New_Gradient_Swatch_10-9);}.cls-23{fill:url(#New_Gradient_Swatch_10-10);}.cls-24{fill:url(#New_Gradient_Swatch_10-11);}.cls-25{fill:url(#New_Gradient_Swatch_10-12);}.cls-26{fill:url(#New_Gradient_Swatch_10-13);}.cls-27{fill:url(#New_Gradient_Swatch_10-14);}.cls-28{fill:url(#New_Gradient_Swatch_10-15);}</style><linearGradient id="New_Gradient_Swatch_10" x1="133.65" y1="167.67" x2="177.81" y2="167.67" gradientTransform="translate(-88.88)" gradientUnits="userSpaceOnUse"><stop offset="0" stop-color="#8fc239"/><stop offset="0.31" stop-color="#aacd30"/><stop offset="0.76" stop-color="#ccdb25"/><stop offset="1" stop-color="#d9e021"/></linearGradient><linearGradient id="New_Gradient_Swatch_10-2" x1="153.41" y1="162.92" x2="170.2" y2="162.92" xlink:href="#New_Gradient_Swatch_10"/><linearGradient id="New_Gradient_Swatch_10-3" x1="11.14" y1="175.43" x2="62.64" y2="175.43" gradientTransform="matrix(1, 0, 0, 1, 0, 0)" xlink:href="#New_Gradient_Swatch_10"/><linearGradient id="New_Gradient_Swatch_1" x1="-14.23" y1="167.54" x2="97.79" y2="78.03" gradientTransform="matrix(-0.99, -0.12, -0.12, 0.99, 118.54, 9.6)" gradientUnits="userSpaceOnUse"><stop offset="0" stop-color="#8fc239"/><stop offset="0.2" stop-color="#81b738"/><stop offset="0.72" stop-color="#5f9e34"/><stop offset="1" stop-color="#529433"/></linearGradient><linearGradient id="New_Gradient_Swatch_6" x1="-124.58" y1="-8.99" x2="-101.27" y2="-8.99" gradientTransform="translate(140.28 4.14) rotate(-46.35)" gradientUnits="userSpaceOnUse"><stop offset="0" stop-color="#a67c52"/><stop offset="1" stop-color="#754c24"/></linearGradient><linearGradient id="linear-gradient" x1="-94.35" y1="-16.04" x2="-73.94" y2="-26.34" gradientTransform="translate(140.28 4.14) rotate(-46.35)" gradientUnits="userSpaceOnUse"><stop offset="0" stop-opacity="0.29"/><stop offset="1"/></linearGradient><linearGradient id="New_Gradient_Swatch_1-2" x1="-41.37" y1="160.44" x2="68.25" y2="72.84" gradientTransform="translate(38.15 15.5) rotate(-15.93)" xlink:href="#New_Gradient_Swatch_1"/><linearGradient id="New_Gradient_Swatch_6-2" x1="-26.85" y1="46.52" x2="-2.35" y2="46.52" gradientTransform="translate(75.32 19.45) rotate(-25.67)" xlink:href="#New_Gradient_Swatch_6"/><linearGradient id="linear-gradient-2" x1="4.32" y1="39.29" x2="25.17" y2="28.77" gradientTransform="translate(75.32 19.45) rotate(-25.67)" xlink:href="#linear-gradient"/><linearGradient id="New_Gradient_Swatch_1-3" x1="128.31" y1="128.38" x2="210.41" y2="62.77" gradientTransform="translate(-50.15 16.12) rotate(-5.93)" xlink:href="#New_Gradient_Swatch_1"/><linearGradient id="New_Gradient_Swatch_6-3" x1="-157.14" y1="-165.8" x2="-128.07" y2="-165.8" gradientTransform="matrix(-0.55, -0.83, -0.83, 0.55, -72.76, 5.49)" xlink:href="#New_Gradient_Swatch_6"/><linearGradient id="linear-gradient-3" x1="-118.48" y1="-175.15" x2="-91.85" y2="-188.59" gradientTransform="matrix(-0.55, -0.83, -0.83, 0.55, -72.76, 5.49)" xlink:href="#linear-gradient"/><linearGradient id="New_Gradient_Swatch_1-4" x1="43.5" y1="127.11" x2="110.98" y2="73.18" gradientTransform="matrix(0.96, -0.28, 0.28, 0.96, -12.09, 32.29)" xlink:href="#New_Gradient_Swatch_1"/><linearGradient id="New_Gradient_Swatch_6-4" x1="-122.39" y1="-73.46" x2="-97.7" y2="-73.46" gradientTransform="matrix(-0.7, -0.72, -0.72, 0.7, -36.27, 26.01)" xlink:href="#New_Gradient_Swatch_6"/><linearGradient id="linear-gradient-4" x1="-89.86" y1="-81.26" x2="-67.6" y2="-92.5" gradientTransform="matrix(-0.7, -0.72, -0.72, 0.7, -36.27, 26.01)" xlink:href="#linear-gradient"/><linearGradient id="New_Gradient_Swatch_10-4" x1="123.48" y1="149.71" x2="207" y2="149.71" gradientTransform="matrix(-1, 0, 0, 1, 207, 0)" xlink:href="#New_Gradient_Swatch_10"/><linearGradient id="New_Gradient_Swatch_10-5" x1="149.03" y1="134.02" x2="184.73" y2="134.02" gradientTransform="matrix(-1, 0, 0, 1, 207, 0)" xlink:href="#New_Gradient_Swatch_10"/><linearGradient id="New_Gradient_Swatch_10-6" x1="147.85" y1="167.24" x2="176.58" y2="167.24" xlink:href="#New_Gradient_Swatch_10"/><linearGradient id="New_Gradient_Swatch_10-7" x1="147.23" y1="166.66" x2="174.9" y2="166.66" xlink:href="#New_Gradient_Swatch_10"/><linearGradient id="New_Gradient_Swatch_10-8" x1="96.34" y1="143.49" x2="119.51" y2="98.44" gradientTransform="matrix(1, 0, 0, 1, 0, 0)" xlink:href="#New_Gradient_Swatch_10"/><linearGradient id="New_Gradient_Swatch_10-9" x1="140.69" y1="176.83" x2="162.35" y2="176.83" xlink:href="#New_Gradient_Swatch_10"/><linearGradient id="New_Gradient_Swatch_10-10" x1="-3664.39" y1="178.61" x2="-3648.08" y2="178.61" gradientTransform="translate(3746.37)" xlink:href="#New_Gradient_Swatch_10"/><linearGradient id="New_Gradient_Swatch_10-11" x1="-3661.2" y1="191.21" x2="-3639.99" y2="191.21" gradientTransform="translate(3746.37)" xlink:href="#New_Gradient_Swatch_10"/><linearGradient id="New_Gradient_Swatch_10-12" x1="64.76" y1="178.19" x2="85.32" y2="178.19" gradientTransform="matrix(-1, 0, 0, 1, 152.37, 0)" xlink:href="#New_Gradient_Swatch_10"/><linearGradient id="New_Gradient_Swatch_10-13" x1="-2270.59" y1="166.87" x2="-2241.86" y2="166.87" gradientTransform="translate(2337.37)" xlink:href="#New_Gradient_Swatch_10"/><linearGradient id="New_Gradient_Swatch_10-14" x1="-1344.61" y1="178.24" x2="-1328.3" y2="178.24" gradientTransform="matrix(-1, 0, 0, 1, -1256.63, 0)" xlink:href="#New_Gradient_Swatch_10"/><linearGradient id="New_Gradient_Swatch_10-15" x1="70.99" y1="172.31" x2="116.93" y2="172.31" gradientTransform="matrix(1, 0, 0, 1, 0, 0)" xlink:href="#New_Gradient_Swatch_10"/></defs><g id="Layer_2" data-name="Layer 2"><g id="cattails"><g id="cattails_1" data-name="cattails 1"><g id="yellow"><path class="cls-1" d="M49,206.82s45.08-67.11,39.44-78.3c-11.27,27.46-33.8,69.15-43.67,78.3Z"/><path class="cls-2" d="M78.13,206.82S60.57,144.93,65.36,119c1.59,18.72,6.38,61.9,16,87.8h0"/><path class="cls-3" d="M61.25,206.82s-32-59-32-57.74-9.74,16.32-18.09,30.13c8.35-1.26,15.31-33.89,18.09-35.15,5.57-1.25,33.41,62.76,33.41,62.76Z"/><g id="cattail_copy_7" data-name="cattail copy 7"><path class="cls-4" d="M43.15,44.9c1.1,2.35,2.14,4.84,3.12,7.34,5.55,14.17,10.64,29.59,10.64,29.59l1.21,6.31.18.92.57,3,1.86,9.7,4.93,25.82,3.5,18.26,2.18,11.41.69,3.59,3.4,17.8,1.06,5.52.7,3.73L77.4,189l.19.95.26,1.35.1.55,1,5.22,2,10.37,1,.24.18.05s0-.11-.05-.33c-.15-1-.64-4.38-1.42-9.46-.25-1.66-.54-3.51-.85-5.54-.1-.66-.22-1.35-.32-2.05-.15-.94-.31-1.91-.47-2.92l0-.25c-.1-.66-.2-1.33-.31-2-.19-1.17-.39-2.37-.59-3.62h0q-.45-2.79-.94-5.8c-1-5.82-2-12.17-3.21-18.86-.21-1.27-.45-2.55-.67-3.85-.83-4.67-1.69-9.48-2.6-14.36-1.32-7.07-2.71-14.27-4.16-21.38-.29-1.43-.57-2.86-.88-4.28-1.32-6.35-2.68-12.61-4.07-18.6q-.66-2.91-1.35-5.73c-.06-.27-.13-.53-.19-.8A203.76,203.76,0,0,0,47.5,52.09,27.41,27.41,0,0,0,43.15,44.9Z"/><path class="cls-5" d="M53.88,62.18c.82,2.15,10.54,32.4,10.54,32.4s.81,2.16-3.47,3.13c-2.29.52-3.35-.09-3.81-.77a2.13,2.13,0,0,1-.42-1.2l-8-31.81s-1.08-2.38,1.76-3a2.57,2.57,0,0,1,2.08-.28A2.34,2.34,0,0,1,53.88,62.18Z"/><path class="cls-6" d="M53.88,62.18c.82,2.15,10.54,32.4,10.54,32.4s.81,2.16-3.47,3.13c-2.29.52-3.35-.09-3.81-.77a4.47,4.47,0,0,0,3,.08c4.28-1,3.46-3.12,3.46-3.12S53.86,63.65,53,61.49a3.33,3.33,0,0,0-.47-.87A2.34,2.34,0,0,1,53.88,62.18Z"/><path class="cls-7" d="M49.6,63.15l4,16.64s4,13.7,4.85,15.86C58.45,94.18,49.6,63.15,49.6,63.15Z"/><path class="cls-8" d="M87.13,40.74c-.67,2.47-1.26,5.08-1.79,7.69a252.6,252.6,0,0,0-4,30.53l-.09,6.41,0,.93,0,3L81.1,99.2l-.36,26.2-.25,18.52-.16,11.58-.06,3.65L80,177.21l-.08,5.6,0,3.78,0,1.07v1l0,1.37v.56l-.06,5.3-.15,10.52-1,.38-.16.07s0-.11,0-.33c0-1-.14-4.41-.26-9.55,0-1.67-.08-3.54-.13-5.58,0-.67,0-1.37,0-2.08,0-.94,0-1.93,0-2.95v-.25c0-.66,0-1.34,0-2,0-1.19,0-2.41,0-3.67h0c0-1.88-.06-3.83-.09-5.86-.06-5.88-.12-12.3-.13-19.08,0-1.28,0-2.58,0-3.89,0-4.74,0-9.61.06-14.55.06-7.17.18-14.48.36-21.71,0-1.45.07-2.91.12-4.35.2-6.46.44-12.83.77-19,.1-2,.21-3.93.33-5.84,0-.28,0-.55,0-.83,1-15.23,2.48-28.4,4.71-36.86A26.86,26.86,0,0,1,87.13,40.74Z"/><path class="cls-9" d="M87.33,50.75c-.08,2.28-2.84,33.68-2.84,33.68S84.41,86.7,80,86.24c-2.35-.24-3.1-1.15-3.27-1.93a2.13,2.13,0,0,1,.08-1.25l5-32.31s-.09-2.57,2.83-2.27a2.56,2.56,0,0,1,2,.39A2.21,2.21,0,0,1,87.33,50.75Z"/><path class="cls-10" d="M87.33,50.75c-.08,2.28-2.84,33.68-2.84,33.68S84.41,86.7,80,86.24c-2.35-.24-3.1-1.15-3.27-1.93a4.33,4.33,0,0,0,2.75,1c4.39.46,4.47-1.81,4.47-1.81s2.76-31.4,2.84-33.68a3.11,3.11,0,0,0-.1-1A2.21,2.21,0,0,1,87.33,50.75Z"/><path class="cls-7" d="M82.94,50.3,80.15,67.13s-1.6,14.11-1.68,16.38C79.07,82.15,82.94,50.3,82.94,50.3Z"/></g><g id="cattail_copy_7-2" data-name="cattail copy 7"><path class="cls-11" d="M72.9,206.54S137.81,20.1,162.77,0c-13,19-25,46.07-25,46.07L74.4,206.4Z"/><path class="cls-12" d="M152,10.13c-1.67,2.64-23,39.95-23,39.95s-1.67,2.64,3.34,4.53c2.69,1,4.19.39,5-.41a3.22,3.22,0,0,0,.89-1.48l19.64-39.58S160,10.26,156.64,9a2.94,2.94,0,0,0-2.49-.68A3.64,3.64,0,0,0,152,10.13Z"/><path class="cls-13" d="M152,10.13c-1.67,2.64-23,39.95-23,39.95s-1.67,2.64,3.34,4.53c2.69,1,4.19.39,5-.41a5.44,5.44,0,0,1-3.71-.35c-5-1.88-3.35-4.52-3.35-4.52s21.32-37.32,23-40a5.08,5.08,0,0,1,.85-1A3.64,3.64,0,0,0,152,10.13Z"/><path class="cls-7" d="M157.06,12,147,32.74s-9.2,17-10.87,19.6C136.57,50.46,157.06,12,157.06,12Z"/><path class="cls-14" d="M64.26,206.77S85.76,44.4,102.85,24.4C95.43,41.81,90.16,65.76,90.16,65.76L65.47,206.44Z"/><path class="cls-15" d="M95.76,34.22c-.92,2.4-12.08,36.06-12.08,36.06s-.92,2.4,3.53,3.26c2.38.46,3.5-.26,4-1a2.58,2.58,0,0,0,.48-1.34l9.39-35.28a2.2,2.2,0,0,0-1.74-3.24,2.56,2.56,0,0,0-2.17-.21A2.9,2.9,0,0,0,95.76,34.22Z"/><path class="cls-16" d="M95.76,34.22c-.92,2.4-12.08,36.06-12.08,36.06s-.92,2.4,3.53,3.26c2.38.46,3.5-.26,4-1a4.62,4.62,0,0,1-3.11.23c-4.45-.85-3.53-3.25-3.53-3.25S95.74,35.83,96.66,33.43a4.12,4.12,0,0,1,.52-1A2.9,2.9,0,0,0,95.76,34.22Z"/><path class="cls-7" d="M100.21,35.07,95.5,53.52s-4.66,15.23-5.59,17.63C89.93,69.54,100.21,35.07,100.21,35.07Z"/></g><path class="cls-17" d="M83.52,206.82S79.35,122.73,0,92.6c41.76,37.66,67.75,64,74.24,114.22Z"/><path class="cls-18" d="M57.58,206.82s6.69-80.89-35.31-145.6c14,39.82,30.44,53.51,28.61,145.6Z"/><path class="cls-19" d="M84.51,206.82S59,150.69,59,127.66c3.2,10.08,28.74,79.16,28.74,79.16h-3.2"/><path class="cls-20" d="M64,206.82s18.31-75.24,5.63-80.33c9.86,16.27-2.81,44.74-4.22,58s0,17.29-7.05,22.37h8.46s18.31-29.49,18.31-40.67c5.63,8.13-16.91,40.67-16.91,40.67"/><path class="cls-21" d="M82.94,206.83,107.19,67.5s37.58,40.16,30.62,50.2C133.64,106.41,110,81.3,110,81.3L86.31,206.82Z"/><path class="cls-22" d="M54.64,206.82s22.53-46.77,18.31-60c1.41,16.27-21.13,60-21.13,60Z"/><path class="cls-23" d="M84.11,206.82s17-44,13.78-56.43C99,165.7,82,206.82,82,206.82Z"/><path class="cls-24" d="M85.17,206.82s17-36.34,21.21-30.6c-4.24,0-11.67,14.34-11.67,14.34l-8.48,16.26Z"/><path class="cls-25" d="M67.05,206.82s21.41-55.33,20.44-57.27C89.43,153.43,68,206.82,68,206.82Z"/><path class="cls-26" d="M92.32,206.46s-25.54-56.14-25.54-79.17c3.19,10.08,28.73,79.17,28.73,79.17H92.32"/><path class="cls-27" d="M85.86,206.46s-17-44-13.79-56.43C71,165.33,88,206.46,88,206.46Z"/><path class="cls-28" d="M71,206.82s27.84-69,32-69,7,7.53,13.92,17.57c-1.39-1.25-12.53-15.06-13.92-13.81s-26.45,65.27-26.45,65.27Z"/></g></g></g></g></svg>
