<svg xmlns="http://www.w3.org/2000/svg" xmlns:xlink="http://www.w3.org/1999/xlink" viewBox="0 0 135.6 207.44"><defs><style>.cls-1{fill:url(#New_Gradient_Swatch_10);}.cls-2{fill:url(#New_Gradient_Swatch_1);}.cls-3{fill:url(#New_Gradient_Swatch_6);}.cls-4{fill:url(#linear-gradient);}.cls-5{fill:#f2f2f2;opacity:0.12;}.cls-6{fill:url(#New_Gradient_Swatch_1-2);}.cls-7{fill:url(#New_Gradient_Swatch_6-2);}.cls-8{fill:url(#linear-gradient-2);}.cls-9{fill:url(#New_Gradient_Swatch_1-3);}.cls-10{fill:url(#New_Gradient_Swatch_6-3);}.cls-11{fill:url(#linear-gradient-3);}.cls-12{fill:url(#New_Gradient_Swatch_1-4);}.cls-13{fill:url(#New_Gradient_Swatch_6-4);}.cls-14{fill:url(#linear-gradient-4);}.cls-15{fill:url(#New_Gradient_Swatch_10-2);}.cls-16{fill:url(#New_Gradient_Swatch_10-3);}.cls-17{fill:url(#New_Gradient_Swatch_10-4);}.cls-18{fill:url(#New_Gradient_Swatch_10-5);}.cls-19{fill:url(#New_Gradient_Swatch_10-6);}.cls-20{fill:url(#New_Gradient_Swatch_10-7);}</style><linearGradient id="New_Gradient_Swatch_10" x1="7.11" y1="141" x2="29" y2="141" gradientUnits="userSpaceOnUse"><stop offset="0" stop-color="#8fc239"/><stop offset="0.31" stop-color="#aacd30"/><stop offset="0.76" stop-color="#ccdb25"/><stop offset="1" stop-color="#d9e021"/></linearGradient><linearGradient id="New_Gradient_Swatch_1" x1="157.12" y1="204.06" x2="230.67" y2="145.29" gradientTransform="translate(-85.16 -78.08) rotate(5.65)" gradientUnits="userSpaceOnUse"><stop offset="0" stop-color="#8fc239"/><stop offset="0.2" stop-color="#81b738"/><stop offset="0.72" stop-color="#5f9e34"/><stop offset="1" stop-color="#529433"/></linearGradient><linearGradient id="New_Gradient_Swatch_6" x1="-827.34" y1="-500.89" x2="-799.66" y2="-500.89" gradientTransform="translate(872.53 642.03) rotate(5.8)" gradientUnits="userSpaceOnUse"><stop offset="0" stop-color="#a67c52"/><stop offset="1" stop-color="#754c24"/></linearGradient><linearGradient id="linear-gradient" x1="-791.26" y1="-509.77" x2="-766.55" y2="-522.25" gradientTransform="translate(872.53 642.03) rotate(5.8)" gradientUnits="userSpaceOnUse"><stop offset="0" stop-opacity="0.29"/><stop offset="1"/></linearGradient><linearGradient id="New_Gradient_Swatch_1-2" x1="76.14" y1="188.01" x2="155.86" y2="124.3" gradientTransform="translate(-53.53 -49.25) rotate(-5.93)" xlink:href="#New_Gradient_Swatch_1"/><linearGradient id="New_Gradient_Swatch_6-2" x1="-901.88" y1="-483.16" x2="-871.87" y2="-483.16" gradientTransform="translate(1032.14 394.78) rotate(-8.99)" xlink:href="#New_Gradient_Swatch_6"/><linearGradient id="linear-gradient-2" x1="-862.78" y1="-492.78" x2="-835.99" y2="-506.3" gradientTransform="translate(1032.14 394.78) rotate(-8.99)" xlink:href="#linear-gradient"/><linearGradient id="New_Gradient_Swatch_1-3" x1="19.96" y1="312.85" x2="80.69" y2="264.32" gradientTransform="translate(-46.03 -159.39) rotate(-9.17)" xlink:href="#New_Gradient_Swatch_1"/><linearGradient id="New_Gradient_Swatch_6-3" x1="-1004.66" y1="-392.17" x2="-980.82" y2="-392.17" gradientTransform="translate(1105.54 260.66) rotate(-11.19)" xlink:href="#New_Gradient_Swatch_6"/><linearGradient id="linear-gradient-3" x1="-974.02" y1="-399.82" x2="-953.1" y2="-410.39" gradientTransform="translate(1105.54 260.66) rotate(-11.19)" xlink:href="#linear-gradient"/><linearGradient id="New_Gradient_Swatch_1-4" x1="-30.6" y1="289.93" x2="38.27" y2="234.9" gradientTransform="matrix(0.96, -0.28, 0.28, 0.96, -38.31, -147.99)" xlink:href="#New_Gradient_Swatch_1"/><linearGradient id="New_Gradient_Swatch_6-4" x1="-1025.37" y1="-405.72" x2="-998.99" y2="-405.72" gradientTransform="translate(1128.44 123.16) rotate(-18.11)" xlink:href="#New_Gradient_Swatch_6"/><linearGradient id="linear-gradient-4" x1="-991.22" y1="-414.25" x2="-967.81" y2="-426.07" gradientTransform="translate(1128.44 123.16) rotate(-18.11)" xlink:href="#linear-gradient"/><linearGradient id="New_Gradient_Swatch_10-2" x1="0" y1="163.5" x2="96" y2="163.5" xlink:href="#New_Gradient_Swatch_10"/><linearGradient id="New_Gradient_Swatch_10-3" x1="21" y1="161.5" x2="81" y2="161.5" xlink:href="#New_Gradient_Swatch_10"/><linearGradient id="New_Gradient_Swatch_10-4" x1="35.86" y1="146" x2="65" y2="146" xlink:href="#New_Gradient_Swatch_10"/><linearGradient id="New_Gradient_Swatch_10-5" x1="39.36" y1="148.5" x2="98" y2="148.5" xlink:href="#New_Gradient_Swatch_10"/><linearGradient id="New_Gradient_Swatch_10-6" x1="55" y1="163.14" x2="135.14" y2="163.14" xlink:href="#New_Gradient_Swatch_10"/><linearGradient id="New_Gradient_Swatch_10-7" x1="61" y1="169.5" x2="96" y2="169.5" xlink:href="#New_Gradient_Swatch_10"/></defs><g id="Layer_2" data-name="Layer 2"><g id="cattails"><g id="cattails_3" data-name="cattails 3"><g id="yellow"><path class="cls-1" d="M15,207S-10,137,29,75c-12,42-19,104-8,132Z"/><g id="cattails_copy" data-name="cattails copy"><g id="cattail_copy_12" data-name="cattail copy 12"><path class="cls-2" d="M24,207.32S111.51,49.47,135.6,35.45C121.51,50.46,106.66,73,106.66,73L25.23,207.44Z"/><path class="cls-3" d="M128.81,46.24c-1.5,2.37-23.67,34.19-23.67,34.19s-1.5,2.37-5-.51c-1.88-1.54-2-2.91-1.61-3.83a3.13,3.13,0,0,1,.87-1.29l24.66-31.56s1.54-2.77,3.87-.87a2.3,2.3,0,0,1,1.52,1.54A3.11,3.11,0,0,1,128.81,46.24Z"/><path class="cls-4" d="M128.81,46.24c-1.5,2.37-23.67,34.19-23.67,34.19s-1.5,2.37-5-.51c-1.88-1.54-2-2.91-1.61-3.83a4.2,4.2,0,0,0,1.73,2.58c3.5,2.88,5,.51,5,.51S127.43,47.36,128.93,45a4.1,4.1,0,0,0,.53-1.08A3.11,3.11,0,0,1,128.81,46.24Z"/><path class="cls-5" d="M125.32,43.36l-13,16.35S102,73.8,100.53,76.17C101.9,75.05,125.32,43.36,125.32,43.36Z"/></g><g id="cattail_copy_12-2" data-name="cattail copy 12"><path class="cls-6" d="M27.37,206.77S86,20.12,108.5,0C96.79,19,85.93,46.12,85.93,46.12L28.72,206.63Z"/><path class="cls-7" d="M92.11,36.1C91.19,39,76.77,78.48,76.77,78.48s-.92,2.9-5.38.85c-2.39-1.1-2.84-2.51-2.74-3.58a3.32,3.32,0,0,1,.55-1.59l17.11-39.9s.85-3.33,3.81-2a2.51,2.51,0,0,1,2,1.2A3.38,3.38,0,0,1,92.11,36.1Z"/><path class="cls-8" d="M92.11,36.1C91.19,39,76.77,78.48,76.77,78.48s-.92,2.9-5.38.85c-2.39-1.1-2.84-2.51-2.74-3.58A4.53,4.53,0,0,0,71.18,78c4.46,2,5.38-.85,5.38-.85S91,37.66,91.89,34.76a5.18,5.18,0,0,0,.26-1.28A3.38,3.38,0,0,1,92.11,36.1Z"/><path class="cls-5" d="M87.65,34.05,78.53,54.78S71.68,72.4,70.76,75.3C71.89,73.74,87.65,34.05,87.65,34.05Z"/></g><g id="cattail_copy_12-3" data-name="cattail copy 12"><path class="cls-9" d="M17.81,207S51.84,59.6,67,43C59.47,58.26,52.86,79.78,52.86,79.78L18.76,206.85Z"/><path class="cls-10" d="M64.13,53c-.7,2.22-11.58,32.54-11.58,32.54s-.69,2.22-4,1c-1.77-.67-2.1-1.7-2-2.5A2.76,2.76,0,0,1,47,82.81L59.84,52s.65-2.53,2.84-1.71a1.62,1.62,0,0,1,1.49.76A2.52,2.52,0,0,1,64.13,53Z"/><path class="cls-11" d="M64.13,53c-.7,2.22-11.58,32.54-11.58,32.54s-.69,2.22-4,1c-1.77-.67-2.1-1.7-2-2.5a2.92,2.92,0,0,0,1.86,1.51c3.29,1.25,4-1,4-1S63.28,54.25,64,52a3.73,3.73,0,0,0,.19-1A2.52,2.52,0,0,1,64.13,53Z"/><path class="cls-5" d="M60.84,51.77,54,67.79s-5.17,13.55-5.86,15.77C49,82.33,60.84,51.77,60.84,51.77Z"/></g><g id="cattail_copy_12-4" data-name="cattail copy 12"><path class="cls-12" d="M16.16,207S35,37.83,50,17C43.49,35.14,38.88,60.08,38.88,60.08L17.22,206.62Z"/><path class="cls-13" d="M47.49,33.44c-.44,2.59-8,38.2-8,38.2s-.44,2.59-4.31,1.57c-2.07-.54-2.6-1.66-2.63-2.58a3.07,3.07,0,0,1,.28-1.43l9.72-36.38s.34-2.95,2.91-2.28a1.91,1.91,0,0,1,1.79.68A2.92,2.92,0,0,1,47.49,33.44Z"/><path class="cls-14" d="M47.49,33.44c-.44,2.59-8,38.2-8,38.2s-.44,2.59-4.31,1.57c-2.07-.54-2.6-1.66-2.63-2.58a3.49,3.49,0,0,0,2.31,1.48c3.87,1,4.31-1.57,4.31-1.57s7.57-35.61,8-38.2a5.11,5.11,0,0,0,.07-1.12A2.92,2.92,0,0,1,47.49,33.44Z"/><path class="cls-5" d="M43.63,32.42,38.39,51.36s-3.72,16-4.16,18.55C35,68.42,43.63,32.42,43.63,32.42Z"/></g></g><path class="cls-15" d="M0,207s3-79,96-87c-46,18-71,40-90,87Z"/><path class="cls-16" d="M21,207s3-67,60-91c-30,30-48.67,51-53.33,91Z"/><path class="cls-17" d="M36,207S38,106,65,85c-13,39-28,84-20,122Z"/><path class="cls-18" d="M40,207S29,142,98,90c-23,32-50,43-47,117Z"/><path class="cls-19" d="M55,207s14-97,49-87,31,36,31,36-11-29-32-31-38,82-38,82Z"/><path class="cls-20" d="M61,207s14-68,35-75c-11,18-27,75-28,75Z"/></g></g></g></g></svg>
