<svg xmlns="http://www.w3.org/2000/svg" xmlns:xlink="http://www.w3.org/1999/xlink" viewBox="0 0 162.77 207.69"><defs><style>.cls-1{fill:url(#linear-gradient);}.cls-2{fill:url(#linear-gradient-2);}.cls-3{fill:url(#linear-gradient-3);}.cls-4{fill:url(#linear-gradient-4);}.cls-5{fill:url(#New_Gradient_Swatch_8);}.cls-6{fill:url(#linear-gradient-5);}.cls-7{fill:#f2f2f2;opacity:0.12;}.cls-8{fill:url(#linear-gradient-6);}.cls-9{fill:url(#New_Gradient_Swatch_8-2);}.cls-10{fill:url(#linear-gradient-7);}.cls-11{fill:url(#linear-gradient-8);}.cls-12{fill:url(#New_Gradient_Swatch_8-3);}.cls-13{fill:url(#linear-gradient-9);}.cls-14{fill:url(#linear-gradient-10);}.cls-15{fill:url(#New_Gradient_Swatch_8-4);}.cls-16{fill:url(#linear-gradient-11);}.cls-17{fill:url(#linear-gradient-12);}.cls-18{fill:url(#linear-gradient-13);}.cls-19{fill:url(#linear-gradient-14);}.cls-20{fill:url(#linear-gradient-15);}.cls-21{fill:url(#linear-gradient-16);}.cls-22{fill:url(#linear-gradient-17);}.cls-23{fill:url(#linear-gradient-18);}.cls-24{fill:url(#linear-gradient-19);}.cls-25{fill:url(#linear-gradient-20);}.cls-26{fill:url(#linear-gradient-21);}.cls-27{fill:url(#linear-gradient-22);}.cls-28{fill:url(#linear-gradient-23);}</style><linearGradient id="linear-gradient" x1="168.04" y1="189.41" x2="143.99" y2="147.77" gradientTransform="translate(-88.88)" gradientUnits="userSpaceOnUse"><stop offset="0" stop-color="#1b7f49"/><stop offset="0" stop-color="#662d91"/><stop offset="0.1" stop-color="#733493"/><stop offset="0.3" stop-color="#954599"/><stop offset="0.56" stop-color="#cb61a3"/><stop offset="0.75" stop-color="#f878ab"/><stop offset="1" stop-color="#ff7bac"/></linearGradient><linearGradient id="linear-gradient-2" x1="182.02" y1="200" x2="140.01" y2="127.23" xlink:href="#linear-gradient"/><linearGradient id="linear-gradient-3" x1="51.2" y1="213.43" x2="15.67" y2="151.89" gradientTransform="matrix(1, 0, 0, 1, 0, 0)" xlink:href="#linear-gradient"/><linearGradient id="linear-gradient-4" x1="-54.82" y1="165.11" x2="57.21" y2="75.6" gradientTransform="matrix(-0.99, -0.12, -0.12, 0.99, 77.96, 7.17)" gradientUnits="userSpaceOnUse"><stop offset="0.5" stop-color="#662d91"/><stop offset="0.57" stop-color="#713393"/><stop offset="0.68" stop-color="#904298"/><stop offset="0.83" stop-color="#c15ba1"/><stop offset="1" stop-color="#ff7bac"/></linearGradient><linearGradient id="New_Gradient_Swatch_8" x1="-370.61" y1="-114.33" x2="-347.3" y2="-114.33" gradientTransform="translate(386.31 -101.2) rotate(-46.35)" gradientUnits="userSpaceOnUse"><stop offset="0" stop-color="#6b8d61"/><stop offset="0.4" stop-color="#467645"/><stop offset="0.78" stop-color="#27632e"/><stop offset="1" stop-color="#1c5c26"/></linearGradient><linearGradient id="linear-gradient-5" x1="-340.38" y1="-121.37" x2="-319.97" y2="-131.68" gradientTransform="translate(386.31 -101.2) rotate(-46.35)" gradientUnits="userSpaceOnUse"><stop offset="0" stop-opacity="0.29"/><stop offset="1"/></linearGradient><linearGradient id="linear-gradient-6" x1="-134.68" y1="147.38" x2="-25.06" y2="59.79" gradientTransform="translate(131.46 2.45) rotate(-15.93)" xlink:href="#linear-gradient-4"/><linearGradient id="New_Gradient_Swatch_8-2" x1="-174.12" y1="12.97" x2="-149.61" y2="12.97" gradientTransform="translate(222.59 -14.1) rotate(-25.67)" xlink:href="#New_Gradient_Swatch_8"/><linearGradient id="linear-gradient-7" x1="-142.94" y1="5.74" x2="-122.1" y2="-4.78" gradientTransform="translate(222.59 -14.1) rotate(-25.67)" xlink:href="#linear-gradient-5"/><linearGradient id="linear-gradient-8" x1="93.19" y1="126.56" x2="175.3" y2="60.95" gradientTransform="translate(-15.03 14.31) rotate(-5.93)" xlink:href="#linear-gradient-4"/><linearGradient id="New_Gradient_Swatch_8-3" x1="-440.05" y1="-317.22" x2="-410.97" y2="-317.22" gradientTransform="translate(576.52 338.38) rotate(-1.47)" xlink:href="#New_Gradient_Swatch_8"/><linearGradient id="linear-gradient-9" x1="-401.39" y1="-326.57" x2="-374.76" y2="-340.01" gradientTransform="translate(576.52 338.38) rotate(-1.47)" xlink:href="#linear-gradient-5"/><linearGradient id="linear-gradient-10" x1="-53.34" y1="113.03" x2="14.15" y2="59.1" gradientTransform="matrix(0.96, -0.28, 0.28, 0.96, 84.74, 18.21)" xlink:href="#linear-gradient-4"/><linearGradient id="New_Gradient_Swatch_8-4" x1="-364.72" y1="-175.77" x2="-340.03" y2="-175.77" gradientTransform="translate(475.7 145.27) rotate(-13.03)" xlink:href="#New_Gradient_Swatch_8"/><linearGradient id="linear-gradient-11" x1="-332.19" y1="-183.57" x2="-309.93" y2="-194.81" gradientTransform="translate(475.7 145.27) rotate(-13.03)" xlink:href="#linear-gradient-5"/><linearGradient id="linear-gradient-12" x1="124.3" y1="207.3" x2="194.64" y2="85.46" gradientTransform="matrix(-1, 0, 0, 1, 207, 0)" xlink:href="#linear-gradient"/><linearGradient id="linear-gradient-13" x1="133.54" y1="197.65" x2="205.42" y2="73.16" gradientTransform="matrix(-1, 0, 0, 1, 207, 0)" xlink:href="#linear-gradient"/><linearGradient id="linear-gradient-14" x1="139.78" y1="203.53" x2="216.1" y2="71.35" gradientTransform="translate(-54.76)" xlink:href="#linear-gradient"/><linearGradient id="linear-gradient-15" x1="181.75" y1="203.84" x2="140.29" y2="132.03" xlink:href="#linear-gradient"/><linearGradient id="linear-gradient-16" x1="171.71" y1="198.39" x2="137.27" y2="138.75" xlink:href="#linear-gradient"/><linearGradient id="linear-gradient-17" x1="162.31" y1="195.97" x2="140.91" y2="158.9" xlink:href="#linear-gradient"/><linearGradient id="linear-gradient-18" x1="-3645.67" y1="197.24" x2="-3666.66" y2="160.89" gradientTransform="translate(3746.37)" xlink:href="#linear-gradient"/><linearGradient id="linear-gradient-19" x1="-3646.36" y1="198.86" x2="-3655.25" y2="183.46" gradientTransform="translate(3746.37)" xlink:href="#linear-gradient"/><linearGradient id="linear-gradient-20" x1="65.01" y1="195.66" x2="84.95" y2="161.14" gradientTransform="matrix(-1, 0, 0, 1, 152.37, 0)" xlink:href="#linear-gradient"/><linearGradient id="linear-gradient-21" x1="-2236.69" y1="203.47" x2="-2278.15" y2="131.66" gradientTransform="translate(2337.37)" xlink:href="#linear-gradient"/><linearGradient id="linear-gradient-22" x1="-1350.07" y1="203.31" x2="-1321.65" y2="154.09" gradientTransform="matrix(-1, 0, 0, 1, -1256.63, 0)" xlink:href="#linear-gradient"/><linearGradient id="linear-gradient-23" x1="100.75" y1="192.86" x2="77.44" y2="152.47" gradientTransform="matrix(1, 0, 0, 1, 0, 0)" xlink:href="#linear-gradient"/></defs><g id="Layer_2" data-name="Layer 2"><g id="cattails"><g id="cattails_1" data-name="cattails 1"><g id="purple"><path class="cls-1" d="M49,206.82s45.08-67.11,39.44-78.3c-11.27,27.46-33.8,69.15-43.67,78.3Z"/><path class="cls-2" d="M78.13,206.82S60.57,144.93,65.36,119c1.59,18.72,6.38,61.9,16,87.8h0"/><path class="cls-3" d="M61.25,206.82s-32-59-32-57.74-9.74,16.32-18.09,30.13c8.35-1.26,15.31-33.89,18.09-35.15,5.57-1.25,33.41,62.76,33.41,62.76Z"/><g id="cattail_copy_8" data-name="cattail copy 8"><path class="cls-4" d="M43.15,44.9c1.1,2.35,2.14,4.84,3.12,7.34,5.55,14.17,10.64,29.59,10.64,29.59l1.21,6.31.18.92.57,3,1.86,9.7,4.93,25.82,3.5,18.26,2.18,11.41.69,3.59,3.4,17.8,1.06,5.52.7,3.73L77.4,189l.19.95.26,1.35.1.55,1,5.22,2,10.37,1,.24.18.05s0-.11-.05-.33c-.15-1-.64-4.38-1.42-9.46-.25-1.66-.54-3.51-.85-5.54-.1-.66-.22-1.35-.32-2.05-.15-.94-.31-1.91-.47-2.92l0-.25c-.1-.66-.2-1.33-.31-2-.19-1.17-.39-2.37-.59-3.62h0q-.45-2.79-.94-5.8c-1-5.82-2-12.17-3.21-18.86-.21-1.27-.45-2.55-.67-3.85-.83-4.67-1.69-9.48-2.6-14.36-1.32-7.07-2.71-14.27-4.16-21.38-.29-1.43-.57-2.86-.88-4.28-1.32-6.35-2.68-12.61-4.07-18.6q-.66-2.91-1.35-5.73c-.06-.27-.13-.53-.19-.8A203.76,203.76,0,0,0,47.5,52.09,27.41,27.41,0,0,0,43.15,44.9Z"/><path class="cls-5" d="M53.88,62.18c.82,2.15,10.54,32.4,10.54,32.4s.81,2.16-3.47,3.13c-2.29.52-3.35-.09-3.81-.77a2.13,2.13,0,0,1-.42-1.2l-8-31.81s-1.08-2.38,1.76-3a2.57,2.57,0,0,1,2.08-.28A2.34,2.34,0,0,1,53.88,62.18Z"/><path class="cls-6" d="M53.88,62.18c.82,2.15,10.54,32.4,10.54,32.4s.81,2.16-3.47,3.13c-2.29.52-3.35-.09-3.81-.77a4.47,4.47,0,0,0,3,.08c4.28-1,3.46-3.12,3.46-3.12S53.86,63.65,53,61.49a3.33,3.33,0,0,0-.47-.87A2.34,2.34,0,0,1,53.88,62.18Z"/><path class="cls-7" d="M49.6,63.15l4,16.64s4,13.7,4.85,15.86C58.45,94.18,49.6,63.15,49.6,63.15Z"/><path class="cls-8" d="M87.13,40.74c-.67,2.47-1.26,5.08-1.79,7.69a252.6,252.6,0,0,0-4,30.53l-.09,6.41,0,.93,0,3L81.1,99.2l-.36,26.2-.25,18.52-.16,11.58-.06,3.65L80,177.21l-.08,5.6,0,3.78,0,1.07v1l0,1.37v.56l-.06,5.3-.15,10.52-1,.38-.16.07s0-.11,0-.33c0-1-.14-4.41-.26-9.55,0-1.67-.08-3.54-.13-5.58,0-.67,0-1.37,0-2.08,0-.94,0-1.93,0-2.95v-.25c0-.66,0-1.34,0-2,0-1.19,0-2.41,0-3.67h0c0-1.88-.06-3.83-.09-5.86-.06-5.88-.12-12.3-.13-19.08,0-1.28,0-2.58,0-3.89,0-4.74,0-9.61.06-14.55.06-7.17.18-14.48.36-21.71,0-1.45.07-2.91.12-4.35.2-6.46.44-12.83.77-19,.1-2,.21-3.93.33-5.84,0-.28,0-.55,0-.83,1-15.23,2.48-28.4,4.71-36.86A26.86,26.86,0,0,1,87.13,40.74Z"/><path class="cls-9" d="M87.33,50.75c-.08,2.28-2.84,33.68-2.84,33.68S84.41,86.7,80,86.24c-2.35-.24-3.1-1.15-3.27-1.93a2.13,2.13,0,0,1,.08-1.25l5-32.31s-.09-2.57,2.83-2.27a2.56,2.56,0,0,1,2,.39A2.21,2.21,0,0,1,87.33,50.75Z"/><path class="cls-10" d="M87.33,50.75c-.08,2.28-2.84,33.68-2.84,33.68S84.41,86.7,80,86.24c-2.35-.24-3.1-1.15-3.27-1.93a4.33,4.33,0,0,0,2.75,1c4.39.46,4.47-1.81,4.47-1.81s2.76-31.4,2.84-33.68a3.11,3.11,0,0,0-.1-1A2.21,2.21,0,0,1,87.33,50.75Z"/><path class="cls-7" d="M82.94,50.3,80.15,67.13s-1.6,14.11-1.68,16.38C79.07,82.15,82.94,50.3,82.94,50.3Z"/></g><g id="cattail_copy_8-2" data-name="cattail copy 8"><path class="cls-11" d="M72.9,206.54S137.81,20.1,162.77,0c-13,19-25,46.07-25,46.07L74.4,206.4Z"/><path class="cls-12" d="M156.59,13.15C155.39,16,137.16,55,137.16,55s-1.19,2.88-5.62-.13c-2.38-1.62-2.73-3.2-2.53-4.3a3.19,3.19,0,0,1,.7-1.57l21-38.86s1.16-3.35,4.12-1.36a3,3,0,0,1,2,1.65A3.62,3.62,0,0,1,156.59,13.15Z"/><path class="cls-13" d="M156.59,13.15C155.39,16,137.16,55,137.16,55s-1.19,2.88-5.62-.13c-2.38-1.62-2.73-3.2-2.53-4.3a5.58,5.58,0,0,0,2.42,2.84c4.43,3,5.63.13,5.63.13s18.23-38.92,19.42-41.81a4.56,4.56,0,0,0,.37-1.3A3.62,3.62,0,0,1,156.59,13.15Z"/><path class="cls-7" d="M152.16,10.13,141,30.28s-8.57,17.28-9.77,20.17C132.52,49,152.16,10.13,152.16,10.13Z"/><path class="cls-14" d="M64.26,206.77S85.76,44.4,102.85,24.4C95.43,41.81,90.16,65.76,90.16,65.76L65.47,206.44Z"/><path class="cls-15" d="M101,35.86c-.52,2.52-9.29,36.87-9.29,36.87s-.52,2.52-4.72.84c-2.26-.9-2.82-2.11-2.83-3a2.49,2.49,0,0,1,.32-1.38L95.58,34.39a2.2,2.2,0,0,1,3.21-1.79,2.52,2.52,0,0,1,1.93,1A2.86,2.86,0,0,1,101,35.86Z"/><path class="cls-16" d="M101,35.86c-.52,2.52-9.29,36.87-9.29,36.87s-.52,2.52-4.72.84c-2.26-.9-2.82-2.11-2.83-3a4.62,4.62,0,0,0,2.49,1.88c4.21,1.68,4.73-.84,4.73-.84s8.77-34.36,9.29-36.88a3.75,3.75,0,0,0,.09-1.11A2.86,2.86,0,0,1,101,35.86Z"/><path class="cls-7" d="M96.76,34.18l-6,18.06S86.47,67.58,86,70.1C86.8,68.74,96.76,34.18,96.76,34.18Z"/></g><path class="cls-17" d="M83.52,206.82S79.35,122.73,0,92.6c41.76,37.66,67.75,64,74.24,114.22Z"/><path class="cls-18" d="M57.58,206.82s6.69-80.89-35.31-145.6c14,39.82,30.44,53.51,28.61,145.6Z"/><path class="cls-19" d="M91,207s-12.9-76.11,68-137c-27,37.47-58.6,50.35-55.08,137Z"/><path class="cls-20" d="M84.51,206.82S59,150.69,59,127.66c3.2,10.08,28.74,79.16,28.74,79.16h-3.2"/><path class="cls-21" d="M64,206.82s18.31-75.24,5.63-80.33c9.86,16.27-2.81,44.74-4.22,58s0,17.29-7.05,22.37h8.46s18.31-29.49,18.31-40.67c5.63,8.13-16.91,40.67-16.91,40.67"/><path class="cls-22" d="M54.64,206.82s22.53-46.77,18.31-60c1.41,16.27-21.13,60-21.13,60Z"/><path class="cls-23" d="M84.11,206.82s17-44,13.78-56.43C99,165.7,82,206.82,82,206.82Z"/><path class="cls-24" d="M85.17,206.82s17-36.34,21.21-30.6c-4.24,0-11.67,14.34-11.67,14.34l-8.48,16.26Z"/><path class="cls-25" d="M67.05,206.82s21.41-55.33,20.44-57.27C89.43,153.43,68,206.82,68,206.82Z"/><path class="cls-26" d="M92.32,206.46s-25.54-56.14-25.54-79.17c3.19,10.08,28.73,79.17,28.73,79.17H92.32"/><path class="cls-27" d="M85.86,206.46s-17-44-13.79-56.43C71,165.33,88,206.46,88,206.46Z"/><path class="cls-28" d="M71,206.82s27.84-69,32-69,7,7.53,13.92,17.57c-1.39-1.25-12.53-15.06-13.92-13.81s-26.45,65.27-26.45,65.27Z"/></g></g></g></g></svg>
