<svg xmlns="http://www.w3.org/2000/svg" viewBox="0 0 144.03 187.22"><defs><style>.cls-1{fill:#cff;}.cls-2{fill:#363;}.cls-3{fill:#033;}.cls-4{fill:#335b40;}</style></defs><g id="Layer_2" data-name="Layer 2"><g id="rocks"><g id="rock_1_kryptonite" data-name="rock 1 kryptonite"><path class="cls-1" d="M51,79.22l-1.54-.44S25,75.22,23,70.22s-6-23-6-26,13-34,14-34,35-12,39-10,17,12,20,14,26,22,26,24-16,26-16,26l-19,11Z"/><path class="cls-2" d="M50,164.22l2-85s-22-7-26-11-8-26-8-26-5,14-5,17-13,70-13,70l2,29,11,12,19,11,9,6,4-4,3-5Z"/><path class="cls-3" d="M116,178.22s29-16,28-23-28-117-28-117l-16,26-19,11-30,4-2,85-2,14-3,5-3.56,3.56Z"/><polygon class="cls-4" points="51 79.22 81 75.22 94.27 180.69 40 187.22 47 178.22 51 79.22"/></g></g></g></svg>
