<svg xmlns="http://www.w3.org/2000/svg" viewBox="0 0 177 112.1"><defs><style>.cls-1{fill:#666;}.cls-2{fill:#333;}.cls-3{fill:#1a1a1a;}</style></defs><g id="Layer_2" data-name="Layer 2"><g id="rocks"><g id="rock_3_purple_copy" data-name="rock 3 purple copy"><g id="lil_rock_2_copy_3" data-name="lil rock 2 copy 3"><polygon class="cls-1" points="114.31 32.7 89.73 60.72 46.71 46.71 22.13 32.7 46.71 4.67 89.73 0 114.31 32.7"/><polygon class="cls-2" points="22.13 84.08 22.13 32.7 46.71 46.71 89.73 60.72 89.73 93.42 22.13 84.08"/><polygon class="cls-3" points="89.73 93.42 132.75 70.06 114.31 32.7 89.73 60.72 89.73 93.42"/><polygon class="cls-1" points="167.17 67.26 154.06 82.21 131.11 74.73 118 67.26 131.11 52.31 154.06 49.82 167.17 67.26"/><polygon class="cls-2" points="118 94.66 118 67.26 131.11 74.73 154.06 82.21 154.06 99.64 118 94.66"/><polygon class="cls-3" points="154.06 99.64 177 87.19 167.17 67.26 154.06 82.21 154.06 99.64"/><polygon class="cls-1" points="55.31 83.76 40.56 96.84 14.75 90.3 0 83.76 14.75 70.69 40.56 68.51 55.31 83.76"/><polygon class="cls-2" points="0 107.74 0 83.76 14.75 90.3 40.56 96.84 40.56 112.1 0 107.74"/><polygon class="cls-3" points="40.56 112.1 66.38 101.2 55.31 83.76 40.56 96.84 40.56 112.1"/></g><g id="lil_rock_1_copy_3" data-name="lil rock 1 copy 3"><path class="cls-1" d="M75.92,51.65s9.54-8.06,14.32-8.06c19.08,0,38.17,12.09,42.94,20.15S114.1,83.89,114.1,83.89L66.38,75.83Z"/><polygon class="cls-3" points="147.5 104.04 133.18 63.74 114.1 83.89 114.1 112.1 147.5 104.04"/><polygon class="cls-2" points="66.38 112.1 66.38 75.83 114.1 83.89 114.1 112.1 66.38 112.1"/></g></g></g></g></svg>
