<svg xmlns="http://www.w3.org/2000/svg" viewBox="0 0 150 191.45"><defs><style>.cls-1{fill:#cea6e6;}.cls-2{fill:#362063;}.cls-3{fill:#62449b;}</style></defs><g id="Layer_2" data-name="Layer 2"><g id="rocks"><g id="rock_2_purple" data-name="rock 2 purple"><path class="cls-1" d="M100.67,101.33l33.22-55-7-39L92.17,0,56.38,15.33s-18.12,32-23.16,32-14.09,16-13.09,17,6,20,7.05,20,17.12,20,23.16,20S97.65,105.33,100.67,101.33Z"/><polygon class="cls-2" points="138.93 164.33 150 145.33 150 114.33 126.85 7.33 124.83 52.33 100.67 101.33 108.72 116.33 110.74 124.33 115.77 135.33 116.78 147.33 117.78 156.33 118.79 162.33 117.78 171.33 115.77 185.33 138.93 164.33"/><path class="cls-3" d="M8.05,175.33l-8-11v-15l4-10,6-29,2-28,8-18,53.36,32,27.18,5,18.12,19,2,21v24l-5,20S28.19,204.33,8.05,175.33Z"/></g></g></g></svg>
