<svg xmlns="http://www.w3.org/2000/svg" xmlns:xlink="http://www.w3.org/1999/xlink" viewBox="0 0 174.59 166.74"><defs><style>.cls-1{fill:url(#New_Gradient_Swatch_1);}.cls-2{fill:#fff;}</style><linearGradient id="New_Gradient_Swatch_1" x1="-14.22" y1="-5.2" x2="117.77" y2="109.57" gradientUnits="userSpaceOnUse"><stop offset="0" stop-color="#8fc239"/><stop offset="0.2" stop-color="#81b738"/><stop offset="0.72" stop-color="#5f9e34"/><stop offset="1" stop-color="#529433"/></linearGradient></defs><g id="Layer_2" data-name="Layer 2"><g id="Various"><g id="green_checkmark" data-name="green checkmark"><path class="cls-1" d="M.44,46.44c-1,3,0,66,0,69s47,50,50.5,50.5,65.5,1.5,72.5,0,50.5-46,50.75-50.75.75-63.75,0-68.75-49.75-46-50.75-46-70-1-72,0S1.44,43.44.44,46.44Z"/><path class="cls-2" d="M23.44,94.44c0,1,36,36,38,36s86-88,86-90-13-12-16-12-67,79-69,79-28-24-29-24S23.44,93.44,23.44,94.44Z"/></g></g></g></svg>
