<svg xmlns="http://www.w3.org/2000/svg" xmlns:xlink="http://www.w3.org/1999/xlink" viewBox="0 0 174.59 166.74"><defs><style>.cls-1{fill:url(#linear-gradient);}.cls-2{fill:#fff;}</style><linearGradient id="linear-gradient" x1="-14.22" y1="-5.2" x2="117.77" y2="109.57" gradientUnits="userSpaceOnUse"><stop offset="0" stop-color="#ff9b7f"/><stop offset="0.13" stop-color="#f67e67"/><stop offset="0.41" stop-color="#e24036"/><stop offset="0.59" stop-color="#d63119"/><stop offset="0.69" stop-color="#d1240c"/><stop offset="0.81" stop-color="#cc1700"/></linearGradient></defs><g id="Layer_2" data-name="Layer 2"><g id="Various"><g id="red_cross" data-name="red cross"><path class="cls-1" d="M.44,46.44c-1,3,0,66,0,69s47,50,50.5,50.5,65.5,1.5,72.5,0,50.5-46,50.75-50.75.75-63.75,0-68.75-49.75-46-50.75-46-70-1-72,0S1.44,43.44.44,46.44Z"/><polygon class="cls-2" points="37.44 117.56 125.92 34.53 135.44 46.78 45.61 128.44 37.44 117.56"/><polygon class="cls-2" points="124.56 128.44 37.44 44.06 46.97 34.53 135.44 120.28 124.56 128.44"/></g></g></g></svg>
