<svg id="green_pond" data-name="green pond" xmlns="http://www.w3.org/2000/svg" xmlns:xlink="http://www.w3.org/1999/xlink" viewBox="0 0 1280 277"><defs><style>.cls-1{fill:url(#New_Gradient_Swatch_1);}.cls-2{fill:#638b73;}.cls-3{fill:#7b6b67;}.cls-4,.cls-6{fill:#2a7944;}.cls-5{fill:url(#New_Gradient_Swatch_1-2);}.cls-6{opacity:0.68;}</style><linearGradient id="New_Gradient_Swatch_1" x1="1447.18" y1="335.42" x2="979.72" y2="121.29" gradientUnits="userSpaceOnUse"><stop offset="0" stop-color="#8cc63f"/><stop offset="0.11" stop-color="#83c444"/><stop offset="0.3" stop-color="#69c050"/><stop offset="0.55" stop-color="#40ba64"/><stop offset="0.7" stop-color="#22b573"/><stop offset="1" stop-color="#75b54a"/></linearGradient><linearGradient id="New_Gradient_Swatch_1-2" x1="-27" y1="161.17" x2="864.15" y2="161.17" xlink:href="#New_Gradient_Swatch_1"/></defs><g id="Pond_copy_2" data-name="Pond copy 2"><path class="cls-1" d="M1374.36,242.8c-.09,1.07-.21,2.13-.36,3.2s-.36,2.33-.6,3.51C1363,300.06,1277.14,364.84,1240,358c-38-7-175-69-197-80s-13-15-30-15a61.31,61.31,0,0,0-15,2H987s-10-7-11-14-16-23-30-22-25,2-31,0c-4-1.33-24.39-15.51-50.85-21.89l-1.78-23.83-1-13.89-.89-11.89A52,52,0,0,1,867,157c18,0,46,11,55-10s31-26,31-26,6,1,18-3,43-9,43-9,26-3,31-2,17-9,17-9,29,2,36,1,41-1,45,1,26,1,26,1-1-2,5-2-5,2,29,3,54,6,54,6,12,5,41,20C1326.39,142.69,1378.75,192.84,1374.36,242.8Z"/><path class="cls-2" d="M1374.66,242.83c-.14,1.17-.24,2.34-.41,3.51s-.37,2.34-.61,3.49a69.6,69.6,0,0,1-1.87,6.83,86.5,86.5,0,0,1-5.54,13,148.82,148.82,0,0,1-15.67,23.48,230.21,230.21,0,0,1-40.84,39,209.2,209.2,0,0,1-23.79,15.45c-4.18,2.24-8.4,4.43-12.8,6.27a97.13,97.13,0,0,1-13.55,4.78,53.6,53.6,0,0,1-14.47,2.08c-.62,0-1.24,0-1.87,0l-1.88-.21c-.62-.07-1.26-.13-1.88-.22l-1.75-.4c-2.34-.54-4.7-1-7-1.61-9.15-2.57-18.17-5.43-27-8.67-4.44-1.6-8.88-3.18-13.27-4.89s-8.82-3.31-13.18-5.07l-13.1-5.27L1151.09,329q-26-10.95-51.69-22.62c-17.12-7.79-34.19-15.68-51.12-23.91l-6.33-3.17-3.15-1.69c-1-.59-2.06-1.22-3.09-1.83s-2-1.32-3-2-2-1.4-2.89-2.2c-1.89-1.49-3.62-3.31-5.24-4.74a8,8,0,0,0-2.62-1.55,13.35,13.35,0,0,0-3.14-.71,57.36,57.36,0,0,0-6.85-.33,59.59,59.59,0,0,0-13.64,1.84l-.18,0H998L987,266h-.35l-.25-.19a43.91,43.91,0,0,1-6.82-6.24,24.9,24.9,0,0,1-2.77-3.79,13.26,13.26,0,0,1-1.72-4.52c-.5-2.65-2.15-5.2-3.92-7.49a44.26,44.26,0,0,0-6.15-6.32,37.87,37.87,0,0,0-7.33-4.85,21.06,21.06,0,0,0-2-.92l-2-.77-2.1-.56a5.5,5.5,0,0,0-1.06-.2l-1.07-.15a9.73,9.73,0,0,0-1.07-.12h-1.07a20.51,20.51,0,0,0-2.19.07l-4.5.33c-3,.22-6,.44-9,.6s-6.05.24-9.11.15a37.93,37.93,0,0,1-4.6-.4,14.9,14.9,0,0,1-4.6-1.33c-2.76-1.4-5.33-2.9-8-4.32s-5.28-2.82-8-4.17a155.52,155.52,0,0,0-33.51-12.37l-1-.23-.09-1-4.17-49.57-.15-1.76,1.79-.25a53.6,53.6,0,0,1,7-.58c2.36,0,4.68.14,7,.35,4.58.43,9.07,1.08,13.53,1.55a84,84,0,0,0,13.19.59c4.29-.23,8.5-1.09,11.89-3.17a16.15,16.15,0,0,0,4.39-3.93l.86-1.21.76-1.31c.48-.92.83-1.75,1.4-2.9a42.94,42.94,0,0,1,7.89-12,51.28,51.28,0,0,1,11.07-9c1-.61,2.07-1.18,3.11-1.74s2.13-1.08,3.23-1.54,2.2-.92,3.32-1.33,2.22-.76,3.55-1.09l1.05,0,.23,0,.36,0c.23,0,.5,0,.75,0,.52,0,1.05,0,1.59,0,1.07-.06,2.17-.19,3.26-.35a56.71,56.71,0,0,0,6.57-1.43c1.09-.31,2.18-.63,3.26-1l3.46-1.08c2.33-.66,4.65-1.27,7-1.81,9.28-2.19,18.56-3.94,27.87-5.6l3.49-.61,1.75-.3c.28,0,.7-.12,1-.15l.89-.1,7.06-.76c4.71-.48,9.42-.93,14.2-1.21a71.64,71.64,0,0,1,7.4-.17l.5,0,.58.07.59.07.29,0c.13,0,0,0,.09,0a2.11,2.11,0,0,0,.72-.06,12.32,12.32,0,0,0,2.6-.93,59.84,59.84,0,0,0,11-7.41l1-.8,1.26.08c8.87.53,17.8,1.05,26.62,1.21,2.2,0,4.41,0,6.5-.06.53,0,1.05,0,1.5-.1l.71-.07.93-.1c.63-.08,1.22-.13,1.79-.16s1.17-.09,1.74-.11c4.56-.24,9.06-.3,13.57-.32s9,0,13.53.2c2.26.09,4.53.2,6.82.37,1.15.11,2.28.18,3.48.34.6.08,1.15.11,1.81.25l1,.17.48.1.66.2.66.23c.19.07.51.2.49.18a1,1,0,0,1,.29.1c.41.08.79.19,1.28.26,1,.14,2,.24,3.07.33,2.13.15,4.32.21,6.51.24,4.39,0,8.85,0,13.24-.19l-2.62,4.46-.1-.23-.05-.13-.08-.24c0-.14-.07-.27-.1-.41a4.57,4.57,0,0,1-.05-.82,4,4,0,0,1,.37-1.53,4.43,4.43,0,0,1,.35-.61,4.54,4.54,0,0,1,.39-.48,5,5,0,0,1,.77-.66,6.83,6.83,0,0,1,2.34-1,16.28,16.28,0,0,1,3.43-.36c.53,0,1.09,0,1.66,0l.53,0a3.6,3.6,0,0,1,.59.1,7.51,7.51,0,0,1,.78.21,5.84,5.84,0,0,1,.83.41l.23.14.11.07h0s0,.05.07.05a1.85,1.85,0,0,0,.24.09,9.91,9.91,0,0,0,1,.26,52.52,52.52,0,0,0,5.22.68c1.82.16,3.65.31,5.5.41,3.69.23,7.41.39,11.13.54s7.52.3,11.27.55c7.53.47,15,1.12,22.53,2.1a222.51,222.51,0,0,1,22.4,4l.19.05.16.07c3.73,1.64,7.27,3.36,10.85,5.13s7.11,3.55,10.64,5.36c7.07,3.65,14.06,7.29,21.08,11.14a138.62,138.62,0,0,1,19.59,13.9,192.8,192.8,0,0,1,17.31,16.5,167.8,167.8,0,0,1,27.34,38.95,118.8,118.8,0,0,1,4.65,11,96.15,96.15,0,0,1,3.46,11.41A77.47,77.47,0,0,1,1374.66,242.83Zm-.6-.06a76.67,76.67,0,0,0-1.93-23.48,102.86,102.86,0,0,0-8.29-22.11,144.29,144.29,0,0,0-12.54-20,180,180,0,0,0-15.42-17.9,190.08,190.08,0,0,0-17.53-15.81,131.59,131.59,0,0,0-19.51-13c-7-3.56-14.15-7-21.27-10.42s-14.35-6.74-21.51-9.76l.35.12a217.22,217.22,0,0,0-21.86-3.37c-7.38-.78-14.78-1.38-22.2-1.72-3.71-.2-7.4-.27-11.15-.39s-7.51-.2-11.29-.42c-1.89-.09-3.79-.23-5.7-.39a57.56,57.56,0,0,1-5.91-.75,15.59,15.59,0,0,1-1.73-.46,7.78,7.78,0,0,1-1.06-.44,4.6,4.6,0,0,1-.53-.31l-.24-.15s0,0,.07,0l.14,0,.09,0H1175l-.17,0c-.36,0-.74,0-1.15,0a9.78,9.78,0,0,0-2.14.21c-.22,0-.46.16-.25,0a1.67,1.67,0,0,0,.58-.72,2.21,2.21,0,0,0,.2-.85,1.86,1.86,0,0,0,0-.47,1.29,1.29,0,0,0-.06-.25l0-.15,0-.09-.09-.19-2.62,4.46c-4.54.2-9,.31-13.58.29-2.28,0-4.56-.07-6.89-.22-1.17-.09-2.35-.19-3.6-.37-.62-.09-1.32-.25-2-.4-.43-.14-.86-.3-1.29-.47-.28-.12-.23-.07-.3-.09a.32.32,0,0,1-.14,0l-.14-.05-.34-.06-.69-.12c-.44-.09-1-.13-1.51-.2-1-.13-2.13-.19-3.2-.28-2.17-.15-4.37-.25-6.58-.32-4.41-.15-8.85-.21-13.29-.2s-8.88.07-13.24.29c-.55,0-1.07.07-1.61.11s-1.06.07-1.54.13l-1.7.18c-.66.07-1.26.1-1.85.12-2.37.11-4.63.09-6.91.06-9-.18-18-.67-27-1.3l2.24-.72c-2,1.58-3.87,3-5.92,4.39a47,47,0,0,1-6.54,3.79,17.65,17.65,0,0,1-4.07,1.37,8.06,8.06,0,0,1-2.78.09l-.35,0h-.15l-.29,0-.29,0-.39,0c-2.07-.09-4.42,0-6.72.11-4.62.25-9.29.65-14,1.09l-7,.7-.87.09-.73.1-1.73.29-3.47.57c-9.25,1.58-18.5,3.25-27.58,5.32q-3.41.78-6.71,1.69l-3.29,1c-1.16.38-2.33.71-3.51,1a64.58,64.58,0,0,1-7.24,1.52c-1.24.16-2.49.31-3.76.37-.64,0-1.29,0-1.95,0-.33,0-.66,0-1,0l-.53,0-.64-.07,1.05,0c-.87.22-2,.56-3,.9s-2,.74-3,1.17-1.95.89-2.93,1.34-1.9,1-2.83,1.54a45.81,45.81,0,0,0-10,8,38.1,38.1,0,0,0-7.15,10.52c-.46.88-1,2.13-1.6,3.2l-1,1.62L921,153.43a21,21,0,0,1-5.74,5,30.06,30.06,0,0,1-14.12,3.65,83.11,83.11,0,0,1-13.92-.84c-4.54-.58-9-1.32-13.44-1.82-2.21-.25-4.41-.44-6.58-.47a48.37,48.37,0,0,0-6.52.41l1.64-2L865.56,207l-1.08-1.26a161,161,0,0,1,33.85,13.14c2.68,1.39,5.35,2.81,8,4.28s5.26,3,7.85,4.36a13.14,13.14,0,0,0,4,1.2,36.75,36.75,0,0,0,4.37.42c3,.12,6,0,8.93-.12s6-.35,9-.56l4.5-.31a19.58,19.58,0,0,1,2.32-.07h1.18a9.1,9.1,0,0,1,1.17.13,18.12,18.12,0,0,1,2.32.39l2.26.61,2.18.82c.73.27,1.4.66,2.1,1a40.71,40.71,0,0,1,7.69,5.06,44.52,44.52,0,0,1,6.45,6.57,27.75,27.75,0,0,1,2.62,3.85A14.36,14.36,0,0,1,977,251a11.4,11.4,0,0,0,1.51,3.84,21.92,21.92,0,0,0,2.57,3.47,40.65,40.65,0,0,0,6.53,5.84L987,264l11-.07-.31,0a62.83,62.83,0,0,1,14.2-2.12,58.24,58.24,0,0,1,7.22.19,15.79,15.79,0,0,1,3.73.77,10.65,10.65,0,0,1,3.45,1.94c1.94,1.63,3.48,3.22,5.31,4.59.88.73,1.85,1.34,2.77,2s1.92,1.24,2.91,1.82c4,2.35,8.21,4.27,12.45,6.26,17,7.82,34.26,15.35,51.51,22.76,34.54,14.73,69.12,29.43,104.21,42.54,8.78,3.24,17.61,6.3,26.51,9,2.23.59,4.46,1.1,6.69,1.66l1.67.41c.54.09,1.08.14,1.62.21l1.61.22c.54.06,1.1,0,1.65.06a50,50,0,0,0,13.39-1.56,92.85,92.85,0,0,0,13.13-4.22c4.33-1.66,8.51-3.69,12.68-5.76a204.55,204.55,0,0,0,23.86-14.58,236,236,0,0,0,21.93-17.48,191.69,191.69,0,0,0,19.53-20.16,138.41,138.41,0,0,0,15.87-23.13,86.12,86.12,0,0,0,5.55-12.87,69,69,0,0,0,1.89-6.75c.23-1.14.41-2.3.61-3.45S1373.92,243.93,1374.06,242.77Z"/><path id="dirt_layer" data-name="dirt layer" class="cls-3" d="M1374.36,242.8C1370.51,197,1324.12,153.51,1298,140c-29-15-41-20-41-20s-20-5-54-6-23-3-29-3-5,2-5,2-22,1-26-1-38-2-45-1-36-1-36-1-12,10-17,9-31,2-31,2-31,5-43,9-18,3-18,3-22,5-31,26-37,10-55,10a48.82,48.82,0,0,0-5.66.39l-.89-11.89A52,52,0,0,1,867,157c18,0,46,11,55-10s31-26,31-26,6,1,18-3,43-9,43-9,26-3,31-2,17-9,17-9,29,2,36,1,41-1,45,1,26,1,26,1-1-2,5-2-5,2,29,3,54,6,54,6,12,5,41,20C1326.39,142.69,1378.75,192.84,1374.36,242.8Z"/><path id="water_shade" data-name="water shade" class="cls-4" d="M1374.36,242.8c-.09,1.07-.21,2.13-.36,3.2s-.36,2.33-.6,3.51c-7.77-43-50.68-82.72-75.4-95.51-29-15-41-20-41-20s-20-5-54-6-23-3-29-3-5,2-5,2-22,1-26-1-38-2-45-1-36-1-36-1-12,10-17,9-31,2-31,2-31,5-43,9-18,3-18,3-22,5-31,26-37,10-55,10a44.47,44.47,0,0,0-4.63.28l-1-13.89A48.82,48.82,0,0,1,867,169c18,0,46,11,55-10s31-26,31-26,6,1,18-3,43-9,43-9,26-3,31-2,17-9,17-9,29,2,36,1,41-1,45,1,26,1,26,1-1-2,5-2-5,2,29,3,54,6,54,6,12,5,41,20C1324.12,153.51,1370.51,197,1374.36,242.8Z"/></g><g id="River_copy_2" data-name="River copy 2"><g id="River"><path class="cls-5" d="M864.15,207.11l-.68-.16c-1.35-.33-2.72-.63-4.1-.9A93,93,0,0,0,821,206c-7,5-23,22-40,20s-25-1-44-16-51-42-51-42l-33-30s-28-24-42-23-22,14-29,31-23,69-35,84c-3,6-18,29-35,29s-31-16-31-16-40-31-59-78-35-71-35-71-8-16-27-6c-18,12-22,22-36,29-12,4-11,7-45-3s-75-24-75-24-43.12-15.25-62,6c-16,18-46,56-46,56L46,216S19,249-1,269c-16,16-23,4.51-25.21-.75A18.56,18.56,0,0,1-27,266l4-34L1,222S105,66,145,59c40-6,91,16,91,16l31,10s40,14,57-3a427.13,427.13,0,0,1,35-31s23-16,36,5,56,101,56,101,28,45,49,44,41-31,49-59,17-49,21-54,21-27,52-4,92,73,92,73,37,30,63,23c21.44-5.77,56.48-17.66,78.2-21.66q2.79-.51,5.25-.84Z"/><path class="cls-2" d="M864.25,207.23a7.64,7.64,0,0,1-.79-.13l-.67-.14-1.33-.29c-.88-.19-1.76-.41-2.66-.57-1.78-.33-3.56-.65-5.36-.89a97.92,97.92,0,0,0-10.82-1A86,86,0,0,0,821,206.19l.07,0c-3.23,2.41-6.24,5.14-9.44,7.65a85.31,85.31,0,0,1-10,7,42.89,42.89,0,0,1-11.21,4.77l-3,.59c-1,.1-2,.16-3.05.25s-2-.09-3.07-.13-2-.21-3-.31c-4-.44-8.07-.76-12.09-1.4a49.54,49.54,0,0,1-11.75-3.26c-7.53-3.2-14.07-8.19-20.4-13.23-12.68-10.12-25.16-20.46-37.62-30.84l-9.33-7.8c-1.58-1.29-3-2.7-4.55-4l-4.5-4.09-18-16.34-4.51-4.09c-1.51-1.36-3-2.74-4.55-4q-4.71-3.82-9.64-7.37c-3.29-2.35-6.65-4.61-10.12-6.68a73,73,0,0,0-10.78-5.43c-3.73-1.44-7.71-2.49-11.64-1.65a22.44,22.44,0,0,0-10.63,5.08,38.58,38.58,0,0,0-7.7,9.16,87.81,87.81,0,0,0-5.66,10.68c-1.68,3.67-3.19,7.42-4.59,11.22s-2.77,7.61-4.13,11.43c-2.72,7.63-5.42,15.28-8.24,22.89s-5.72,15.18-8.93,22.64c-1.61,3.73-3.29,7.44-5.15,11.06l-1.41,2.71c-.47.9-1,1.76-1.53,2.65a54.94,54.94,0,0,1-3.42,5.12l.07-.11a69.38,69.38,0,0,1-5.61,8.86,81.54,81.54,0,0,1-6.71,8,55.27,55.27,0,0,1-7.9,6.9,32,32,0,0,1-9.44,4.71,20.35,20.35,0,0,1-5.27.84c-.89.06-1.77-.07-2.65-.09-.45,0-.89,0-1.33-.09l-1.31-.22a36.41,36.41,0,0,1-10-3.22,54.15,54.15,0,0,1-8.93-5.51,58.45,58.45,0,0,1-7.82-7l.09.08a192.76,192.76,0,0,1-16.46-15.08C459,223.1,454,217.57,449.3,211.77a198.39,198.39,0,0,1-24-37.54c-1.52-3.39-3-6.81-4.5-10.22s-2.8-6.86-4.29-10.25c-2.88-6.83-6-13.56-9.11-20.27s-6.49-13.31-10-19.85-7.11-13-11.09-19.19v0l0-.07a18.19,18.19,0,0,0-4.82-5.53,15.72,15.72,0,0,0-6.67-3c-.6-.13-1.23-.13-1.84-.21a8.09,8.09,0,0,0-1.84,0,12.7,12.7,0,0,0-1.85.14l-1.84.34a10.25,10.25,0,0,0-1.8.51l-1.79.58-3.45,1.57.08,0a114.32,114.32,0,0,0-9.21,6.89c-2.95,2.45-5.74,5.08-8.5,7.78s-5.52,5.44-8.54,7.94a50.31,50.31,0,0,1-9.83,6.47l-.05,0-.06,0c-2.2.73-4.35,1.59-6.6,2.38a23.08,23.08,0,0,1-7.11,1.39,37,37,0,0,1-7.16-.56c-1.17-.17-2.33-.4-3.49-.64s-2.31-.49-3.45-.76c-4.59-1.06-9.12-2.31-13.63-3.6s-9-2.62-13.48-4c-17.94-5.44-35.77-11.19-53.56-17.09l-13.3-4.46A113.87,113.87,0,0,0,189,87.2c-9.12-1.6-18.54-2.22-27.57-.46a43.93,43.93,0,0,0-6.6,1.85,35,35,0,0,0-6.1,3,27.67,27.67,0,0,0-5.22,4.3c-.8.77-1.56,1.7-2.33,2.57l-2.3,2.64c-6.09,7.09-12.06,14.3-18,21.55q-17.75,21.78-35,44L51.34,211,47,216.5l-4.49,5.43q-4.5,5.4-9.06,10.75c-6.09,7.13-12.24,14.2-18.55,21.15-3.16,3.47-6.32,6.93-9.58,10.31-1.61,1.71-3.26,3.38-4.91,5.06A48,48,0,0,1-4.91,274a23.93,23.93,0,0,1-6.43,3.6,11.55,11.55,0,0,1-7.66.17A12.69,12.69,0,0,1-24.94,273a22.52,22.52,0,0,1-3.21-6.7l-.06-.2,0-.24,4-34,.09-.71.65-.27,24-10-.55.45q21.9-32.52,45.42-63.85c15.72-20.86,31.92-41.39,49.54-60.75,4.41-4.83,8.93-9.58,13.61-14.17a193,193,0,0,1,14.68-13.15c5.18-4.07,10.6-8,17-10.49.78-.32,1.62-.55,2.44-.83s1.73-.44,2.55-.54l5-.53,2.48-.26,2.48-.07,4.95-.15a179,179,0,0,1,39.08,5.09,257.06,257.06,0,0,1,37.48,12l-.13,0,24.84,8,6.21,2c2,.68,4.08,1.27,6.15,1.82A116,116,0,0,0,286.27,88a84.18,84.18,0,0,0,12.76.92,58.17,58.17,0,0,0,6.34-.41,42.37,42.37,0,0,0,6.17-1.23,26.1,26.1,0,0,0,10.77-5.76c.75-.64,1.55-1.49,2.32-2.23L327,77q2.36-2.28,4.75-4.51,9.57-8.92,19.67-17.26,2.52-2.08,5.08-4.13l1.28-1,.36-.28.42-.28.73-.45c1-.59,2-1.13,3-1.63a35,35,0,0,1,13-3.71,23.47,23.47,0,0,1,6.92.57,20.26,20.26,0,0,1,6.42,2.78,24,24,0,0,1,5.15,4.64,42.18,42.18,0,0,1,3.78,5.58c4.5,7.49,8.76,15.07,13,22.65q12.75,22.78,25.18,45.71l12.41,23,3.09,5.75.76,1.42c.12.22.25.48.36.64l.43.68,1.78,2.7q3.6,5.37,7.54,10.52a139.06,139.06,0,0,0,17.29,19.11,53.77,53.77,0,0,0,10.3,7.4,24.46,24.46,0,0,0,5.74,2.28,15.39,15.39,0,0,0,6,.39,26.62,26.62,0,0,0,6-1.47,36.53,36.53,0,0,0,5.6-2.79,50.15,50.15,0,0,0,5.13-3.7,61.81,61.81,0,0,0,4.67-4.35,94.53,94.53,0,0,0,14.89-20.87,124.4,124.4,0,0,0,9.84-23.82c2.41-8.36,5.05-16.69,8-24.91a226.39,226.39,0,0,1,10-24.25,40.19,40.19,0,0,1,3.42-5.8,49.62,49.62,0,0,1,4.38-5,34.94,34.94,0,0,1,11-7.61A29.35,29.35,0,0,1,590.79,73a31.27,31.27,0,0,1,6.76-.35,35.23,35.23,0,0,1,6.64,1.07c1.08.32,2.16.6,3.2,1l1.58.57,1.53.66a61.24,61.24,0,0,1,11.43,6.7c3.52,2.6,7,5.23,10.43,7.88,13.8,10.61,27.39,21.47,40.95,32.36s27.05,21.88,40.49,32.92c3.32,2.72,6.88,5.22,10.48,7.62s7.31,4.62,11.12,6.67a107.82,107.82,0,0,0,11.71,5.53,73.45,73.45,0,0,0,12.33,3.79,43.54,43.54,0,0,0,12.77.83,36.45,36.45,0,0,0,6.28-1.28l6.27-1.74c8.36-2.39,16.68-4.91,25-7.37s16.69-4.9,25.1-7.14a221.39,221.39,0,0,1,25.53-5.52l.34-.05,0,.35Zm-.2-.24-3.92-49.47.36.3a217.35,217.35,0,0,0-25.39,5.68c-8.38,2.29-16.71,4.77-25,7.3s-16.63,5.1-25,7.54l-6.28,1.8a38.49,38.49,0,0,1-6.47,1.35,44.41,44.41,0,0,1-13.17-.76,72.46,72.46,0,0,1-12.59-3.79,109.73,109.73,0,0,1-11.89-5.54c-3.86-2.06-7.61-4.31-11.27-6.7s-7.23-4.89-10.65-7.66q-20.22-16.47-40.62-32.72c-13.61-10.82-27.24-21.62-41.06-32.14-3.45-2.63-6.93-5.25-10.42-7.8a59,59,0,0,0-11-6.42l-1.47-.62-1.49-.53c-1-.39-2-.63-3-.93a32.11,32.11,0,0,0-6.21-1,29.6,29.6,0,0,0-6.24.34,27.26,27.26,0,0,0-6,1.79,32.67,32.67,0,0,0-10.28,7.14A47.84,47.84,0,0,0,570.76,89a37.3,37.3,0,0,0-3.17,5.44,225.37,225.37,0,0,0-9.8,24c-2.86,8.18-5.45,16.44-7.83,24.8a127.13,127.13,0,0,1-10,24.34,108.21,108.21,0,0,1-6.89,11.25,83.59,83.59,0,0,1-8.37,10.25,65.37,65.37,0,0,1-4.86,4.55,51.37,51.37,0,0,1-5.43,3.93,38.52,38.52,0,0,1-6.06,3,28.76,28.76,0,0,1-6.63,1.66l-1.72.15-1.78,0a16.73,16.73,0,0,1-1.75-.21,10.8,10.8,0,0,1-1.71-.35,27,27,0,0,1-6.36-2.5,56.47,56.47,0,0,1-10.86-7.75,141.28,141.28,0,0,1-17.72-19.46q-4-5.22-7.68-10.65l-1.81-2.75-.45-.69c-.19-.3-.3-.53-.44-.78l-.79-1.45-3.1-5.74L433.11,127.1Q420.65,104.2,408,81.41c-4.26-7.56-8.52-15.14-13-22.56a39.94,39.94,0,0,0-3.51-5.22,21.32,21.32,0,0,0-4.5-4.05,18.46,18.46,0,0,0-11.51-2.86,32,32,0,0,0-11.9,3.4c-.94.47-1.86,1-2.75,1.5l-.65.41-.27.17-.28.23-1.27,1c-1.69,1.35-3.36,2.72-5,4.1q-10,8.3-19.54,17.14-2.37,2.22-4.71,4.47l-2.32,2.27c-.79.77-1.48,1.51-2.38,2.3a29,29,0,0,1-12,6.44,45.49,45.49,0,0,1-6.61,1.32,62.22,62.22,0,0,1-6.67.43,85.78,85.78,0,0,1-13.23-1,118,118,0,0,1-12.93-2.65c-2.13-.56-4.25-1.17-6.35-1.88l-6.21-2-24.81-8,0,0-.08,0a253.33,253.33,0,0,0-37-11.87c-12.62-2.93-25.49-5-38.39-5.07l-4.83.14-2.41.06-2.39.25-4.78.5a22,22,0,0,0-2.23.47c-.73.25-1.47.44-2.2.73-5.82,2.28-11.15,6.06-16.2,10A192.49,192.49,0,0,0,110.5,84.54c-4.65,4.54-9.14,9.24-13.53,14C79.41,117.79,63.21,138.25,47.48,159S16.62,201.1,2,222.69l-.21.31-.34.14-24,10,.74-1-4,34,0-.44A20.05,20.05,0,0,0-23,271.62a10.35,10.35,0,0,0,4.81,3.92,9.12,9.12,0,0,0,6.11-.17,21.36,21.36,0,0,0,5.78-3.24,47.6,47.6,0,0,0,5.11-4.57c1.63-1.66,3.28-3.32,4.88-5,3.24-3.37,6.4-6.81,9.55-10.26,6.3-6.92,12.45-14,18.54-21.07q4.56-5.34,9.06-10.72l4.47-5.39,4.32-5.53,34.63-44.25q17.22-22.19,35.05-43.94c5.94-7.25,11.92-14.47,18-21.57l2.32-2.65c.78-.88,1.51-1.77,2.39-2.64a29.79,29.79,0,0,1,5.6-4.59,37.33,37.33,0,0,1,6.46-3.2A44.13,44.13,0,0,1,161,84.82c9.4-1.82,19-1.15,28.29.49a112.12,112.12,0,0,1,13.75,3.38l13.33,4.48c17.76,5.93,35.58,11.7,53.48,17.16,4.48,1.36,9,2.7,13.45,4s9,2.54,13.54,3.6c1.13.27,2.26.54,3.4.75s2.28.47,3.42.63a35.79,35.79,0,0,0,6.82.55c4.52,0,8.71-2.2,13.23-3.67l-.11,0a49.29,49.29,0,0,0,9.5-6.24c2.95-2.43,5.68-5.14,8.45-7.84s5.61-5.37,8.61-7.85,6.14-4.81,9.36-7l0,0h0c1.2-.55,2.4-1.12,3.61-1.65l1.9-.62a12.81,12.81,0,0,1,1.93-.53l2-.37a16.68,16.68,0,0,1,2-.15,10.49,10.49,0,0,1,2,0c.67.08,1.36.1,2,.24a17.36,17.36,0,0,1,7.35,3.32c.54.4,1,.87,1.54,1.31s1,.94,1.4,1.46a18.21,18.21,0,0,1,2.34,3.33l-.05-.09c4,6.3,7.64,12.79,11.14,19.35s6.8,13.21,10,19.93,6.23,13.49,9.11,20.33c1.49,3.41,2.86,6.86,4.29,10.29s2.93,6.77,4.44,10.15a196.8,196.8,0,0,0,23.77,37.3c4.62,5.78,9.57,11.28,14.72,16.59a190.9,190.9,0,0,0,16.3,15l.05,0,0,0a56.5,56.5,0,0,0,7.61,6.87,52.88,52.88,0,0,0,8.71,5.4,35.14,35.14,0,0,0,9.68,3.13l1.26.21c.42.06.84.06,1.27.09.84,0,1.69.15,2.53.09a18.75,18.75,0,0,0,5-.79,30.49,30.49,0,0,0,9.08-4.51,54.45,54.45,0,0,0,7.74-6.74,78.3,78.3,0,0,0,6.63-7.9,69.35,69.35,0,0,0,5.52-8.67l0,0,0-.07a54.63,54.63,0,0,0,3.33-5c.51-.87,1.06-1.71,1.52-2.61l1.4-2.68c1.85-3.58,3.52-7.27,5.14-11,3.21-7.43,6.12-15,9-22.58s5.54-15.22,8.27-22.86c1.37-3.81,2.73-7.63,4.16-11.43s2.94-7.58,4.64-11.28a88.42,88.42,0,0,1,5.74-10.78,39.72,39.72,0,0,1,7.9-9.35,23.36,23.36,0,0,1,11.06-5.26l1.54-.19.77-.1h.78a16.14,16.14,0,0,1,3.11.28,32.51,32.51,0,0,1,5.9,1.74,74.29,74.29,0,0,1,10.9,5.52c3.49,2.09,6.86,4.37,10.16,6.73s6.52,4.85,9.66,7.42c1.6,1.27,3.08,2.68,4.57,4l4.5,4.1,18,16.37,4.49,4.1c1.51,1.35,3,2.76,4.54,4l9.31,7.82c12.43,10.4,24.9,20.77,37.55,30.9,6.31,5.05,12.8,10,20.25,13.19A48.59,48.59,0,0,0,766.31,224c4,.65,8,1,12.06,1.43,1,.1,2,.25,3,.31s2,.14,3,.13,2-.14,3-.24l3-.57a42.62,42.62,0,0,0,11.11-4.7,87,87,0,0,0,9.95-6.91c3.19-2.49,6.2-5.21,9.47-7.65l0,0h0a86.68,86.68,0,0,1,21.67-1.9,98.67,98.67,0,0,1,10.86,1c1.8.25,3.59.57,5.37.91.9.16,1.78.38,2.67.57l1.33.29.66.15A4.15,4.15,0,0,1,864.05,207Z"/></g><path id="Rivershade" class="cls-6" d="M864.15,207.11l-.46-.11-3.24-43.5q-2.46.33-5.25.84c-21.72,4-56.76,15.89-78.2,21.66-26,7-63-23-63-23s-61-50-92-73-48-1-52,4-13,26-21,54-28,58-49,59-49-44-49-44S408,83,395,62s-36-5-36-5a427.13,427.13,0,0,0-35,31c-17,17-57,3-57,3L236,81s-51-22-91-16C105,72,1,228,1,228l-24,10-3.48,29.56A16.09,16.09,0,0,1-27,266l4-34L1,222S105,66,145,59c40-6,91,16,91,16l31,10s40,14,57-3a427.13,427.13,0,0,1,35-31s23-16,36,5,56,101,56,101,28,45,49,44,41-31,49-59,17-49,21-54,21-27,52-4,92,73,92,73,37,30,63,23c21.44-5.77,56.48-17.66,78.2-21.66q2.79-.51,5.25-.84Z"/></g></svg>
