<svg xmlns="http://www.w3.org/2000/svg" xmlns:xlink="http://www.w3.org/1999/xlink" viewBox="0 0 124 113.89"><defs><style>.cls-1{fill:url(#New_Gradient_Swatch_3);}.cls-2{fill:url(#New_Gradient_Swatch_3-2);}.cls-3{fill:url(#New_Gradient_Swatch_3-3);}.cls-4{fill:url(#New_Gradient_Swatch_3-4);}.cls-5{fill:url(#New_Gradient_Swatch_3-5);}.cls-6{fill:url(#New_Gradient_Swatch_3-6);}.cls-7{fill:url(#New_Gradient_Swatch_3-7);}.cls-8{fill:url(#New_Gradient_Swatch_3-8);}.cls-9{fill:url(#New_Gradient_Swatch_3-9);}.cls-10{fill:url(#New_Gradient_Swatch_3-10);}.cls-11{fill:url(#New_Gradient_Swatch_3-11);}.cls-12{fill:url(#New_Gradient_Swatch_3-12);}.cls-13{fill:url(#New_Gradient_Swatch_3-13);}.cls-14{fill:url(#New_Gradient_Swatch_3-14);}.cls-15{fill:url(#New_Gradient_Swatch_3-15);}.cls-16{fill:url(#New_Gradient_Swatch_3-16);}.cls-17{fill:url(#New_Gradient_Swatch_3-17);}.cls-18{fill:url(#New_Gradient_Swatch_3-18);}.cls-19{fill:url(#New_Gradient_Swatch_3-19);}.cls-20{fill:url(#New_Gradient_Swatch_3-20);}.cls-21{fill:url(#New_Gradient_Swatch_3-21);}.cls-22{fill:url(#New_Gradient_Swatch_3-22);}.cls-23{fill:url(#New_Gradient_Swatch_3-23);}.cls-24{fill:url(#New_Gradient_Swatch_3-24);}.cls-25{fill:url(#New_Gradient_Swatch_3-25);}.cls-26{fill:url(#New_Gradient_Swatch_3-26);}.cls-27{fill:url(#New_Gradient_Swatch_3-27);}.cls-28{fill:url(#New_Gradient_Swatch_3-28);}.cls-29{fill:url(#New_Gradient_Swatch_3-29);}.cls-30{fill:url(#New_Gradient_Swatch_3-30);}.cls-31{fill:url(#New_Gradient_Swatch_3-31);}.cls-32{fill:url(#New_Gradient_Swatch_3-32);}</style><linearGradient id="New_Gradient_Swatch_3" x1="42" y1="74.39" x2="61.64" y2="74.39" gradientUnits="userSpaceOnUse"><stop offset="0" stop-color="#666"/><stop offset="0.33" stop-color="#494949"/><stop offset="0.76" stop-color="#272727"/><stop offset="1" stop-color="#1a1a1a"/></linearGradient><linearGradient id="New_Gradient_Swatch_3-2" x1="33" y1="84.39" x2="48.37" y2="84.39" xlink:href="#New_Gradient_Swatch_3"/><linearGradient id="New_Gradient_Swatch_3-3" x1="10" y1="81.53" x2="52" y2="81.53" xlink:href="#New_Gradient_Swatch_3"/><linearGradient id="New_Gradient_Swatch_3-4" x1="36" y1="97.57" x2="56" y2="97.57" xlink:href="#New_Gradient_Swatch_3"/><linearGradient id="New_Gradient_Swatch_3-5" x1="0" y1="91.97" x2="48.17" y2="91.97" xlink:href="#New_Gradient_Swatch_3"/><linearGradient id="New_Gradient_Swatch_3-6" x1="16.85" y1="85.56" x2="36.58" y2="85.56" xlink:href="#New_Gradient_Swatch_3"/><linearGradient id="New_Gradient_Swatch_3-7" x1="8.6" y1="70.39" x2="26.22" y2="70.39" xlink:href="#New_Gradient_Swatch_3"/><linearGradient id="New_Gradient_Swatch_3-8" x1="28.66" y1="84.55" x2="50" y2="84.55" xlink:href="#New_Gradient_Swatch_3"/><linearGradient id="New_Gradient_Swatch_3-9" x1="26.75" y1="93.99" x2="39.63" y2="93.99" xlink:href="#New_Gradient_Swatch_3"/><linearGradient id="New_Gradient_Swatch_3-10" x1="33.58" y1="88.89" x2="58" y2="88.89" xlink:href="#New_Gradient_Swatch_3"/><linearGradient id="New_Gradient_Swatch_3-11" x1="39" y1="63.39" x2="65" y2="63.39" xlink:href="#New_Gradient_Swatch_3"/><linearGradient id="New_Gradient_Swatch_3-12" x1="67" y1="75.39" x2="98.35" y2="75.39" gradientTransform="matrix(-1, 0, 0, 1, 173, 0)" xlink:href="#New_Gradient_Swatch_3"/><linearGradient id="New_Gradient_Swatch_3-13" x1="83.48" y1="83.39" x2="94" y2="83.39" gradientTransform="matrix(-1, 0, 0, 1, 173, 0)" xlink:href="#New_Gradient_Swatch_3"/><linearGradient id="New_Gradient_Swatch_3-14" x1="80" y1="86.39" x2="98" y2="86.39" gradientTransform="matrix(-1, 0, 0, 1, 173, 0)" xlink:href="#New_Gradient_Swatch_3"/><linearGradient id="New_Gradient_Swatch_3-15" x1="81" y1="74.39" x2="100.64" y2="74.39" gradientTransform="matrix(-1, 0, 0, 1, 173, 0)" xlink:href="#New_Gradient_Swatch_3"/><linearGradient id="New_Gradient_Swatch_3-16" x1="53" y1="84.39" x2="68.37" y2="84.39" xlink:href="#New_Gradient_Swatch_3"/><linearGradient id="New_Gradient_Swatch_3-17" x1="49" y1="81.53" x2="91" y2="81.53" gradientTransform="matrix(-1, 0, 0, 1, 173, 0)" xlink:href="#New_Gradient_Swatch_3"/><linearGradient id="New_Gradient_Swatch_3-18" x1="75" y1="97.57" x2="95" y2="97.57" gradientTransform="matrix(-1, 0, 0, 1, 173, 0)" xlink:href="#New_Gradient_Swatch_3"/><linearGradient id="New_Gradient_Swatch_3-19" x1="-1329.28" y1="94.29" x2="-1319.07" y2="94.29" gradientTransform="translate(1409)" xlink:href="#New_Gradient_Swatch_3"/><linearGradient id="New_Gradient_Swatch_3-20" x1="-1344.57" y1="92.39" x2="-1316.66" y2="92.39" gradientTransform="translate(1409)" xlink:href="#New_Gradient_Swatch_3"/><linearGradient id="New_Gradient_Swatch_3-21" x1="-1327.29" y1="103.04" x2="-1314" y2="103.04" gradientTransform="translate(1409)" xlink:href="#New_Gradient_Swatch_3"/><linearGradient id="New_Gradient_Swatch_3-22" x1="-373.1" y1="62.18" x2="-337.66" y2="62.18" gradientTransform="matrix(-1, 0, 0, 1, -305.88, 0)" xlink:href="#New_Gradient_Swatch_3"/><linearGradient id="New_Gradient_Swatch_3-23" x1="-408.34" y1="75.27" x2="-380.6" y2="75.27" gradientTransform="translate(478.88)" xlink:href="#New_Gradient_Swatch_3"/><linearGradient id="New_Gradient_Swatch_3-24" x1="-402.93" y1="92.52" x2="-366.84" y2="92.52" gradientTransform="translate(478.88)" xlink:href="#New_Gradient_Swatch_3"/><linearGradient id="New_Gradient_Swatch_3-25" x1="-467.88" y1="85.2" x2="-380.97" y2="85.2" gradientTransform="translate(478.88)" xlink:href="#New_Gradient_Swatch_3"/><linearGradient id="New_Gradient_Swatch_3-26" x1="-437.48" y1="76.81" x2="-401.87" y2="76.81" gradientTransform="translate(478.88)" xlink:href="#New_Gradient_Swatch_3"/><linearGradient id="New_Gradient_Swatch_3-27" x1="-452.36" y1="56.94" x2="-420.58" y2="56.94" gradientTransform="translate(478.88)" xlink:href="#New_Gradient_Swatch_3"/><linearGradient id="New_Gradient_Swatch_3-28" x1="-416.18" y1="75.48" x2="-377.67" y2="75.48" gradientTransform="translate(478.88)" xlink:href="#New_Gradient_Swatch_3"/><linearGradient id="New_Gradient_Swatch_3-29" x1="-419.62" y1="87.85" x2="-396.37" y2="87.85" gradientTransform="translate(478.88)" xlink:href="#New_Gradient_Swatch_3"/><linearGradient id="New_Gradient_Swatch_3-30" x1="-407.29" y1="81.16" x2="-363.23" y2="81.16" gradientTransform="translate(478.88)" xlink:href="#New_Gradient_Swatch_3"/><linearGradient id="New_Gradient_Swatch_3-31" x1="47.07" y1="83.23" x2="66.43" y2="83.23" xlink:href="#New_Gradient_Swatch_3"/><linearGradient id="New_Gradient_Swatch_3-32" x1="118.41" y1="69.37" x2="99.44" y2="69.37" gradientTransform="matrix(-1, 0, 0, 1, 173, 0)" xlink:href="#New_Gradient_Swatch_3"/></defs><g id="Layer_2" data-name="Layer 2"><g id="grass"><g id="Grass_5" data-name="Grass 5"><g id="black"><path class="cls-1" d="M46,113.89s13-74,4-79c7,16-2,44-3,57s0,17-5,22h6s13-29,13-40c4,8-12,40-12,40"/><path class="cls-2" d="M35,113.89s16-46,13-59c1,16-15,59-15,59Z"/><path class="cls-3" d="M51,113.89s-30-24-23-51c0-11-18-13-18-13s14-4,17,7c0,13,2,26,6,34s19,23,19,23Z"/><path class="cls-4" d="M36,113.89s16-38,20-32c-4,0-11,15-11,15l-8,17Z"/><path class="cls-5" d="M43.29,113.89S1.22,100.4,0,70.05c5.49,17.54,48.17,43.84,48.17,43.84Z"/><path class="cls-6" d="M32.93,113.89S14.63,74.77,17.07,57.24c.61,13.49,19.51,56.65,19.51,56.65Z"/><path class="cls-7" d="M22.56,113.89s-26.83-41.81-6.1-87c.61,2-7.92,24.28-2.44,48.56s12.2,38.44,12.2,38.44Z"/><path class="cls-8" d="M28.66,113.89S51.83,66,49.39,55.22c4.27,10.11-15.24,56-17.68,58.67Z"/><path class="cls-9" d="M39.63,113.89S26.22,75.45,26.83,74.1C25.61,76.8,39,113.89,39,113.89Z"/><path class="cls-10" d="M56,113.89s-26-39-22-50c2,7,14,36,24,50Z"/><path class="cls-11" d="M58,113.89s-4-50-2-67-17-34-17-34,23,8,22,34-4,56,4,67Z"/><path class="cls-12" d="M103,113.89s-32-66-28-77c8,27,24,68,31,77Z"/><path class="cls-13" d="M81,113.89s11-43,8-61c-1,13-4,43-10,61h0"/><path class="cls-14" d="M77,113.89s16-39,16-55c-2,7-18,55-18,55h2"/><path class="cls-15" d="M88,113.89s-13-74-4-79c-7,16,2,44,3,57s0,17,5,22H86s-13-29-13-40c-4,8,12,40,12,40"/><path class="cls-16" d="M55,113.89s16-46,13-59c1,16-15,59-15,59Z"/><path class="cls-17" d="M83,113.89s30-24,23-51c0-11,18-13,18-13s-14-4-17,7c0,13-2,26-6,34s-19,23-19,23Z"/><path class="cls-18" d="M98,113.89s-16-38-20-32c4,0,11,15,11,15l8,17Z"/><path class="cls-19" d="M81.05,113.89s10.63-30.57,8.63-39.21c.67,10.64-10,39.21-10,39.21Z"/><path class="cls-20" d="M91.68,113.89S71.74,97.94,76.39,80c0-7.31-12-8.64-12-8.64S73.74,68.7,75.73,76c0,8.64,1.33,17.28,4,22.6s12.62,15.28,12.62,15.28Z"/><path class="cls-21" d="M81.71,113.89S92.34,88.64,95,92.63c-2.66,0-7.31,10-7.31,10l-5.32,11.3Z"/><path class="cls-22" d="M60,113.89S36.55,17,52.79,10.47c-12.63,21,3.6,57.6,5.41,74.62s0,22.25,9,28.8H56.39s-23.45-38-23.45-52.36C25.72,72,54.59,113.89,54.59,113.89"/><path class="cls-23" d="M74.15,113.89S103,53.67,97.61,36.65c1.8,21-27.07,77.24-27.07,77.24Z"/><path class="cls-24" d="M76,113.89S104.82,64.14,112,72c-7.22,0-19.85,19.64-19.85,19.64L77.76,113.89Z"/><path class="cls-25" d="M91.63,113.89S12.39,83.23,11,56.5c9.9,23,86.91,57.39,86.91,57.39Z"/><path class="cls-26" d="M70.41,113.89S37.4,62.68,41.8,39.73C42.9,57.39,77,113.89,77,113.89Z"/><path class="cls-27" d="M51.71,113.89S3.3,59.15,40.7,0c1.1,2.65-14.3,31.78-4.4,63.57s22,50.32,22,50.32Z"/><path class="cls-28" d="M62.71,113.89s41.8-62.68,37.4-76.81c7.7,13.24-27.5,73.28-31.9,76.81Z"/><path class="cls-29" d="M82.51,113.89S58.31,63.57,59.41,61.8c-2.2,3.53,22,52.09,22,52.09Z"/><path class="cls-30" d="M112,113.89s-46.91-51-39.69-65.45c3.6,9.16,25.26,47.12,43.3,65.45Z"/><path class="cls-31" d="M47.07,113.89S67.93,71.55,65.15,52.56c6.95,14.61-16.69,61.33-16.69,61.33Z"/><path class="cls-32" d="M61.05,113.89S49.93,55.48,56.88,36.5s16.68-4.38,16.68-4.38-8.34-19-18.07,4.38c0,27.75,4.17,77.39,4.17,77.39Z"/></g></g></g></g></svg>
