<svg xmlns="http://www.w3.org/2000/svg" xmlns:xlink="http://www.w3.org/1999/xlink" viewBox="0 0 59.57 101"><defs><style>.cls-1{fill:url(#New_Gradient_Swatch_3);}.cls-2{fill:url(#New_Gradient_Swatch_3-2);}.cls-3{fill:url(#New_Gradient_Swatch_3-3);}.cls-4{fill:url(#New_Gradient_Swatch_3-4);}.cls-5{fill:url(#New_Gradient_Swatch_3-5);}.cls-6{fill:url(#New_Gradient_Swatch_3-6);}.cls-7{fill:url(#New_Gradient_Swatch_3-7);}.cls-8{fill:url(#New_Gradient_Swatch_3-8);}.cls-9{fill:url(#New_Gradient_Swatch_3-9);}.cls-10{fill:url(#New_Gradient_Swatch_3-10);}.cls-11{fill:url(#New_Gradient_Swatch_3-11);}</style><linearGradient id="New_Gradient_Swatch_3" x1="9" y1="50.5" x2="35" y2="50.5" gradientUnits="userSpaceOnUse"><stop offset="0" stop-color="#666"/><stop offset="0.33" stop-color="#494949"/><stop offset="0.76" stop-color="#272727"/><stop offset="1" stop-color="#1a1a1a"/></linearGradient><linearGradient id="New_Gradient_Swatch_3-2" x1="18" y1="62.5" x2="49.35" y2="62.5" xlink:href="#New_Gradient_Swatch_3"/><linearGradient id="New_Gradient_Swatch_3-3" x1="34.48" y1="70.5" x2="45" y2="70.5" xlink:href="#New_Gradient_Swatch_3"/><linearGradient id="New_Gradient_Swatch_3-4" x1="31" y1="73.5" x2="49" y2="73.5" xlink:href="#New_Gradient_Swatch_3"/><linearGradient id="New_Gradient_Swatch_3-5" x1="32" y1="61.5" x2="51.64" y2="61.5" xlink:href="#New_Gradient_Swatch_3"/><linearGradient id="New_Gradient_Swatch_3-6" x1="23" y1="71.5" x2="38.37" y2="71.5" xlink:href="#New_Gradient_Swatch_3"/><linearGradient id="New_Gradient_Swatch_3-7" x1="0" y1="68.65" x2="42" y2="68.65" xlink:href="#New_Gradient_Swatch_3"/><linearGradient id="New_Gradient_Swatch_3-8" x1="26" y1="84.68" x2="46" y2="84.68" xlink:href="#New_Gradient_Swatch_3"/><linearGradient id="New_Gradient_Swatch_3-9" x1="-44.28" y1="81.4" x2="-34.07" y2="81.4" gradientTransform="matrix(-1, 0, 0, 1, 0, 0)" xlink:href="#New_Gradient_Swatch_3"/><linearGradient id="New_Gradient_Swatch_3-10" x1="-59.57" y1="79.5" x2="-31.66" y2="79.5" gradientTransform="matrix(-1, 0, 0, 1, 0, 0)" xlink:href="#New_Gradient_Swatch_3"/><linearGradient id="New_Gradient_Swatch_3-11" x1="-42.29" y1="90.15" x2="-29" y2="90.15" gradientTransform="matrix(-1, 0, 0, 1, 0, 0)" xlink:href="#New_Gradient_Swatch_3"/></defs><g id="Layer_2" data-name="Layer 2"><g id="grass"><g id="Grass_2" data-name="Grass 2"><g id="black"><path class="cls-1" d="M28,101s-4-50-2-67S9,0,9,0,32,8,31,34s-4,56,4,67Z"/><path class="cls-2" d="M21,101S53,35,49,24c-8,27-24,68-31,77Z"/><path class="cls-3" d="M43,101S32,58,35,40c1,13,4,43,10,61h0"/><path class="cls-4" d="M47,101S31,62,31,46c2,7,18,55,18,55H47"/><path class="cls-5" d="M36,101s13-74,4-79c7,16-2,44-3,57s0,17-5,22h6S51,72,51,61c4,8-12,40-12,40"/><path class="cls-6" d="M25,101S41,55,38,42c1,16-15,59-15,59Z"/><path class="cls-7" d="M41,101S11,77,18,50C18,39,0,37,0,37s14-4,17,7c0,13,2,26,6,34s19,23,19,23Z"/><path class="cls-8" d="M26,101S42,63,46,69c-4,0-11,15-11,15l-8,17Z"/><path class="cls-9" d="M43,101S32.32,70.43,34.32,61.79c-.67,10.64,10,39.21,10,39.21Z"/><path class="cls-10" d="M32.32,101s19.94-16,15.29-33.89c0-7.31,12-8.64,12-8.64s-9.31-2.66-11.3,4.65c0,8.64-1.33,17.28-4,22.6S31.66,101,31.66,101Z"/><path class="cls-11" d="M42.29,101S31.66,75.75,29,79.74c2.66,0,7.31,10,7.31,10L41.63,101Z"/></g></g></g></g></svg>
