<svg xmlns="http://www.w3.org/2000/svg" xmlns:xlink="http://www.w3.org/1999/xlink" viewBox="0 0 114 119"><defs><style>.cls-1{fill:url(#New_Gradient_Swatch_1);}.cls-2{fill:url(#New_Gradient_Swatch_1-2);}.cls-3{fill:url(#New_Gradient_Swatch_1-3);}.cls-4{fill:url(#New_Gradient_Swatch_1-4);}.cls-5{fill:url(#New_Gradient_Swatch_1-5);}.cls-6{fill:url(#New_Gradient_Swatch_1-6);}.cls-7{fill:url(#New_Gradient_Swatch_1-7);}.cls-8{fill:url(#New_Gradient_Swatch_1-8);}.cls-9{fill:url(#New_Gradient_Swatch_1-9);}.cls-10{fill:url(#New_Gradient_Swatch_1-10);}.cls-11{fill:url(#New_Gradient_Swatch_1-11);}.cls-12{fill:url(#New_Gradient_Swatch_1-12);}</style><linearGradient id="New_Gradient_Swatch_1" x1="65.9" y1="67.29" x2="101.34" y2="67.29" gradientTransform="matrix(-1, 0, 0, 1, 104.12, 0)" gradientUnits="userSpaceOnUse"><stop offset="0" stop-color="#8fc239"/><stop offset="0.2" stop-color="#81b738"/><stop offset="0.72" stop-color="#5f9e34"/><stop offset="1" stop-color="#529433"/></linearGradient><linearGradient id="New_Gradient_Swatch_1-2" x1="49.66" y1="80.38" x2="77.4" y2="80.38" xlink:href="#New_Gradient_Swatch_1"/><linearGradient id="New_Gradient_Swatch_1-3" x1="55.07" y1="97.63" x2="91.16" y2="97.63" xlink:href="#New_Gradient_Swatch_1"/><linearGradient id="New_Gradient_Swatch_1-4" x1="-9.88" y1="90.31" x2="77.03" y2="90.31" xlink:href="#New_Gradient_Swatch_1"/><linearGradient id="New_Gradient_Swatch_1-5" x1="20.52" y1="81.92" x2="56.13" y2="81.92" xlink:href="#New_Gradient_Swatch_1"/><linearGradient id="New_Gradient_Swatch_1-6" x1="5.64" y1="62.06" x2="37.42" y2="62.06" xlink:href="#New_Gradient_Swatch_1"/><linearGradient id="New_Gradient_Swatch_1-7" x1="41.82" y1="80.6" x2="80.33" y2="80.6" xlink:href="#New_Gradient_Swatch_1"/><linearGradient id="New_Gradient_Swatch_1-8" x1="38.38" y1="92.96" x2="61.63" y2="92.96" xlink:href="#New_Gradient_Swatch_1"/><linearGradient id="New_Gradient_Swatch_1-9" x1="50.71" y1="86.27" x2="94.77" y2="86.27" xlink:href="#New_Gradient_Swatch_1"/><linearGradient id="New_Gradient_Swatch_1-10" x1="0" y1="59.5" x2="84.8" y2="59.5" gradientTransform="matrix(1, 0, 0, 1, 0, 0)" xlink:href="#New_Gradient_Swatch_1"/><linearGradient id="New_Gradient_Swatch_1-11" x1="18.07" y1="88.34" x2="37.43" y2="88.34" gradientTransform="matrix(1, 0, 0, 1, 0, 0)" xlink:href="#New_Gradient_Swatch_1"/><linearGradient id="New_Gradient_Swatch_1-12" x1="70.41" y1="74.48" x2="51.44" y2="74.48" gradientTransform="matrix(1, 0, 0, 1, 0, 0)" xlink:href="#New_Gradient_Swatch_1"/></defs><g id="Layer_2" data-name="Layer 2"><g id="grass"><g id="Grass_4" data-name="Grass 4"><g id="green"><path class="cls-1" d="M31,119S7.55,22.13,23.79,15.58c-12.63,21,3.6,57.6,5.41,74.62s0,22.25,9,28.8H27.39S3.94,81,3.94,66.64C-3.28,77.11,25.59,119,25.59,119"/><path class="cls-2" d="M50.85,119S22,58.78,27.39,41.76C25.59,62.71,54.46,119,54.46,119Z"/><path class="cls-3" d="M49.05,119S20.18,69.26,13,77.11c7.22,0,19.85,19.64,19.85,19.64L47.24,119Z"/><path class="cls-4" d="M33.37,119S112.61,88.34,114,61.61C104.1,84.57,27.09,119,27.09,119Z"/><path class="cls-5" d="M54.59,119s33-51.21,28.61-74.16C82.1,62.5,48,119,48,119Z"/><path class="cls-6" d="M73.29,119S121.7,64.26,84.3,5.11c-1.1,2.65,14.3,31.78,4.4,63.57s-22,50.32-22,50.32Z"/><path class="cls-7" d="M62.29,119s-41.8-62.68-37.4-76.81c-7.7,13.24,27.5,73.28,31.9,76.81Z"/><path class="cls-8" d="M42.49,119s24.2-50.32,23.1-52.09c2.2,3.53-22,52.09-22,52.09Z"/><path class="cls-9" d="M13,119S59.87,68,52.65,53.55c-3.6,9.16-25.26,47.12-43.3,65.45Z"/><path class="cls-10" d="M82,119S44.13,48.57,40.32,25.55C34.76-8,0,5.11,0,5.11S33.37-15.33,43.1,25.55,84.8,119,84.8,119Z"/><path class="cls-11" d="M18.07,119S38.93,76.66,36.15,57.67C43.1,72.28,19.46,119,19.46,119Z"/><path class="cls-12" d="M64,119s11.12-58.4,4.17-77.39-16.68-4.38-16.68-4.38,8.34-19,18.07,4.38c0,27.75-4.17,77.39-4.17,77.39Z"/></g></g></g></g></svg>
