<svg xmlns="http://www.w3.org/2000/svg" xmlns:xlink="http://www.w3.org/1999/xlink" viewBox="0 0 80 130.01"><defs><style>.cls-1{fill:url(#purpink_tree_gradient);}.cls-2{fill:url(#purpink_tree_gradient-2);}.cls-3{fill:url(#purpink_tree_gradient-3);}.cls-4{fill:url(#purpink_tree_gradient-4);}.cls-5{fill:url(#purpink_tree_gradient-5);}.cls-6{fill:url(#purpink_tree_gradient-6);}.cls-7{fill:url(#purpink_tree_gradient-7);}.cls-8{fill:url(#purpink_tree_gradient-8);}.cls-9{fill:url(#purpink_tree_gradient-9);}.cls-10{fill:url(#purpink_tree_gradient-10);}.cls-11{fill:url(#purpink_tree_gradient-11);}</style><linearGradient id="purpink_tree_gradient" x1="42" y1="90.51" x2="61.64" y2="90.51" gradientUnits="userSpaceOnUse"><stop offset="0" stop-color="#ff7bac"/><stop offset="0.28" stop-color="#cb61a3"/><stop offset="0.62" stop-color="#954599"/><stop offset="0.87" stop-color="#733493"/><stop offset="1" stop-color="#662d91"/><stop offset="1" stop-color="#1b7f49"/></linearGradient><linearGradient id="purpink_tree_gradient-2" x1="33" y1="100.51" x2="48.37" y2="100.51" xlink:href="#purpink_tree_gradient"/><linearGradient id="purpink_tree_gradient-3" x1="10" y1="97.65" x2="52" y2="97.65" xlink:href="#purpink_tree_gradient"/><linearGradient id="purpink_tree_gradient-4" x1="36" y1="113.69" x2="56" y2="113.69" xlink:href="#purpink_tree_gradient"/><linearGradient id="purpink_tree_gradient-5" x1="0" y1="108.09" x2="48.17" y2="108.09" xlink:href="#purpink_tree_gradient"/><linearGradient id="purpink_tree_gradient-6" x1="16.85" y1="101.68" x2="36.58" y2="101.68" xlink:href="#purpink_tree_gradient"/><linearGradient id="purpink_tree_gradient-7" x1="8.6" y1="86.51" x2="26.22" y2="86.51" xlink:href="#purpink_tree_gradient"/><linearGradient id="purpink_tree_gradient-8" x1="28.66" y1="100.67" x2="50" y2="100.67" xlink:href="#purpink_tree_gradient"/><linearGradient id="purpink_tree_gradient-9" x1="26.75" y1="110.11" x2="39.63" y2="110.11" xlink:href="#purpink_tree_gradient"/><linearGradient id="purpink_tree_gradient-10" x1="10" y1="64.5" x2="80" y2="64.5" xlink:href="#purpink_tree_gradient"/><linearGradient id="purpink_tree_gradient-11" x1="33.58" y1="105.01" x2="58" y2="105.01" xlink:href="#purpink_tree_gradient"/></defs><g id="Layer_2" data-name="Layer 2"><g id="grass"><g id="Grass_3" data-name="Grass 3"><g id="purple"><path class="cls-1" d="M46,130s13-74,4-79c7,16-2,44-3,57s0,17-5,22h6s13-29,13-40c4,8-12,40-12,40"/><path class="cls-2" d="M35,130S51,84,48,71c1,16-15,59-15,59Z"/><path class="cls-3" d="M51,130S21,106,28,79c0-11-18-13-18-13s14-4,17,7c0,13,2,26,6,34s19,23,19,23Z"/><path class="cls-4" d="M36,130S52,92,56,98c-4,0-11,15-11,15l-8,17Z"/><path class="cls-5" d="M43.29,130S1.22,116.52,0,86.17C5.49,103.71,48.17,130,48.17,130Z"/><path class="cls-6" d="M32.93,130S14.63,90.89,17.07,73.36C17.68,86.85,36.58,130,36.58,130Z"/><path class="cls-7" d="M22.56,130S-4.27,88.2,16.46,43c.61,2-7.92,24.28-2.44,48.56S26.22,130,26.22,130Z"/><path class="cls-8" d="M28.66,130S51.83,82.13,49.39,71.33c4.27,10.12-15.24,56-17.68,58.68Z"/><path class="cls-9" d="M39.63,130S26.22,91.57,26.83,90.22C25.61,92.92,39,130,39,130Z"/><path class="cls-10" d="M10,129S47,37,49,18,80,0,80,0,54,4,52,19,12,129,12,129Z"/><path class="cls-11" d="M56,130S30,91,34,80c2,7,14,36,24,50Z"/></g></g></g></g></svg>
