<svg xmlns="http://www.w3.org/2000/svg" xmlns:xlink="http://www.w3.org/1999/xlink" viewBox="0 0 82 173"><defs><style>.cls-1{fill:url(#purpink_tree_gradient);}.cls-2{fill:url(#purpink_tree_gradient-2);}.cls-3{fill:url(#purpink_tree_gradient-3);}.cls-4{fill:url(#purpink_tree_gradient-4);}.cls-5{fill:url(#purpink_tree_gradient-5);}.cls-6{fill:url(#purpink_tree_gradient-6);}.cls-7{fill:url(#purpink_tree_gradient-7);}.cls-8{fill:url(#purpink_tree_gradient-8);}.cls-9{fill:url(#purpink_tree_gradient-9);}.cls-10{fill:url(#purpink_tree_gradient-10);}</style><linearGradient id="purpink_tree_gradient" x1="12" y1="86.5" x2="57.51" y2="86.5" gradientUnits="userSpaceOnUse"><stop offset="0" stop-color="#ff7bac"/><stop offset="0.28" stop-color="#cb61a3"/><stop offset="0.62" stop-color="#954599"/><stop offset="0.87" stop-color="#733493"/><stop offset="1" stop-color="#662d91"/><stop offset="1" stop-color="#1b7f49"/></linearGradient><linearGradient id="purpink_tree_gradient-2" x1="33" y1="90.39" x2="76.22" y2="90.39" xlink:href="#purpink_tree_gradient"/><linearGradient id="purpink_tree_gradient-3" x1="0" y1="140.5" x2="79" y2="140.5" xlink:href="#purpink_tree_gradient"/><linearGradient id="purpink_tree_gradient-4" x1="27.63" y1="131" x2="60" y2="131" xlink:href="#purpink_tree_gradient"/><linearGradient id="purpink_tree_gradient-5" x1="14.11" y1="108.5" x2="43" y2="108.5" xlink:href="#purpink_tree_gradient"/><linearGradient id="purpink_tree_gradient-6" x1="47" y1="129.5" x2="82" y2="129.5" xlink:href="#purpink_tree_gradient"/><linearGradient id="purpink_tree_gradient-7" x1="43.87" y1="143.5" x2="65" y2="143.5" xlink:href="#purpink_tree_gradient"/><linearGradient id="purpink_tree_gradient-8" x1="7.7" y1="135" x2="46" y2="135" xlink:href="#purpink_tree_gradient"/><linearGradient id="purpink_tree_gradient-9" x1="24" y1="137.5" x2="45.28" y2="137.5" xlink:href="#purpink_tree_gradient"/><linearGradient id="purpink_tree_gradient-10" x1="2" y1="130.5" x2="32.5" y2="130.5" xlink:href="#purpink_tree_gradient"/></defs><g id="Layer_2" data-name="Layer 2"><g id="grass"><g id="Grass_1" data-name="Grass 1"><g id="purple"><path class="cls-1" d="M14,173S63,9,57,0a175.52,175.52,0,0,1-6,35C42,73,12,173,12,173Z"/><path class="cls-2" d="M33,164c15-11,36-17,22-99C53.15,41.53,41.76,23.28,33,12A117.34,117.34,0,0,1,65,52c25.5,52.84.12,106.62-4,115C42.85,171,36,167.52,33,164Z"/><path class="cls-3" d="M71,173S2,153,0,108c9,26,79,65,79,65Z"/><path class="cls-4" d="M54,173S24,115,28,89c1,20,32,84,32,84Z"/><path class="cls-5" d="M37,173S-7,111,27,44c1,3-13,36-4,72s20,57,20,57Z"/><path class="cls-6" d="M47,173s38-71,34-87c7,15-25,83-29,87Z"/><path class="cls-7" d="M65,173s-22-57-21-59c-2,4,20,59,20,59Z"/><path class="cls-8" d="M46,173S6,102,8,97c-4,3,32.75,76,32.75,76Z"/><path class="cls-9" d="M24,173s18-58,21-71c3,2-19,71-19,71Z"/><path class="cls-10" d="M32.5,173S.74,90.88,2.19,88c-2.89,5.76,28.87,85,28.87,85Z"/></g></g></g></g></svg>
