<svg xmlns="http://www.w3.org/2000/svg" xmlns:xlink="http://www.w3.org/1999/xlink" viewBox="0 0 126.05 196"><defs><style>.cls-1{opacity:0.33;fill:url(#linear-gradient);}.cls-2{fill:url(#New_Gradient_Swatch_9);}.cls-3{fill:url(#New_Gradient_Swatch);}</style><linearGradient id="linear-gradient" x1="29.05" y1="179.5" x2="108.05" y2="179.5" gradientUnits="userSpaceOnUse"><stop offset="0"/><stop offset="1"/></linearGradient><linearGradient id="New_Gradient_Swatch_9" y1="93.31" x2="126.05" y2="93.31" gradientUnits="userSpaceOnUse"><stop offset="0" stop-color="#405e41"/><stop offset="0.61" stop-color="#27432e"/><stop offset="1" stop-color="#1c3826"/></linearGradient><linearGradient id="New_Gradient_Swatch" x1="55.83" y1="140.08" x2="55.6" y2="139.4" gradientUnits="userSpaceOnUse"><stop offset="0" stop-color="#a12741"/><stop offset="0.73" stop-color="#80353d"/></linearGradient></defs><g id="Layer_2" data-name="Layer 2"><g id="Trees"><g id="Tree_2" data-name="Tree 2"><g id="Tree_2_dead" data-name="Tree 2 dead"><g id="shade_copy_21" data-name="shade copy 21"><ellipse class="cls-1" cx="68.55" cy="179.5" rx="39.5" ry="16.5"/></g><g id="trunk_copy_21" data-name="trunk copy 21"><path class="cls-2" d="M110.05,102l-2,14s-2,23.67-30.5,23.67V181.5s0,4-10,5-12-5-12-5V140h.5c.06-.08-.5-.47-.5-.58V140c-11-.17-18.5-6.18-23.35-12.26A21.29,21.29,0,0,1,29.05,126c-6-4-22-33-23-31s-3,5-3,8c1,1,4.1,1,5-1,0-2,3,7-4,5s-4-9,2-15c6.65,1.9,18.72,20,19.9,21.85a25.83,25.83,0,0,1,1.82-2C26,107.21,23.49,98.56,27.05,95c5-5,14-12,15-10s2,4,1,4a3.49,3.49,0,0,1-2-1V86c1,2,2,2,2,2l-2-3-4,4c-1,1-10,8-9,10s3,11,3,11c.75,16.88,22.63,14.83,25,15l-1-69s2-14-10-15-22,7-26-1-10-17-13-17c5-2,9,3,10,5s3,8,7,9,20,2,22,0,10,0,10,4c0,0,3.08,5.24,4,5a24.09,24.09,0,0,0-4-15c-4-6-10-16-10-18s3-13,3-13c1,9-2,11,0,13s4,6,5,7,14.12,25.12,14,30c2-3,3-3,4-7s0-14,0-14,30-4,33-7,15-10,17-7-2,2-2,2-13,4-12,8c-5,2-24,3-21,4s7,17,5,17c0-3-6-16-7-16s-7,2-6,3-4-2-4-2c1,5,2,14-1,17-2.63,2.63-2.19,10.65-4.75,13.93L77.05,131c3-.2,15-.37,22.08-9.87-4.47-2.14-15.29-8-16.08-15.13,2,3,4.15,7,7,8,2.3.76,7.88,5.12,11,6,1.44-2.06,1.15-4,2-7l4-10.44-1-.56c-7-4-10-15-10-15h2c0,6,8,11,9,12,.76.76,2.1-7.19,2.7-11-7.71-.22-5.71-9-6.7-9,1,0,1,2,1,3,1,5,4.9,5.29,5.84,5,.1-.65,3.16-12,3.16-15,1,3,0,15,0,15h0c3.4-2.12,11-7,11-7a3.1,3.1,0,0,0,2-1c0,1.66-10.38,8.17-13.87,10.31-1.11,3.08-2.82,8.3-2.13,9.69.93,1.87,7-2,11-4,.51,0,3.47-2.07,4-2C123.05,94,110.05,102,110.05,102Z"/><path class="cls-3" d="M56.05,140h-.5v-.57C55.55,139.53,56.11,139.92,56.05,140Z"/></g></g></g></g></g></svg>
