<svg xmlns="http://www.w3.org/2000/svg" xmlns:xlink="http://www.w3.org/1999/xlink" viewBox="0 0 148.04 158.81"><defs><style>.cls-1{opacity:0.33;fill:url(#linear-gradient);}.cls-2{fill:url(#New_Gradient_Swatch);}</style><linearGradient id="linear-gradient" x1="53.87" y1="142.31" x2="117.87" y2="142.31" gradientUnits="userSpaceOnUse"><stop offset="0"/><stop offset="1"/></linearGradient><linearGradient id="New_Gradient_Swatch" x1="23.44" y1="111.62" x2="113.81" y2="-20.88" gradientUnits="userSpaceOnUse"><stop offset="0" stop-color="#a12741"/><stop offset="0.73" stop-color="#80353d"/></linearGradient></defs><g id="Layer_2" data-name="Layer 2"><g id="Trees"><g id="Tree_1" data-name="Tree 1"><g id="Tree_1_dead" data-name="Tree 1 dead"><g id="shade_copy_22" data-name="shade copy 22"><ellipse class="cls-1" cx="85.87" cy="142.31" rx="32" ry="16.5"/></g><g id="trunk_copy_22" data-name="trunk copy 22"><path class="cls-2" d="M146.33,9.51c-4.12,4.24-11.36,16.26-13.27,17.57s-12.2,2.75-12.2,2.75-3.82,2.63-4.12,4.24-.18,10-.48,11.6-4.6,15.84-9.74,16.56-8.1-1.45-10.28,1.43c-1.84,2.43,7.72,11.56-.87,17.16v4.11c4.63-3.63,14.5-8.12,14.5-7.12s-9,6-9,6,7,1,8,1h-8s-5,3.85-5.5,4.2v55.3s0,4-10,5-12-5-12-5,7.5-60.8,0-65.65-13.33-.4-15.5-1.85c-3-2-5-13-9-14s-1-5-3-10-14-9-15-9-10-4-19-8-14-32-11-26,4,13,4,3v-2s-3-4-3-6,3,4,4,5,1,13,2,14l4,4,1-1v-1a3.1,3.1,0,0,1-2-1l2-2v-2h2c1,0-1,3-1,3s0,3,1,4,3-2,3-2,4-6,3-10c2,0,0-4,0-4a3.49,3.49,0,0,1-1-2v-2c0-2-3-5,0-6s1,3,1,3l1,3a47.09,47.09,0,0,0,2,5l1,2,5-5c1,3-2,3,2,2,0,.07-4,5-4,5s-4,0-2,7c-3-3-3,6-3,6l5,3,3-5,4-1s-6,7-4,7,13,6,18,9c2.11,1.27,4.22,4.49,6,7.79,2.91-1.86,4-4.36,4-5.79,0-2,6-5,6-5l3-9s-2-2-2-3a3.1,3.1,0,0,0,2,1,1,1,0,0,1,1,1c0,1,1,0,1-1s-2-4-2-5c1,1,5-1,5-2s-5-4-5-4a10.07,10.07,0,0,0,3,1c1,0,4,2,4,2s3,2,4,1a4.94,4.94,0,0,0,1-3,14.39,14.39,0,0,1,2-3,7.58,7.58,0,0,1,4-2h1s-4,1-4,2-2,8-3,8h-4l-1-1s-3,1-4,2,1,3,1,4-2,3-2,3-3,4-3,5,0,5-2,5-1,4-1,4l-3,3c-.6.6-2.27,4.42-3.52,7.17.95,2.23,1.52,3.83,1.52,3.83s9,8,15,8,8,4,12,6a5.51,5.51,0,0,1,1.3.89s3.36-2.07,3-5.48S85.24,60,92,59.54a27.9,27.9,0,0,0,12.49-4.37s6.34-7.17,5.33-10.7.06-16.66,2.06-18.66c5,1,3.62-10,5-10a9.82,9.82,0,0,0,3.46-1.1s3.82-2.63,3.23.59-4.88,2.08-6,5.56c-1.65,4.95,2.69,6.37,3.35,3.95,1.34.42,7.35,1.37,7.65-.24s15-18.16,15.35-19.76c2-9-11.05,5.53-8.84,2.6s-1.42-4.07,2.81-6.15C146.87-3.19,150.46,5.26,146.33,9.51Z"/></g></g></g></g></g></svg>
