<svg xmlns="http://www.w3.org/2000/svg" xmlns:xlink="http://www.w3.org/1999/xlink" viewBox="0 0 153.27 215"><defs><style>.cls-1{opacity:0.33;fill:url(#linear-gradient);}.cls-2{fill:url(#linear-gradient-2);}.cls-3{fill:url(#orange_tree_gradient);}.cls-4{fill:url(#linear-gradient-3);}.cls-5{fill:#fff;fill-opacity:0.17;opacity:0.66;}</style><linearGradient id="linear-gradient" x1="47.27" y1="198.5" x2="111.27" y2="198.5" gradientUnits="userSpaceOnUse"><stop offset="0"/><stop offset="1"/></linearGradient><linearGradient id="linear-gradient-2" x1="71.96" y1="180.82" x2="80.84" y2="160.69" gradientUnits="userSpaceOnUse"><stop offset="0" stop-color="#975d52"/><stop offset="0.03" stop-color="#965b51"/><stop offset="0.65" stop-color="#873d3e"/><stop offset="1" stop-color="#813237"/></linearGradient><linearGradient id="orange_tree_gradient" x1="150.83" y1="145.54" x2="20.2" y2="65.35" gradientUnits="userSpaceOnUse"><stop offset="0.27" stop-color="#f15a24"/><stop offset="0.38" stop-color="#f26423"/><stop offset="0.78" stop-color="#f6861f"/><stop offset="1" stop-color="#f7931e"/></linearGradient><linearGradient id="linear-gradient-3" y1="153.69" x2="153.27" y2="153.69" gradientUnits="userSpaceOnUse"><stop offset="1" stop-opacity="0.17"/><stop offset="1" stop-color="#4a9f38"/><stop offset="1" stop-color="#288844"/><stop offset="1" stop-color="#1b7f49"/><stop offset="1" stop-color="#277647"/><stop offset="1" stop-color="#57513e"/><stop offset="1" stop-color="#763b39"/><stop offset="1" stop-color="#813237"/></linearGradient></defs><g id="Layer_2" data-name="Layer 2"><g id="Trees"><g id="Tree_3" data-name="Tree 3"><g id="Tree_3_orange" data-name="Tree 3 orange"><g id="shade_copy_10" data-name="shade copy 10"><ellipse class="cls-1" cx="79.27" cy="198.5" rx="32" ry="16.5"/></g><g id="trunk_copy_10" data-name="trunk copy 10"><path class="cls-2" d="M66.77,200.5s2,6,12,5,10-5,10-5v-66h-22Z"/></g><g id="leaves_copy_10" data-name="leaves copy 10"><path class="cls-3" d="M153.27,145c-17,14-50,24-74,25-19.39.81-84-2-79-25a30.05,30.05,0,0,1,1.55-4.71C13.6,111.1,79.21,24.49,78.27,0c17,13.4,45.92,107.38,67.57,137.27C148.45,140.85,150.92,143.51,153.27,145Z"/><path class="cls-4" d="M153.27,145c-17,14-50,24-74,25-19.39.81-84-2-79-25a30.05,30.05,0,0,1,1.55-4.71C12,155.7,62.51,157.7,79.27,157c20.86-.87,48.53-8.54,66.57-19.73C148.45,140.85,150.92,143.51,153.27,145Z"/><path class="cls-5" d="M79.27,20a267.92,267.92,0,0,1-26,66c-15.89,28.49-36.1,52.25-38,51-.79-.52,1.39-5.6,25-48C56.35,60.14,69.84,36.44,79.27,20Z"/></g></g></g></g></g></svg>
