<svg xmlns="http://www.w3.org/2000/svg" xmlns:xlink="http://www.w3.org/1999/xlink" viewBox="0 0 117.32 182.41"><defs><style>.cls-1{opacity:0.33;fill:url(#linear-gradient);}.cls-2{fill:url(#New_Gradient_Swatch_6);}.cls-3{fill:url(#New_Gradient_Swatch_1);}.cls-4{opacity:0.18;fill:url(#linear-gradient-2);}.cls-5{fill:#fff;opacity:0.1;}</style><linearGradient id="linear-gradient" x1="31.22" y1="165.91" x2="95.22" y2="165.91" gradientUnits="userSpaceOnUse"><stop offset="0"/><stop offset="1"/></linearGradient><linearGradient id="New_Gradient_Swatch_6" x1="55.91" y1="148.23" x2="64.79" y2="128.1" gradientUnits="userSpaceOnUse"><stop offset="0" stop-color="#a67c52"/><stop offset="1" stop-color="#754c24"/></linearGradient><linearGradient id="New_Gradient_Swatch_1" y1="62.61" x2="117.32" y2="62.61" gradientUnits="userSpaceOnUse"><stop offset="0" stop-color="#8fc239"/><stop offset="0.2" stop-color="#81b738"/><stop offset="0.72" stop-color="#5f9e34"/><stop offset="1" stop-color="#529433"/></linearGradient><linearGradient id="linear-gradient-2" x1="1.87" y1="68.71" x2="117.32" y2="68.71" xlink:href="#linear-gradient"/></defs><g id="Layer_2" data-name="Layer 2"><g id="Trees"><g id="Tree_1" data-name="Tree 1"><g id="Tree_1_yellowgreen" data-name="Tree 1 yellowgreen"><g id="shade_copy_6" data-name="shade copy 6"><ellipse class="cls-1" cx="63.22" cy="165.91" rx="32" ry="16.5"/></g><g id="trunk_copy_6" data-name="trunk copy 6"><path class="cls-2" d="M50.72,167.91s2,6,12,5,10-5,10-5v-66h-22Z"/></g><g id="leaves_copy_6" data-name="leaves copy 6"><path class="cls-3" d="M106.22,113.41c-20.77,21.43-59.27,7.42-63,6-5.65-2.14-20.13-7.87-31-23a69.82,69.82,0,0,1-10.35-23,58.94,58.94,0,0,1,1.35-34c.63-1.81,12.63-34.57,43-39,18.1-2.64,34.83,8.18,39.91,11.8l1.38,1c.29.22,1.38,1,2.71,2.18,19.72,16.74,24.36,42.28,25,46C117.23,73.08,121.47,97.68,106.22,113.41Z"/><path class="cls-4" d="M106.22,113.41c-20.77,21.43-59.27,7.42-63,6-5.65-2.14-20.13-7.87-31-23a69.82,69.82,0,0,1-10.35-23c7.19,10.91,56.35,49,81.35,16s1-77,2.91-77.2l1.38,1c.29.22,1.38,1,2.71,2.18,19.72,16.74,24.36,42.28,25,46C117.23,73.08,121.47,97.68,106.22,113.41Z"/><circle class="cls-5" cx="45.22" cy="31.41" r="14"/></g></g></g></g></g></svg>
