<svg xmlns="http://www.w3.org/2000/svg" xmlns:xlink="http://www.w3.org/1999/xlink" viewBox="0 0 155 155"><defs><style>.cls-1{opacity:0.33;fill:url(#linear-gradient);}.cls-2{fill:url(#New_Gradient_Swatch_6);}</style><linearGradient id="linear-gradient" x1="41" y1="138.5" x2="105" y2="138.5" gradientUnits="userSpaceOnUse"><stop offset="0"/><stop offset="1"/></linearGradient><linearGradient id="New_Gradient_Swatch_6" x1="40.2" y1="134.3" x2="104.96" y2="-12.54" gradientUnits="userSpaceOnUse"><stop offset="0" stop-color="#a67c52"/><stop offset="1" stop-color="#754c24"/></linearGradient></defs><g id="Layer_2" data-name="Layer 2"><g id="Trees"><g id="Tree_3" data-name="Tree 3"><g id="Tree_3_dead" data-name="Tree 3 dead"><g id="shade_copy_23" data-name="shade copy 23"><ellipse class="cls-1" cx="73" cy="138.5" rx="32" ry="16.5"/></g><g id="trunk_copy_23" data-name="trunk copy 23"><path class="cls-2" d="M152,24a13.38,13.38,0,0,0-5-1s-2-1-1-4,6-5,7-5,1-2,1-3-2,0-2,0l-5,3,2-7-2-1-5,15s-3,6-3,3,3-11,3-11l-1-1s-2,8-3,9-1,7-1,7l-2,4-4-21h-2s4,17,4,19,0,6-3,5-2-13-2-14-1-9-1-12-1-3-2-2,1,17,1,21,0,8,1,9-4,8-5,10-4,12-4,12-11,3-14,3-1,15-1,15-8,4-10,4c-2-2,0-3,0-3h1V77l1-1c1-1-2-4-2-4V69c0-1-1,1-1,1s0,6-1,6,0,5,0,5l-4,2s-2,0-4,5-9,9-9,9L71,87a70.73,70.73,0,0,1-5-20c-1-11,3-21,4-22s3-7,3-7a39.87,39.87,0,0,1,3-4c1-1,3-6,3-6s4-3,4-4-1,0-1,0l-1-1s-5,1-6,4-3,2-3,2V26l-3,1v2s-6,8-6,12c-7-2-7-7-7-9s2-4,2-4l3-5,3-7s-1-2-2-2-3,5-3,5l-1-1-1,1,1,1s-5,7-6,10,1,4,1,6,2,5,5,7,3,6,3,6-1,4-2,4-4-4-8-10-5-11-5-12a53.88,53.88,0,0,1,3-10c1-2,1-7,1-7S53,2,53,1c1-1-2-1-3-1s0,4,0,7-3,8-3,8a29.56,29.56,0,0,0-2,9c0,4-4,5-4,5a13.38,13.38,0,0,1,1-5c1-2-2-4-3-5s-1-5-1-6V8s2-6,2-7-1,0-1,0L38,4a3.1,3.1,0,0,0-1-2c-1-1-2,0-3,0s1,2,1,3a1,1,0,0,0-1,1v7s-4-4-5-6-4-4-4-4a3.1,3.1,0,0,0-2,1c-1,1,0,3,2,4s6,8,6,8a36.09,36.09,0,0,1,4,5,5.64,5.64,0,0,1,0,6s-2,1-2,2,1,2,2,3c0,2,3,4,3,4l5,5c1,3,6,10,6,10l5,9L52,74v1l3-14,1,5s3,16,3,18,0,2-1,3a1.39,1.39,0,0,1-2,0l-1,1s3,2,2,3a4.94,4.94,0,0,1-3,1,1.39,1.39,0,0,0-2,0,19.56,19.56,0,0,0-9-5,22.69,22.69,0,0,1-4,1,3.49,3.49,0,0,1-2-1,3.54,3.54,0,0,0-3-3l-6-9-2-2V71s-1,0,0-1c0-1-2-1-2-1H23s-1,2,0,2c0,1,2,5,2,6a3.49,3.49,0,0,0,1,2h1l3,4s2,3,3,5,1,3-1,5-2,1-5,1c-2-2-4-4-7-5-4-3-8-4-11-5s-7-6-7-6a3.1,3.1,0,0,0-2,1c0,2,9,8,12,8s7,5,9,5,3,4,3,4-2,5-4,5a2,2,0,0,1-2,2l4,4L36,97s2-2,7-2,4,1,5,2a3.67,3.67,0,0,0,3,1c1,1,6,5,6,5s3,3,6,11c1.69,4.52,1.16,11.59.36,16.89L60,143s3,2,13,1,10,0,12-1c-4-5-9-23-2-36,1-2,1.38-2.91,1.18-3.13s-.53,0-1.11.51C84.7,100.53,87.86,93.71,90,93a6.93,6.93,0,0,0,4-3l14-6s10-6,12-7,5-1,7-2a4.4,4.4,0,0,1,5,1c3,0,4,2,5,3,1,4,1,3,1,3V79c0-4-2-2-2-2-1-1,1-3,3-4s3-5,3-5,1-3,2-4-2-1-2-1l-2,6s-5,4-9,4c-5-2-9,0-10,0s0-8,0-8,1-3,2-4a3.1,3.1,0,0,1,2-1h1a1,1,0,0,0,1-1c1,0,0-3,0-3a1,1,0,0,0-1-1c-.94,0-1.88,2.64-2,3l1-4a12.13,12.13,0,0,0,1-5c0-3,4-6,4-6l3-3a37.32,37.32,0,0,0,6-8c2-4,4-6,7-7s6,1,6,1h2a3.49,3.49,0,0,0,1-2C155,23,154,24,152,24ZM115,71s-4,3-5,3-3,3-4,0a15.77,15.77,0,0,1-1-4s0-5,3-5c4-2,9-4,9-3S115,71,115,71Z"/></g></g></g></g></g></svg>
