<svg xmlns="http://www.w3.org/2000/svg" xmlns:xlink="http://www.w3.org/1999/xlink" viewBox="0 0 94 209.01"><defs><style>.cls-1{opacity:0.33;fill:url(#linear-gradient);}.cls-2{fill:url(#linear-gradient-2);}.cls-3{fill:url(#green_tree_gradient);}.cls-4{opacity:0.17;}.cls-5{fill:#fff;opacity:0.11;}</style><linearGradient id="linear-gradient" x1="15" y1="192.51" x2="79" y2="192.51" gradientUnits="userSpaceOnUse"><stop offset="0"/><stop offset="1"/></linearGradient><linearGradient id="linear-gradient-2" x1="37.06" y1="170.12" x2="47.82" y2="145.73" gradientUnits="userSpaceOnUse"><stop offset="0" stop-color="#975d52"/><stop offset="0.03" stop-color="#965b51"/><stop offset="0.65" stop-color="#873d3e"/><stop offset="1" stop-color="#813237"/></linearGradient><linearGradient id="green_tree_gradient" x1="0.27" y1="45.48" x2="103.74" y2="163.06" gradientUnits="userSpaceOnUse"><stop offset="0" stop-color="#4a9f38"/><stop offset="0.01" stop-color="#4a9f38"/><stop offset="0.65" stop-color="#288844"/><stop offset="1" stop-color="#1b7f49"/><stop offset="1" stop-color="#277647"/><stop offset="1" stop-color="#57513e"/><stop offset="1" stop-color="#763b39"/><stop offset="1" stop-color="#813237"/></linearGradient></defs><g id="Layer_2" data-name="Layer 2"><g id="Trees"><g id="Tree_4" data-name="Tree 4"><g id="Tree_4_green" data-name="Tree 4 green"><g id="shade_copy_12" data-name="shade copy 12"><ellipse class="cls-1" cx="47" cy="192.51" rx="32" ry="16.5"/></g><g id="trunk_copy_12" data-name="trunk copy 12"><path class="cls-2" d="M34.5,194.51S38,204.5,47,200c4-2,9.5-5.5,9.5-5.5L62,116,25,129Z"/></g><g id="leaves_copy_12" data-name="leaves copy 12"><path class="cls-3" d="M94,147c-10,12-81,8-94,4,0,0,.59-1.17,1.51-3.37C7.35,133.83,26.74,79.39,0,19,24.77-2.84,42.22-2.53,53.63,3.59,65.71,10.05,71,23,71,23S75,131,94,147Z"/><path class="cls-4" d="M94,147c-10,12-81,8-94,4,0,0,.59-1.17,1.51-3.37C24.64,150.82,78.4,152.33,87,142,68,126,64,18,64,18A44.85,44.85,0,0,0,53.63,3.59C65.71,10.05,71,23,71,23S75,131,94,147Z"/><path class="cls-5" d="M8,19c.3-.08,15,29.39,17,58,1.8,25.53-13.7,58.05-14,58s9.89-32.22,8-58C16.89,48.18,7.7,19.09,8,19Z"/></g></g></g></g></g></svg>
