<svg xmlns="http://www.w3.org/2000/svg" xmlns:xlink="http://www.w3.org/1999/xlink" viewBox="0 0 125.16 157.65"><defs><style>.cls-1{opacity:0.33;fill:url(#linear-gradient);}.cls-2{fill:#975d52;}</style><linearGradient id="linear-gradient" y1="135.15" x2="86" y2="135.15" gradientUnits="userSpaceOnUse"><stop offset="0"/><stop offset="1"/></linearGradient></defs><g id="Layer_2" data-name="Layer 2"><g id="Trees"><g id="Tree_4" data-name="Tree 4"><g id="Tree_4_dead" data-name="Tree 4 dead"><g id="shade_copy_20" data-name="shade copy 20"><ellipse class="cls-1" cx="43" cy="135.15" rx="43" ry="22.5"/></g><g id="trunk_copy_20" data-name="trunk copy 20"><path class="cls-2" d="M20,138.65a1,1,0,0,0-1,1c0,1,3,1,3,1a4.38,4.38,0,0,0,3,1c2,0,12-2,13-2s3,6,5,5a20.73,20.73,0,0,1,6-2c1,0,9,3,12,3s7,0,7,2v4l2-2s0-1,2,0,3-1,0-3a50.73,50.73,0,0,1-7-6c-1-1-6-13-9-14s-6-9-4-17,7-23,11-26,21-19,22-22,15-21,15-21l16-25,9-15s1-2-2,1-11,14-11,14v-1l-2,1,3-7,2-3-3,3-2,2s-1-2-2,0a68.18,68.18,0,0,1-5,7s-25,41-29,42c-1,3-3,6-6,2-1-4-2-8,0-9a10,10,0,0,1,4-1s0-1-3-2c-2-2-3-1-3-1v-3H64v3s-2,1-2,0-4,1-4,1-5,1-5,3-1,8-2,8-5,1-4,2,3,3,1,10-15,34-15,34H32v-2H30l1,3H29s-2-2-2-1a3.49,3.49,0,0,0,1,2H26l-4-3s-2,0-1,1,5,4,5,4h0l4,2-5,2s-6,1-7,2-10,10-10,12-2,3,0,4a10,10,0,0,0,4,1v-2s-2-6,8-9,12-1,12-1a22.69,22.69,0,0,0-1,4c0,1,2,1,2,1s-2,5-4,6S20,138.65,20,138.65Z"/></g></g></g></g></g></svg>
