<svg xmlns="http://www.w3.org/2000/svg" xmlns:xlink="http://www.w3.org/1999/xlink" viewBox="0 0 137.81 192.07"><defs><style>.cls-1{opacity:0.33;fill:url(#linear-gradient);}.cls-2{fill:url(#linear-gradient-2);}.cls-3{fill:url(#green_tree_gradient);}.cls-4{fill:url(#linear-gradient-3);}.cls-5{fill:#fff;opacity:0.11;}</style><linearGradient id="linear-gradient" x1="31.68" y1="175.57" x2="110.68" y2="175.57" gradientUnits="userSpaceOnUse"><stop offset="0"/><stop offset="1"/></linearGradient><linearGradient id="linear-gradient-2" x1="93.96" y1="175.03" x2="66.23" y2="96.24" gradientUnits="userSpaceOnUse"><stop offset="0" stop-color="#975d52"/><stop offset="0.03" stop-color="#965b51"/><stop offset="0.65" stop-color="#873d3e"/><stop offset="1" stop-color="#813237"/></linearGradient><linearGradient id="green_tree_gradient" x1="12.42" y1="31.91" x2="114.64" y2="118.67" gradientUnits="userSpaceOnUse"><stop offset="0" stop-color="#4a9f38"/><stop offset="0.01" stop-color="#4a9f38"/><stop offset="0.65" stop-color="#288844"/><stop offset="1" stop-color="#1b7f49"/><stop offset="1" stop-color="#277647"/><stop offset="1" stop-color="#57513e"/><stop offset="1" stop-color="#763b39"/><stop offset="1" stop-color="#813237"/></linearGradient><linearGradient id="linear-gradient-3" x1="135.2" y1="145.8" x2="207.36" y2="207.05" gradientUnits="userSpaceOnUse"><stop offset="0" stop-opacity="0.15"/><stop offset="0.25" stop-color="#1f0e2c" stop-opacity="0.41"/><stop offset="0.6" stop-color="#451e62" stop-opacity="0.73"/><stop offset="0.86" stop-color="#5d2984" stop-opacity="0.92"/><stop offset="1" stop-color="#662d91"/><stop offset="1" stop-color="#1b7f49"/></linearGradient></defs><g id="Layer_2" data-name="Layer 2"><g id="Trees"><g id="Tree_2" data-name="Tree 2"><g id="Tree_2_green" data-name="Tree 2 green"><g id="shade_copy_4" data-name="shade copy 4"><ellipse class="cls-1" cx="71.18" cy="175.57" rx="39.5" ry="16.5"/></g><g id="trunk_copy_4" data-name="trunk copy 4"><path class="cls-2" d="M110.68,112.07s-2,23.67-30.5,23.67v41.83s0,4-10,5-12-5-12-5V135.48c0,.09.56.51.5.59-22.74,0-25-24-25-24h5c.75,16.88,17.13,18.81,19.5,19v-32h22v32c3.68-.24,24.58-2.42,25.5-19Z"/></g><g id="leaves_copy_4" data-name="leaves copy 4"><path class="cls-3" d="M137.68,83.07c-1.48,14.1-7.37,30.4-18.08,35.83-5.06,6.69-12,10.52-20.92,8.17a268.68,268.68,0,0,1-35-12S18.83,147,5.75,109.26a34,34,0,0,1-4.63-9.19c-6-22,14-34,14-34-2.45-4.91-6.91-29.89,9.05-36.63,3.56-1.5,8.12-2.1,13.95-1.37a43,43,0,0,1,1.19-7.23C41,14.53,44.22,9.55,49.68,7.75h0C52.52,2.64,57.13-.51,64.12.07,76.87,1.13,80.46,7.64,82.51,14.79c.22.75.42,1.52.61,2.28l.95-.28c9.93-2.83,19.61-1.92,21,9.87a39.41,39.41,0,0,1-.93,12.41,12.53,12.53,0,0,1,5.62,1c7.91,3,18.55,12.28,22.21,23.58h0C135.89,69.33,138.42,76.06,137.68,83.07Z"/><path class="cls-4" d="M137.68,83.07c-1.48,14.1-7.37,30.4-18.08,35.83-5.06,6.69-12,10.52-20.92,8.17a268.68,268.68,0,0,1-35-12S18.83,147,5.75,109.26c16.7,22.89,53.37-3.19,53.37-3.19a268.68,268.68,0,0,0,35,12C103,120.42,110,116.59,115,109.9c10.71-5.43,16.6-21.73,18.08-35.83A25.15,25.15,0,0,0,132,63.67C135.89,69.33,138.42,76.06,137.68,83.07Z"/></g><g id="Layer_18_copy" data-name="Layer 18 copy"><path class="cls-5" d="M28.68,52.07c-1-8-3-18,10-15s8,1,11-7,7.83-5.62,13,3C83.68,68.07,29.68,60.07,28.68,52.07Z"/></g></g></g></g></g></svg>
