<svg xmlns="http://www.w3.org/2000/svg" xmlns:xlink="http://www.w3.org/1999/xlink" viewBox="0 0 94 209.01"><defs><style>.cls-1{opacity:0.33;fill:url(#linear-gradient);}.cls-2{fill:url(#New_Gradient_Swatch_6);}.cls-3{fill:url(#New_Gradient_Swatch_1);}.cls-4{opacity:0.17;}.cls-5{fill:#fff;opacity:0.11;}</style><linearGradient id="linear-gradient" x1="15" y1="192.51" x2="79" y2="192.51" gradientUnits="userSpaceOnUse"><stop offset="0"/><stop offset="1"/></linearGradient><linearGradient id="New_Gradient_Swatch_6" x1="37.06" y1="170.12" x2="47.82" y2="145.73" gradientUnits="userSpaceOnUse"><stop offset="0" stop-color="#a67c52"/><stop offset="1" stop-color="#754c24"/></linearGradient><linearGradient id="New_Gradient_Swatch_1" x1="-11.6" y1="27.35" x2="86.61" y2="149.35" gradientUnits="userSpaceOnUse"><stop offset="0" stop-color="#8fc239"/><stop offset="0.2" stop-color="#81b738"/><stop offset="0.72" stop-color="#5f9e34"/><stop offset="1" stop-color="#529433"/></linearGradient></defs><g id="Layer_2" data-name="Layer 2"><g id="Trees"><g id="Tree_4" data-name="Tree 4"><g id="Tree_4_yellow" data-name="Tree 4 yellow"><g id="shade_copy_15" data-name="shade copy 15"><ellipse class="cls-1" cx="47" cy="192.51" rx="32" ry="16.5"/></g><g id="trunk_copy_15" data-name="trunk copy 15"><path class="cls-2" d="M34.5,194.51S38,204.5,47,200c4-2,9.5-5.5,9.5-5.5L62,116,25,129Z"/></g><g id="leaves_copy_15" data-name="leaves copy 15"><path class="cls-3" d="M94,147c-10,12-81,8-94,4,0,0,.59-1.17,1.51-3.37C7.35,133.83,26.74,79.39,0,19,24.77-2.84,42.22-2.53,53.63,3.59,65.71,10.05,71,23,71,23S75,131,94,147Z"/><path class="cls-4" d="M94,147c-10,12-81,8-94,4,0,0,.59-1.17,1.51-3.37C24.64,150.82,78.4,152.33,87,142,68,126,64,18,64,18A44.85,44.85,0,0,0,53.63,3.59C65.71,10.05,71,23,71,23S75,131,94,147Z"/><path class="cls-5" d="M8,19c.3-.08,15,29.39,17,58,1.8,25.53-13.7,58.05-14,58s9.89-32.22,8-58C16.89,48.18,7.7,19.09,8,19Z"/></g></g></g></g></g></svg>
